<svg width="189" height="146" viewBox="0 0 189 146" fill="none" xmlns="http://www.w3.org/2000/svg">
<path d="M85.6959 21.0704C67.5483 21.5758 46.2704 14.8816 29.8576 26.1542C15.2248 36.2236 13.1016 61.7706 24.012 75.2795C34.2286 87.9361 57.1771 93.6308 72.7716 92.1223C94.5736 90.0103 98.345 74.3254 114.324 64.6934C131.435 54.3788 146.165 68.5515 162.861 63.0679C182.155 56.7359 180.443 31.9582 171.973 17.9251C162.363 2.00255 142.428 -3.35275 124.714 2.0214C109.904 6.51683 101.913 20.6216 85.6959 21.0704Z" fill="#F0F0F0"/>
<path opacity="0.8" d="M85.6959 21.0704C67.5483 21.5758 46.2704 14.8816 29.8576 26.1542C15.2248 36.2236 13.1016 61.7706 24.012 75.2795C34.2286 87.9361 57.1771 93.6308 72.7716 92.1223C94.5736 90.0103 98.345 74.3254 114.324 64.6934C131.435 54.3788 146.165 68.5515 162.861 63.0679C182.155 56.7359 180.443 31.9582 171.973 17.9251C162.363 2.00255 142.428 -3.35275 124.714 2.0214C109.904 6.51683 101.913 20.6216 85.6959 21.0704Z" fill="#F0F0F0"/>
<path d="M94.2833 145.803C134.668 145.803 167.406 143.892 167.406 141.534C167.406 139.176 134.668 137.265 94.2833 137.265C53.8989 137.265 21.1609 139.176 21.1609 141.534C21.1609 143.892 53.8989 145.803 94.2833 145.803Z" fill="#F5F5F5"/>
<path d="M118.043 26.0183H97.9415C97.2333 26.0185 96.5415 26.2319 95.9563 26.6308C95.3711 27.0297 94.9195 27.5956 94.6605 28.2547L92.8691 32.7803H123.119L121.328 28.2547C121.068 27.595 120.616 27.0287 120.03 26.6297C119.444 26.2308 118.752 26.0177 118.043 26.0183Z" fill="black"/>
<path opacity="0.4" d="M118.043 26.0183H97.9415C97.2333 26.0185 96.5415 26.2319 95.9563 26.6308C95.3711 27.0297 94.9195 27.5956 94.6605 28.2547L92.8691 32.7803H123.119L121.328 28.2547C121.068 27.595 120.616 27.0287 120.03 26.6297C119.444 26.2308 118.752 26.0177 118.043 26.0183Z" fill="white"/>
<path d="M60.975 26.0183H40.8738C40.165 26.0182 39.4726 26.2315 38.8868 26.6304C38.3009 27.0292 37.8487 27.5953 37.5889 28.2547L35.7975 32.7803H66.0512L64.2598 28.2547C64.0001 27.5953 63.5478 27.0292 62.962 26.6304C62.3761 26.2315 61.6837 26.0182 60.975 26.0183Z" fill="black"/>
<path opacity="0.2" d="M60.975 26.0183H40.8738C40.165 26.0182 39.4726 26.2315 38.8868 26.6304C38.3009 27.0292 37.8487 27.5953 37.5889 28.2547L35.7975 32.7803H66.0512L64.2598 28.2547C64.0001 27.5953 63.5478 27.0292 62.962 26.6304C62.3761 26.2315 61.6837 26.0182 60.975 26.0183Z" fill="black"/>
<path d="M153.391 32.2825H94.3889L92.7974 28.2547C92.5373 27.5956 92.0849 27.0298 91.4992 26.631C90.9134 26.2322 90.2213 26.0187 89.5126 26.0183H69.4114C68.7025 26.0177 68.0099 26.2308 67.424 26.6297C66.838 27.0287 66.3859 27.595 66.1266 28.2547L64.5351 32.2825H35.1753C34.0829 32.2884 33.0369 32.725 32.2644 33.4975C31.492 34.2699 31.0554 35.3159 31.0494 36.4083V115.124C31.0554 116.216 31.492 117.262 32.2644 118.034C33.0369 118.807 34.0829 119.243 35.1753 119.249H153.391C154.484 119.243 155.53 118.807 156.302 118.034C157.075 117.262 157.511 116.216 157.517 115.124V36.4083C157.511 35.3159 157.075 34.2699 156.302 33.4975C155.53 32.725 154.484 32.2884 153.391 32.2825Z" fill="black"/>
<path d="M154.877 115.203V44.1736C154.877 43.3966 154.248 42.7668 153.471 42.7668L35.0999 42.7668C34.323 42.7668 33.6931 43.3966 33.6931 44.1736V115.203C33.6931 115.98 34.323 116.61 35.0999 116.61L153.471 116.61C154.248 116.61 154.877 115.98 154.877 115.203Z" fill="white"/>
<path d="M95.5883 62.2949H75.3475V68.2951H95.5883V62.2949Z" fill="black"/>
<path d="M113.219 62.2949H99.0126V68.2951H113.219V62.2949Z" fill="black"/>
<path d="M30.1066 57.9917H29.7295V65.2968H30.1066V57.9917Z" fill="black"/>
<path d="M30.1066 68.0688H29.7295V70.7503H30.1066V68.0688Z" fill="black"/>
<path d="M50.9282 45.2222H44.498V46.6553H50.9282V45.2222Z" fill="black"/>
<path d="M42.7142 45.2222H36.2841V46.6553H42.7142V45.2222Z" fill="black"/>
<path d="M125.397 85.1302H63.1699V73.6804H125.397V85.1302ZM63.5471 84.753H125.02V74.0576H63.5471V84.753Z" fill="black"/>
<path d="M65.6854 76.543H65.3082V82.2716H65.6854V76.543Z" fill="black"/>
<path d="M110.417 88.7771H78.1496V90.2102H110.417V88.7771Z" fill="black"/>
<path d="M118.45 81.5889C117.992 81.5894 117.541 81.4769 117.138 81.2614C116.734 81.046 116.389 80.7342 116.134 80.3538C115.88 79.9733 115.723 79.536 115.678 79.0804C115.633 78.6249 115.7 78.1652 115.875 77.7422C116.05 77.3191 116.327 76.9458 116.681 76.6552C117.034 76.3646 117.454 76.1657 117.903 76.0762C118.352 75.9867 118.816 76.0093 119.254 76.142C119.692 76.2747 120.091 76.5135 120.415 76.8371C120.804 77.2261 121.069 77.7218 121.177 78.2615C121.285 78.8012 121.23 79.3607 121.019 79.8692C120.809 80.3778 120.453 80.8126 119.996 81.1187C119.538 81.4248 119 81.5884 118.45 81.5889ZM118.45 76.7767C117.981 76.776 117.525 76.9381 117.162 77.2353C116.799 77.5326 116.55 77.9467 116.457 78.407C116.365 78.8673 116.435 79.3453 116.656 79.7596C116.877 80.174 117.234 80.4989 117.668 80.6792C118.101 80.8594 118.584 80.8838 119.033 80.7481C119.483 80.6124 119.871 80.325 120.132 79.935C120.394 79.545 120.512 79.0764 120.466 78.6092C120.421 78.1419 120.215 77.7049 119.883 77.3726C119.503 76.9919 118.988 76.7776 118.45 76.7767Z" fill="black"/>
<path d="M122.055 82.7883C122.006 82.7885 121.957 82.779 121.911 82.7603C121.865 82.7415 121.823 82.7138 121.788 82.6789L119.883 80.7744C119.812 80.7034 119.772 80.607 119.772 80.5066C119.772 80.4062 119.812 80.3099 119.883 80.2388C119.954 80.1678 120.051 80.1279 120.151 80.1279C120.251 80.1279 120.348 80.1678 120.419 80.2388L122.323 82.1471C122.393 82.2178 122.433 82.3134 122.433 82.413C122.433 82.5126 122.393 82.6082 122.323 82.6789C122.288 82.7138 122.246 82.7415 122.2 82.7603C122.154 82.779 122.105 82.7885 122.055 82.7883Z" fill="black"/>
<path opacity="0.6" d="M125.397 85.1302H63.1699V73.6804H125.397V85.1302ZM63.5471 84.753H125.02V74.0576H63.5471V84.753Z" fill="white"/>
<path opacity="0.6" d="M65.6854 76.543H65.3082V82.2716H65.6854V76.543Z" fill="white"/>
<path opacity="0.6" d="M110.417 88.7771H78.1496V90.2102H110.417V88.7771Z" fill="white"/>
<path opacity="0.6" d="M50.9282 45.2222H44.498V46.6553H50.9282V45.2222Z" fill="white"/>
<path opacity="0.6" d="M42.7142 45.2222H36.2841V46.6553H42.7142V45.2222Z" fill="white"/>
<g opacity="0.6">
<path opacity="0.6" d="M118.45 81.5889C117.992 81.5894 117.541 81.4769 117.138 81.2614C116.734 81.046 116.389 80.7342 116.134 80.3538C115.88 79.9733 115.723 79.536 115.678 79.0804C115.633 78.6249 115.7 78.1652 115.875 77.7422C116.05 77.3191 116.327 76.9458 116.681 76.6552C117.034 76.3646 117.454 76.1657 117.903 76.0762C118.352 75.9867 118.816 76.0093 119.254 76.142C119.692 76.2747 120.091 76.5135 120.415 76.8371C120.804 77.2261 121.069 77.7218 121.177 78.2615C121.285 78.8012 121.23 79.3607 121.019 79.8692C120.809 80.3778 120.453 80.8126 119.996 81.1187C119.538 81.4248 119 81.5884 118.45 81.5889ZM118.45 76.7767C117.981 76.776 117.525 76.9381 117.162 77.2353C116.799 77.5326 116.55 77.9467 116.457 78.407C116.365 78.8673 116.435 79.3453 116.656 79.7596C116.877 80.174 117.234 80.4989 117.668 80.6792C118.101 80.8594 118.584 80.8838 119.033 80.7481C119.483 80.6124 119.871 80.325 120.132 79.935C120.394 79.545 120.512 79.0764 120.466 78.6092C120.421 78.1419 120.215 77.7049 119.883 77.3726C119.503 76.9919 118.988 76.7776 118.45 76.7767Z" fill="white"/>
<path opacity="0.6" d="M122.055 82.7883C122.006 82.7885 121.957 82.779 121.911 82.7603C121.865 82.7415 121.823 82.7138 121.788 82.6789L119.883 80.7744C119.812 80.7034 119.772 80.607 119.772 80.5066C119.772 80.4062 119.812 80.3099 119.883 80.2388C119.954 80.1678 120.05 80.1279 120.151 80.1279C120.251 80.1279 120.348 80.1678 120.419 80.2388L122.323 82.1471C122.393 82.2178 122.433 82.3134 122.433 82.413C122.433 82.5126 122.393 82.6082 122.323 82.6789C122.288 82.7138 122.246 82.7415 122.2 82.7603C122.154 82.779 122.105 82.7885 122.055 82.7883Z" fill="white"/>
</g>
<path d="M138.544 40.3982C138.166 42.2839 137.412 46.0552 138.713 47.3186C138.713 47.3186 138.204 49.2042 134.719 49.2042C130.888 49.2042 132.89 47.3186 132.89 47.3186C134.98 46.8208 134.927 45.2707 134.561 43.8112L138.544 40.3982Z" fill="#E4897B"/>
<path d="M132.672 47.9334C132.155 48.0088 132.634 46.8284 132.849 46.7039C133.343 46.4097 139.637 45.8176 139.566 46.4814C139.523 46.8745 139.35 47.2421 139.075 47.5261C138.785 47.7259 137.201 47.2055 132.672 47.9334Z" fill="black"/>
<path opacity="0.6" d="M132.672 47.9334C132.155 48.0088 132.634 46.8284 132.849 46.7039C133.343 46.4097 139.637 45.8176 139.566 46.4814C139.523 46.8745 139.35 47.2421 139.075 47.5261C138.785 47.7259 137.201 47.2055 132.672 47.9334Z" fill="white"/>
<path d="M145.573 51.7124C145.77 52.4667 145.984 53.2964 146.218 54.0883C146.452 54.8803 146.675 55.6949 146.92 56.4944C147.165 57.294 147.414 58.101 147.674 58.8968L148.051 60.0961L148.149 60.394L148.187 60.4996C148.193 60.5215 148.2 60.543 148.21 60.5637C148.255 60.6719 148.314 60.7744 148.383 60.8692C148.801 61.4067 149.312 61.8652 149.892 62.2231C150.557 62.6616 151.251 63.0547 151.97 63.3998C153.465 64.1193 154.999 64.7576 156.563 65.3118L156.186 66.8694C154.436 66.6039 152.714 66.1772 151.042 65.5947C150.177 65.2929 149.337 64.9274 148.526 64.501C147.609 64.0289 146.788 63.3893 146.105 62.6153C145.907 62.376 145.734 62.117 145.588 61.8422C145.547 61.7705 145.513 61.6951 145.475 61.6159L145.396 61.4236L145.268 61.1219C145.098 60.7221 144.928 60.3224 144.77 59.915C144.453 59.1042 144.137 58.2934 143.857 57.4675C143.578 56.6415 143.299 55.8156 143.047 54.9784L142.692 53.7112C142.575 53.2775 142.477 52.8702 142.375 52.395L145.573 51.7124Z" fill="#E4897B"/>
<path d="M146.878 53.0474L143.707 55.5742L141.802 57.0827C141.802 57.0827 141.602 56.551 141.361 55.7892C140.901 54.3184 140.301 51.9877 140.716 50.9166C141.368 49.2195 142.602 47.6884 144.163 48.0278C145.475 48.3257 146.878 53.0474 146.878 53.0474Z" fill="black"/>
<path opacity="0.2" d="M146.878 53.0474L143.707 55.5742L141.802 57.0827C141.802 57.0827 141.602 56.551 141.361 55.7892C140.901 54.3184 140.301 51.9877 140.716 50.9166C141.368 49.2195 142.602 47.6884 144.163 48.0278C145.475 48.3257 146.878 53.0474 146.878 53.0474Z" fill="white"/>
<path opacity="0.1" d="M143.707 55.5742L141.802 57.0827C141.802 57.0827 141.602 56.551 141.361 55.7891L142.492 50.1887L143.707 55.5742Z" fill="black"/>
<path d="M127.55 48.1295C127.55 48.1295 126.042 48.6575 129.059 67.1936H141.881C141.666 61.974 141.659 58.7533 144.144 48.0352C142.347 47.6645 140.526 47.425 138.694 47.3186C136.756 47.1789 134.81 47.1789 132.872 47.3186C130.386 47.5374 127.55 48.1295 127.55 48.1295Z" fill="black"/>
<path opacity="0.2" d="M127.55 48.1295C127.55 48.1295 126.042 48.6575 129.059 67.1936H141.881C141.666 61.974 141.659 58.7533 144.144 48.0352C142.347 47.6645 140.526 47.425 138.694 47.3186C136.756 47.1789 134.81 47.1789 132.872 47.3186C130.386 47.5374 127.55 48.1295 127.55 48.1295Z" fill="white"/>
<path d="M158.498 67.6347L157.517 69.6336L156.869 67.5254L158.302 65.553L158.498 67.6347Z" fill="#E4897B"/>
<path d="M121.69 138.287L118.612 137.574L120.053 130.397L123.13 131.11L121.69 138.287Z" fill="#E4897B"/>
<path d="M142.496 138.31H139.336L139.584 130.993H142.745L142.496 138.31Z" fill="#E4897B"/>
<path d="M120.053 130.401L119.28 134.244L122.387 134.81L123.134 131.114L120.053 130.401Z" fill="#CE6F64"/>
<path d="M142.745 130.993H139.585L139.46 134.764H142.62L142.745 130.993Z" fill="#CE6F64"/>
<path d="M129.059 67.1936C129.059 67.1936 125.499 91.5187 124.247 101.075C122.945 111.013 119.144 133.294 119.144 133.294L123.364 133.939C123.364 133.939 130.043 112.687 131.902 103.014C133.931 92.4728 138.453 67.186 138.453 67.186L129.059 67.1936Z" fill="black"/>
<path opacity="0.7" d="M129.059 67.1936C129.059 67.1936 125.499 91.5187 124.247 101.075C122.945 111.013 119.144 133.294 119.144 133.294L123.364 133.939C123.364 133.939 130.043 112.687 131.902 103.014C133.931 92.4728 138.453 67.186 138.453 67.186L129.059 67.1936Z" fill="black"/>
<path d="M132.445 67.1937C132.445 67.1937 134.282 88.8751 136.183 101.094C137.718 110.964 138.932 134.037 138.932 134.037H143.239C143.239 134.037 145.291 111.756 144.51 101.98C142.537 77.282 146 72.9073 141.889 67.1824L132.445 67.1937Z" fill="black"/>
<path opacity="0.7" d="M132.445 67.1937C132.445 67.1937 134.282 88.8751 136.183 101.094C137.718 110.964 138.932 134.037 138.932 134.037H143.239C143.239 134.037 145.291 111.756 144.51 101.98C142.537 77.282 146 72.9073 141.889 67.1824L132.445 67.1937Z" fill="black"/>
<path d="M156.077 65.1985L158.302 65.553L156.887 67.5254C156.887 67.5254 154.708 66.7372 154.794 65.4285L156.077 65.1985Z" fill="#E4897B"/>
<path d="M138.008 138.494C137.794 138.513 137.579 138.454 137.405 138.328C137.352 138.279 137.313 138.216 137.291 138.147C137.269 138.077 137.265 138.004 137.28 137.932C137.284 137.887 137.3 137.844 137.325 137.807C137.351 137.77 137.386 137.74 137.427 137.721C137.804 137.555 138.755 138.174 138.864 138.245C138.877 138.253 138.886 138.265 138.892 138.278C138.898 138.292 138.9 138.306 138.898 138.321C138.895 138.335 138.888 138.348 138.878 138.359C138.868 138.369 138.855 138.377 138.842 138.381C138.569 138.449 138.289 138.487 138.008 138.494ZM137.586 137.842C137.555 137.836 137.523 137.836 137.491 137.842C137.473 137.851 137.458 137.864 137.447 137.88C137.435 137.897 137.429 137.916 137.427 137.936C137.416 137.984 137.418 138.034 137.432 138.081C137.445 138.128 137.471 138.17 137.506 138.204C137.665 138.351 138.08 138.37 138.638 138.261C138.32 138.049 137.962 137.906 137.586 137.842Z" fill="black"/>
<path d="M138.823 138.381C138.81 138.385 138.797 138.385 138.785 138.381C138.483 138.208 137.91 137.529 137.982 137.171C137.994 137.112 138.025 137.06 138.071 137.022C138.117 136.984 138.175 136.964 138.234 136.963C138.291 136.956 138.349 136.96 138.404 136.977C138.458 136.994 138.509 137.023 138.551 137.061C138.894 137.367 138.898 138.276 138.898 138.317C138.898 138.33 138.894 138.343 138.887 138.354C138.881 138.365 138.872 138.374 138.86 138.381C138.848 138.385 138.835 138.385 138.823 138.381ZM138.287 137.103H138.253C138.155 137.103 138.136 137.159 138.129 137.193C138.084 137.412 138.442 137.921 138.744 138.162C138.751 137.808 138.648 137.46 138.449 137.167C138.428 137.146 138.403 137.13 138.375 137.119C138.347 137.108 138.317 137.102 138.287 137.103Z" fill="black"/>
<path d="M118.341 137.099C117.831 136.997 116.945 136.763 116.749 136.345C116.719 136.287 116.703 136.222 116.703 136.156C116.703 136.091 116.719 136.026 116.749 135.968C116.766 135.93 116.793 135.899 116.827 135.875C116.861 135.852 116.901 135.838 116.941 135.836C117.371 135.783 118.295 136.861 118.401 136.967C118.409 136.979 118.414 136.992 118.415 137.006C118.416 137.02 118.413 137.034 118.407 137.047C118.401 137.06 118.392 137.07 118.38 137.078C118.368 137.086 118.355 137.091 118.341 137.091V137.099ZM116.975 135.968H116.957C116.94 135.97 116.924 135.976 116.911 135.986C116.898 135.996 116.888 136.009 116.881 136.024C116.86 136.063 116.849 136.106 116.849 136.151C116.849 136.195 116.86 136.238 116.881 136.277C116.994 136.511 117.462 136.737 118.152 136.899C117.764 136.484 117.221 135.971 116.975 135.971V135.968Z" fill="black"/>
<path d="M118.341 137.099C118.32 137.097 118.301 137.088 118.288 137.073C118.005 136.771 117.579 135.858 117.767 135.564C117.805 135.511 117.86 135.473 117.923 135.457C117.986 135.441 118.052 135.448 118.111 135.477C118.182 135.498 118.248 135.534 118.306 135.582C118.363 135.63 118.409 135.69 118.442 135.756C118.684 136.213 118.424 137.027 118.412 137.061C118.409 137.074 118.402 137.085 118.393 137.093C118.384 137.102 118.372 137.108 118.359 137.11L118.341 137.099ZM117.963 135.59C117.903 135.59 117.888 135.617 117.881 135.628C117.767 135.813 118.028 136.503 118.292 136.865C118.403 136.522 118.403 136.152 118.292 135.809C118.267 135.76 118.233 135.717 118.19 135.682C118.148 135.646 118.099 135.621 118.046 135.605C118.024 135.598 118.002 135.593 117.979 135.59H117.963Z" fill="black"/>
<path d="M130.937 36.3782C130.913 36.3785 130.89 36.3731 130.869 36.3627C130.848 36.3522 130.83 36.3368 130.816 36.3178C130.71 36.1621 130.569 36.0338 130.404 35.9433C130.238 35.8529 130.054 35.8029 129.866 35.7974C129.844 35.8008 129.822 35.7995 129.801 35.7936C129.78 35.7877 129.761 35.7773 129.744 35.7632C129.728 35.749 129.714 35.7314 129.705 35.7116C129.696 35.6918 129.691 35.6702 129.691 35.6484C129.691 35.6266 129.696 35.605 129.705 35.5852C129.714 35.5654 129.728 35.5478 129.744 35.5336C129.761 35.5195 129.78 35.5091 129.801 35.5032C129.822 35.4973 129.844 35.496 129.866 35.4994C130.103 35.5044 130.335 35.565 130.544 35.6764C130.753 35.7877 130.933 35.9468 131.069 36.1406C131.081 36.1566 131.089 36.1749 131.094 36.1942C131.098 36.2135 131.099 36.2336 131.096 36.2532C131.093 36.2728 131.086 36.2917 131.075 36.3086C131.065 36.3255 131.051 36.3402 131.035 36.3518C131.006 36.3719 130.972 36.3813 130.937 36.3782Z" fill="#263238"/>
<path d="M130.111 38.177C129.908 38.7678 129.623 39.3275 129.266 39.8402C129.4 39.9271 129.55 39.9839 129.708 40.0067C129.866 40.0295 130.026 40.0177 130.179 39.9722L130.111 38.177Z" fill="#DE5753"/>
<path d="M130.311 37.732C130.311 37.9884 130.194 38.1996 130.024 38.2034C129.854 38.2071 129.715 38.011 129.707 37.7546C129.7 37.4981 129.824 37.2907 129.99 37.2832C130.156 37.2756 130.3 37.4793 130.311 37.732Z" fill="#263238"/>
<path d="M130.066 37.2944L129.447 37.1436C129.447 37.1436 129.779 37.6074 130.066 37.2944Z" fill="#263238"/>
<path d="M139.087 137.944H142.635C142.697 137.942 142.756 137.964 142.803 138.003C142.849 138.043 142.88 138.098 142.888 138.159L143.292 140.965C143.3 141.036 143.293 141.108 143.271 141.176C143.249 141.244 143.213 141.306 143.165 141.359C143.118 141.412 143.059 141.455 142.994 141.484C142.928 141.512 142.858 141.527 142.786 141.527C141.549 141.508 140.953 141.432 139.392 141.432C138.43 141.432 137.028 141.534 135.704 141.534C134.38 141.534 134.308 140.222 134.859 140.105C137.333 139.569 137.725 138.838 138.559 138.136C138.707 138.013 138.894 137.945 139.087 137.944Z" fill="#263238"/>
<path d="M118.672 136.763L121.95 138.125C122.007 138.147 122.053 138.189 122.081 138.243C122.109 138.298 122.116 138.36 122.101 138.419L121.399 141.168C121.379 141.237 121.345 141.3 121.299 141.355C121.252 141.409 121.195 141.453 121.131 141.484C121.066 141.515 120.996 141.531 120.925 141.533C120.853 141.534 120.782 141.521 120.717 141.493C119.585 140.999 119.057 140.704 117.616 140.105C116.73 139.728 114.856 139.068 113.63 138.559C112.405 138.049 112.846 136.812 113.4 136.914C115.889 137.374 117.073 137.069 118.111 136.741C118.295 136.682 118.494 136.69 118.672 136.763Z" fill="#263238"/>
<path d="M128.806 52.4402C128.065 54.304 127.226 56.1269 126.291 57.9011C125.827 58.7911 125.336 59.6774 124.782 60.541C124.654 60.7598 124.503 60.9747 124.363 61.1897C124.224 61.4047 124.077 61.6234 123.915 61.8346C123.752 62.0458 123.617 62.2645 123.436 62.4757L123.179 62.7925L123.051 62.9509L122.964 63.049L122.862 63.1584C122.361 63.659 121.751 64.036 121.079 64.2596C120.525 64.4435 119.954 64.5698 119.374 64.6367C118.32 64.7612 117.256 64.7789 116.198 64.6895C114.179 64.529 112.18 64.1677 110.232 63.6109L110.557 62.042C111.492 62.1288 112.465 62.208 113.415 62.2457C114.366 62.2834 115.32 62.3098 116.251 62.2721C117.151 62.2502 118.046 62.1518 118.929 61.9779C119.317 61.9 119.696 61.7825 120.06 61.6272C120.317 61.5259 120.546 61.3672 120.732 61.1633L121.067 60.6957C121.195 60.526 121.312 60.3185 121.444 60.1375C121.686 59.7604 121.92 59.3569 122.15 58.9533C122.606 58.1425 123.032 57.2902 123.455 56.4416C123.877 55.5931 124.269 54.7143 124.665 53.8394C125.061 52.9644 125.446 52.0744 125.797 51.1995L128.806 52.4402Z" fill="#E4897B"/>
<path d="M110.73 63.7542L107.506 63.1999L108.848 60.8428C108.848 60.8428 111.088 61.4424 111.601 62.6492L110.73 63.7542Z" fill="#E4897B"/>
<path d="M105.379 62.4343L106.22 61.0162L108.848 60.8352L107.506 63.1961L105.379 62.4343Z" fill="#E4897B"/>
<path d="M138.834 36.5213C138.766 39.6553 138.804 40.9828 137.288 42.6497C135.025 45.1577 131.171 44.3883 130.303 41.2958C129.523 38.5126 129.768 33.855 132.777 32.4898C133.44 32.1859 134.169 32.0565 134.896 32.1138C135.623 32.1711 136.323 32.4132 136.929 32.8172C137.536 33.2211 138.03 33.7734 138.363 34.4217C138.696 35.07 138.859 35.7927 138.834 36.5213Z" fill="#E4897B"/>
<path d="M142.605 36.4648C142.326 34.202 141.221 31.9769 139.988 30.8833C137.016 28.2433 133.026 30.3553 131.057 31.9694C128.998 33.659 130.416 36.3366 131.676 37.6792C131.696 38.1597 131.77 38.6365 131.895 39.101C131.699 40.338 130.873 41.5637 129.715 42.5518C133.633 43.6832 139.37 43.7774 141.489 42.9892C144.227 41.9747 143.122 41.1752 142.605 36.4648Z" fill="#263238"/>
<path d="M132.823 37.9735C132.769 38.5638 132.516 39.1185 132.106 39.5461C131.548 40.1231 130.975 39.7912 130.873 39.1086C130.786 38.4939 130.971 37.453 131.65 37.1249C132.328 36.7968 132.868 37.2758 132.823 37.9735Z" fill="#E4897B"/>
<path d="M118.522 133.309L123.93 134.229L124.544 132.189L118.755 131.197L118.522 133.309Z" fill="black"/>
<path d="M138.34 134.12H143.827L144.114 132.196L138.31 132L138.34 134.12Z" fill="black"/>
<path d="M142.081 66.4432L142.658 67.5746C142.703 67.6651 142.598 67.7556 142.451 67.7556H128.98C128.866 67.7556 128.768 67.6991 128.761 67.6236L128.648 66.4922C128.648 66.413 128.738 66.3451 128.866 66.3451H141.859C141.901 66.3386 141.945 66.3444 141.984 66.3617C142.024 66.3791 142.057 66.4074 142.081 66.4432Z" fill="black"/>
<path opacity="0.6" d="M142.081 66.4432L142.658 67.5746C142.703 67.6651 142.598 67.7556 142.451 67.7556H128.98C128.866 67.7556 128.768 67.6991 128.761 67.6236L128.648 66.4922C128.648 66.413 128.738 66.3451 128.866 66.3451H141.859C141.901 66.3386 141.945 66.3444 141.984 66.3617C142.024 66.3791 142.057 66.4074 142.081 66.4432Z" fill="white"/>
<path d="M140.335 67.9025H140.671C140.739 67.9025 140.791 67.8648 140.788 67.8233L140.622 66.3148C140.622 66.2695 140.558 66.2356 140.49 66.2356H140.139C140.071 66.2356 140.018 66.2695 140.022 66.3148L140.188 67.8233C140.207 67.8573 140.267 67.9025 140.335 67.9025Z" fill="black"/>
<path d="M131.902 67.9025H132.249C132.317 67.9025 132.374 67.8648 132.366 67.8233L132.204 66.3148C132.204 66.2695 132.14 66.2356 132.068 66.2356H131.721C131.653 66.2356 131.601 66.2695 131.604 66.3148L131.767 67.8233C131.77 67.8573 131.831 67.9025 131.902 67.9025Z" fill="black"/>
<path opacity="0.7" d="M140.335 67.9025H140.671C140.739 67.9025 140.791 67.8648 140.788 67.8233L140.622 66.3148C140.622 66.2695 140.558 66.2356 140.49 66.2356H140.139C140.071 66.2356 140.018 66.2695 140.022 66.3148L140.188 67.8233C140.207 67.8573 140.267 67.9025 140.335 67.9025Z" fill="black"/>
<path opacity="0.7" d="M131.902 67.9025H132.249C132.317 67.9025 132.374 67.8648 132.366 67.8233L132.204 66.3148C132.204 66.2695 132.14 66.2356 132.068 66.2356H131.721C131.653 66.2356 131.601 66.2695 131.604 66.3148L131.767 67.8233C131.77 67.8573 131.831 67.9025 131.902 67.9025Z" fill="black"/>
<path d="M127.55 48.1296C125.978 48.5067 124.047 52.8211 124.047 52.8211L127.784 57.6107C127.784 57.6107 131.646 52.146 131.129 50.4791C130.594 48.7405 129.455 47.6657 127.55 48.1296Z" fill="black"/>
<path opacity="0.2" d="M127.55 48.1296C125.978 48.5067 124.047 52.8211 124.047 52.8211L127.784 57.6107C127.784 57.6107 131.646 52.146 131.129 50.4791C130.594 48.7405 129.455 47.6657 127.55 48.1296Z" fill="white"/>
</svg>
