<svg width="318" height="66" viewBox="0 0 318 66" fill="none" xmlns="http://www.w3.org/2000/svg">
<path d="M71.8246 64.1445V21.6175H85.9835V31.6541C87.4637 27.9869 89.4588 25.2847 91.9688 23.4833C94.4788 21.6175 97.568 20.7168 101.108 20.7168C101.751 20.7168 102.331 20.7168 102.91 20.7811C103.553 20.8455 104.133 20.9098 104.776 20.9741L103.296 34.6136C102.395 34.292 101.558 34.0989 100.657 33.9059C99.8205 33.7773 98.9839 33.7129 98.1472 33.7129C94.4788 33.7129 91.7114 34.8067 89.7163 37.0585C87.7211 39.3103 86.7558 42.4628 86.7558 46.5804V64.1445H71.8246Z" fill="black"/>
<path d="M142.683 42.8489C142.683 39.5677 141.782 36.9299 140.044 34.9997C138.242 33.0696 135.861 32.1046 132.772 32.1046C129.747 32.1046 127.301 33.0696 125.564 34.9354C123.826 36.8655 122.925 39.5034 122.925 42.8489C122.925 46.1301 123.826 48.768 125.564 50.6981C127.366 52.5639 129.747 53.5289 132.772 53.5289C135.861 53.5289 138.242 52.5639 140.044 50.6981C141.782 48.768 142.683 46.1301 142.683 42.8489ZM155.812 21.6176V64.1446H142.104V57.2605C140.109 60.1557 137.921 62.3432 135.475 63.6942C133.029 65.1097 130.133 65.753 126.786 65.753C121.123 65.753 116.618 63.6942 113.207 59.5767C109.796 55.4591 108.122 49.8617 108.122 42.9133C108.122 36.0291 109.86 30.4961 113.464 26.4429C117.004 22.3253 121.766 20.3308 127.752 20.3308C130.97 20.3308 133.737 20.9742 136.054 22.3253C138.371 23.6764 140.366 25.7995 141.975 28.6303V21.6176H155.812Z" fill="black"/>
<path d="M169.456 64.1442V32.2329H163.149V21.6172H169.456V9.00708H184.258V21.6172H190.63V32.2329H184.258V64.1442H169.456Z" fill="black"/>
<path d="M198.031 21.6177H213.027V64.1446H198.031V21.6177ZM197.259 8.3642C197.259 6.11239 198.031 4.18227 199.705 2.57384C201.314 0.965407 203.244 0.193359 205.497 0.193359C207.878 0.193359 209.809 0.965407 211.418 2.57384C213.027 4.11794 213.799 6.04805 213.799 8.3642C213.799 10.7447 212.963 12.6748 211.354 14.3476C209.745 15.956 207.814 16.7924 205.497 16.7924C203.244 16.7924 201.314 15.956 199.705 14.2832C198.096 12.6105 197.259 10.6803 197.259 8.3642Z" fill="black"/>
<path d="M237.29 64.1445L218.24 21.6174H234.201L241.409 40.404C241.538 40.597 241.602 40.8543 241.731 41.1117C242.632 43.6209 243.211 45.551 243.469 47.0307C243.662 45.6797 244.177 43.8782 245.078 41.5621C245.271 41.0474 245.464 40.6613 245.528 40.404L252.736 21.6174H268.375L249.068 64.1445H237.29Z" fill="black"/>
<path d="M302.357 37.4446C302.099 34.9997 301.198 33.0696 299.654 31.5899C298.045 30.1744 296.178 29.4024 293.861 29.4024C291.416 29.4024 289.485 30.1101 288.069 31.3969C286.589 32.7479 285.623 34.7424 285.173 37.4446H302.357ZM317.159 45.8728H284.851C284.851 49.154 285.688 51.6631 287.361 53.4646C289.035 55.266 291.351 56.1668 294.376 56.1668C296.629 56.1668 298.56 55.7164 300.104 54.88C301.713 53.9793 302.872 52.7569 303.708 51.0841L314.971 55.5877C313.62 58.8689 311.238 61.3781 307.827 63.1152C304.416 64.9167 300.169 65.753 295.213 65.753C287.812 65.753 281.891 63.6942 277.386 59.641C272.945 55.5234 270.692 50.119 270.692 43.3636C270.692 36.7369 272.945 31.2682 277.386 26.8932C281.891 22.5183 287.554 20.3308 294.376 20.3308C301.456 20.3308 306.991 22.5183 311.045 26.9576C315.1 31.3969 317.159 37.4446 317.159 45.1651V45.8728Z" fill="black"/>
<path d="M64.9378 27.3434H31.9218V40.2752H48.6551C48.1402 43.7494 46.4669 46.5803 43.6351 48.6391C40.8033 50.7622 37.2636 51.7916 32.9516 51.7916C27.9316 51.7916 24.0057 50.1188 21.1096 46.7089C18.2135 43.3634 16.7976 38.7311 16.7976 32.8764C16.7976 27.086 18.2135 22.5181 21.1096 19.1082C24.0057 15.7627 27.9316 14.0899 32.9516 14.0899C34.5605 14.0899 36.1051 14.3472 37.521 14.7333V0.193012C36.0408 0.0643374 34.5605 0 32.9516 0C28.3178 0 24.0057 0.772049 20.0155 2.31615C16.0253 3.86024 12.4856 6.11205 9.39635 9.13591C6.30714 12.1598 3.92587 15.634 2.38127 19.4942C0.772303 23.3545 0 27.6007 0 32.233C0 36.608 0.836661 40.8542 2.44562 44.8432C4.05459 48.8964 6.30714 52.3706 9.20327 55.3302C12.2925 58.4183 15.7678 60.6702 19.6294 62.2143C23.5552 63.694 27.996 64.4661 32.9516 64.4661C43.1202 64.4661 51.0363 61.5065 56.6355 55.6518C62.2347 49.7971 65.0021 41.562 65.0021 31.0106C65.0021 29.9812 65.0021 29.2735 65.0021 28.7588C64.9378 28.2441 64.9378 27.7938 64.9378 27.3434Z" fill="black"/>
<path d="M50.8431 0H41.4468V0.836384V14.2185H50.8431V18.9151V23.5474H65.002V14.2185V0H50.8431Z" fill="#2C6AE5"/>
</svg>
