<svg width="304" height="337" viewBox="0 0 304 337" fill="none" xmlns="http://www.w3.org/2000/svg">
<path d="M154.016 187.813V67.822H164.216" stroke="#263238" stroke-linecap="round" stroke-linejoin="round"/>
<path d="M154.016 207.437V203.056" stroke="#263238" stroke-linecap="round" stroke-linejoin="round"/>
<path d="M190.458 67.822H295.746V222.795H154.016" stroke="#263238" stroke-linecap="round" stroke-linejoin="round"/>
<path d="M177.55 67.8219H186.799" stroke="#263238" stroke-linecap="round" stroke-linejoin="round"/>
<path d="M290.414 73.1387H159.34V217.478H290.414V73.1387Z" stroke="#263238" stroke-linecap="round" stroke-linejoin="round"/>
<path d="M284.321 83.2705V139.406H165.441V134.287" stroke="#263238" stroke-linecap="round" stroke-linejoin="round"/>
<path d="M165.441 122.276V78.7142H284.321" stroke="#263238" stroke-linecap="round" stroke-linejoin="round"/>
<path d="M165.441 130.346V125.364" stroke="#263238" stroke-linecap="round" stroke-linejoin="round"/>
<path d="M264.248 145.308H290.414" stroke="#263238" stroke-linecap="round" stroke-linejoin="round"/>
<path d="M254.937 145.308H258.642" stroke="#263238" stroke-linecap="round" stroke-linejoin="round"/>
<path d="M159.34 145.308H250.518" stroke="#263238" stroke-linecap="round" stroke-linejoin="round"/>
<path d="M218.29 139.406V136.705H229.251V138.242H224.885V139.406" stroke="#263238" stroke-linecap="round" stroke-linejoin="round"/>
<path d="M159.568 193.677C159.568 193.677 161.386 195.054 162.664 203.383C162.664 203.383 164.863 190.087 167.532 189.882C170.202 189.676 169.639 198.53 169.639 198.53C169.639 198.53 170.088 194.164 172.18 194.369C174.272 194.575 172.18 203.383 172.18 203.383C172.18 203.383 174.682 196.537 177.063 196.628C179.444 196.72 175.496 209.088 175.496 209.088C175.496 209.088 181.581 204.676 184.061 206.806C186.541 208.936 182.692 214.412 182.692 214.412C182.692 214.412 191.432 212.518 192.786 217.645" stroke="#263238" stroke-linecap="round" stroke-linejoin="round"/>
<path d="M192.786 212.693C192.786 212.693 196.589 210.198 199.593 211.362C199.593 211.362 197.684 208.464 199.593 206.684C201.502 204.904 203.944 211.37 203.944 211.37C203.944 211.37 204.218 200.561 208.029 201.109C211.84 201.656 208.029 211.37 208.029 211.37C208.029 211.37 214.829 205.338 216.464 207.445C218.1 209.552 215.377 212.701 215.377 212.701C215.377 212.701 219.454 211.4 222.45 214.443C222.45 214.443 227.014 209.787 232.08 209.118C232.08 209.118 228.71 199.336 230.338 197.366C231.966 195.396 234.94 205.901 234.94 205.901C234.94 205.901 236.241 199.055 240.493 198.538C240.493 198.538 236.948 196.613 237.998 193.685C239.048 190.756 243.946 194.377 243.946 194.377C243.946 194.377 241.938 189.235 245.117 187.82C248.297 186.405 249.636 192.125 249.636 192.125C249.636 192.125 250.518 186.139 254.26 186.466C258.003 186.793 256.793 193.685 256.793 193.685C256.793 193.685 260.323 188.216 262.209 188.771C266.012 189.889 264.841 198.538 264.841 198.538C264.841 198.538 270.112 194.871 271.474 196.56C272.942 198.378 265.989 203.063 265.989 203.063C265.989 203.063 271.223 203.649 274.478 206.692" stroke="#263238" stroke-linecap="round" stroke-linejoin="round"/>
<path d="M290.414 195.655C290.414 195.655 289.813 190.163 284.328 189.882C278.844 189.6 285.85 201.915 285.85 201.915C285.85 201.915 281.286 198.173 279.689 199.321C278.091 200.47 284.336 206.829 284.336 206.829C284.336 206.829 281.294 204.045 278.152 204.912C275.011 205.779 279.932 214.61 279.932 214.61C275.224 213.659 270.337 214.229 265.974 216.238" stroke="#263238" stroke-linecap="round" stroke-linejoin="round"/>
<path d="M141.929 172.128L118.144 153.842V67.335H10.4224V221.684H118.144V162.499L141.929 172.128Z" fill="white" stroke="#263238" stroke-linecap="round" stroke-linejoin="round"/>
<path d="M112.531 94.0792H16.0435V190.566H112.531V94.0792Z" fill="white"/>
<path opacity="0.4" d="M112.531 136.013V190.566H16.0435V135.306C26.6924 134.401 41.8595 133.244 57.118 133.153C90.3427 132.963 105.168 135.222 112.531 136.013Z" fill="black"/>
<path d="M100.17 134.203C104.308 134.682 108.431 135.275 112.531 136.013" stroke="#263238" stroke-linecap="round" stroke-linejoin="round"/>
<path d="M65.3633 132.621C75.7728 132.458 86.1834 132.859 96.5495 133.823" stroke="#263238" stroke-linecap="round" stroke-linejoin="round"/>
<path d="M35.6147 133.785C44.3088 133.275 53.0182 132.849 61.7275 132.682" stroke="#263238" stroke-linecap="round" stroke-linejoin="round"/>
<path d="M26.6924 134.363C27.9195 134.271 29.1442 134.188 30.3663 134.112" stroke="#263238" stroke-linecap="round" stroke-linejoin="round"/>
<path d="M16.0435 135.306C18.584 135.017 21.1245 134.796 23.6498 134.545" stroke="#263238" stroke-linecap="round" stroke-linejoin="round"/>
<path opacity="0.4" d="M27.4835 98.2627V118.663H66.4739V95.9808H64.2452V116.275H47.4351V95.9808H45.252V116.275H29.4688V98.6582L27.4835 98.2627Z" fill="black"/>
<path d="M112.531 94.0792H16.0435V190.566H112.531V94.0792Z" stroke="#263238" stroke-linecap="round" stroke-linejoin="round"/>
<path d="M60.9287 76.3943H38.2085C37.9059 76.3943 37.6157 76.5145 37.4017 76.7285C37.1877 76.9424 37.0675 77.2326 37.0675 77.5352C37.0675 77.8378 37.1877 78.128 37.4017 78.342C37.6157 78.556 37.9059 78.6762 38.2085 78.6762H60.9287C61.2313 78.6762 61.5216 78.556 61.7355 78.342C61.9495 78.128 62.0697 77.8378 62.0697 77.5352C62.0697 77.2326 61.9495 76.9424 61.7355 76.7285C61.5216 76.5145 61.2313 76.3943 60.9287 76.3943Z" fill="#263238"/>
<path d="M49.002 81.1103H37.6456C37.4964 81.1103 37.3532 81.1696 37.2476 81.2751C37.1421 81.3807 37.0828 81.5239 37.0828 81.6732C37.0828 81.8225 37.1421 81.9656 37.2476 82.0712C37.3532 82.1767 37.4964 82.236 37.6456 82.236H49.002C49.1513 82.236 49.2944 82.1767 49.4 82.0712C49.5055 81.9656 49.5648 81.8225 49.5648 81.6732C49.5648 81.5239 49.5055 81.3807 49.4 81.2751C49.2944 81.1696 49.1513 81.1103 49.002 81.1103Z" fill="#263238"/>
<path d="M55.3989 150.922C38.3834 150.922 23.5966 154.725 16.0435 160.27V177.141C23.5966 182.709 38.3834 186.489 55.3989 186.489C80.0893 186.489 100.102 178.525 100.102 168.698C100.102 158.87 80.0893 150.922 55.3989 150.922Z" fill="white" stroke="#263238" stroke-linecap="round" stroke-linejoin="round"/>
<path opacity="0.4" d="M29.0504 157.364C23.7259 160.361 19.9227 159.814 22.41 160.513C24.8973 161.213 21.7026 164.872 19.2229 166.751C16.7433 168.629 21.1702 171.109 26.3045 171.109C31.4388 171.109 34.8236 172.372 34.0326 174.152C33.7801 174.658 33.6356 175.21 33.6083 175.775C33.5809 176.34 33.6713 176.904 33.8738 177.432C34.0762 177.96 34.3862 178.44 34.7842 178.842C35.1821 179.243 35.6592 179.558 36.1852 179.765C38.8626 180.823 34.6183 182.633 37.5391 183.142C40.46 183.652 38.2998 180.648 41.8748 180.1C45.4498 179.552 45.5867 181.69 46.4386 178.776C47.2905 175.863 55.9314 175.148 57.3766 176.563C58.8218 177.978 54.2808 180.1 56.2889 180.457C58.297 180.815 60.7614 181.933 60.769 180.275C60.7766 178.617 59.8867 175.483 64.4809 175.224C69.0752 174.966 75.3353 177.613 75.5711 175.224C75.8069 172.836 77.4194 170.721 80.1729 172.311C82.9265 173.901 86.4254 174.791 86.7829 172.311C86.9447 171.163 87.4554 170.093 88.246 169.245C89.0365 168.398 90.0685 167.814 91.2022 167.572C93.3244 167.177 89.3919 166.363 87.9086 162.879C86.4254 159.395 90.3199 159.007 84.1054 157.258C77.891 155.508 72.6274 158.657 66.6868 157.167C60.7462 155.676 36.2156 153.386 29.0504 157.364Z" fill="black"/>
<path d="M55.399 178.837C74.3618 178.837 89.7342 173.439 89.7342 166.781C89.7342 160.123 74.3618 154.725 55.399 154.725C36.4361 154.725 21.0637 160.123 21.0637 166.781C21.0637 173.439 36.4361 178.837 55.399 178.837Z" stroke="#263238" stroke-linecap="round" stroke-linejoin="round"/>
<path d="M24.6768 172.684C24.6768 172.684 25.4374 164.233 26.4643 161.715C27.6509 158.711 33.5002 151.5 33.5002 151.5C33.5002 151.5 57.3234 148.982 77.6172 151.5C77.6172 151.5 83.2764 158.239 84.5162 161.031C85.5431 163.313 86.7981 171.147 86.7981 171.147C86.7981 171.147 58.2209 177.81 24.6768 172.684Z" fill="white" stroke="#263238" stroke-linecap="round" stroke-linejoin="round"/>
<path opacity="0.4" d="M27.8106 161.997C28.4267 163.815 37.8966 164.674 44.5446 164.887C51.1926 165.1 56.9278 166.287 62.1458 165.861C67.3638 165.435 66.9302 164.781 72.2319 164.781C77.5335 164.781 83.1166 162.955 83.824 161.997C84.5249 164.579 85.086 167.197 85.505 169.839C85.505 169.839 64.0094 176.183 26.3197 171.664C26.3197 171.664 26.8521 166.72 27.0271 164.781C27.0537 163.802 27.3229 162.845 27.8106 161.997Z" fill="black"/>
<path opacity="0.4" d="M37.1436 153.074C37.4664 152.946 37.7966 152.836 38.1324 152.747C37.832 152.542 37.4653 152.458 37.1056 152.511H41.2587C41.6759 152.477 42.0949 152.551 42.4757 152.724C42.7593 152.985 42.9334 153.343 42.9631 153.727C42.9927 154.111 42.8756 154.492 42.6354 154.793C42.4495 154.933 42.2356 155.03 42.0084 155.079C41.7812 155.127 41.5462 155.126 41.3195 155.075C39.2126 154.907 37.1056 154.656 35.0138 154.314C34.8617 154.314 34.6944 154.246 34.6335 154.109C34.4662 153.736 35.0138 153.074 35.3941 153.006C35.919 152.915 36.4134 153.173 36.9154 153.135C36.9934 153.123 37.0698 153.102 37.1436 153.074Z" fill="black"/>
<path opacity="0.4" d="M33.1883 157.486C33.0094 157.609 32.8568 157.767 32.7396 157.95C32.1453 158.695 31.6636 159.522 31.3096 160.407C31.276 160.492 31.276 160.587 31.3096 160.673C31.3658 160.747 31.4468 160.798 31.5377 160.818C32.2132 160.955 32.905 160.993 33.5915 160.932C35.6868 160.934 37.78 161.066 39.8591 161.327C40.0872 161.374 40.3244 161.33 40.5209 161.206C40.7567 161 40.7034 160.627 40.6806 160.316C40.6604 159.905 40.7387 159.496 40.9088 159.121C41.0488 158.91 41.1205 158.66 41.1142 158.406C41.0381 157.965 40.4676 157.844 40.0189 157.821L36.2157 157.615C35.4018 157.562 33.9033 157.075 33.1883 157.486Z" fill="black"/>
<path opacity="0.4" d="M46.1572 153.477C46.7542 153.037 47.4633 152.773 48.2033 152.717C50.027 152.355 51.8978 152.296 53.7407 152.542C53.543 153.401 54.0146 154.451 53.4289 155.105C53.0594 155.429 52.581 155.6 52.0902 155.584C50.482 155.713 48.8646 155.661 47.2677 155.432C46.895 155.379 46.0127 155.432 45.7464 155.09C45.4802 154.748 45.8149 153.789 46.1572 153.477Z" fill="black"/>
<path opacity="0.4" d="M44.286 159.722C44.6816 158.962 45.6856 158.87 46.5679 158.87C49.1617 158.87 51.7555 158.969 54.3493 159.083C54.4607 159.073 54.573 159.088 54.6782 159.126C54.7833 159.164 54.8788 159.225 54.9578 159.304C55.0179 159.417 55.0517 159.541 55.0567 159.669C55.0567 160.065 55.1023 160.43 55.0567 160.856C55.0823 161.074 55.0541 161.296 54.9745 161.502C54.895 161.707 54.7665 161.89 54.6003 162.035C54.4506 162.11 54.288 162.156 54.1211 162.172C51.9563 162.383 49.7719 162.27 47.6404 161.837C46.7049 161.692 45.7388 161.631 44.8185 161.495C44.0274 161.365 43.9437 160.354 44.286 159.722Z" fill="black"/>
<path opacity="0.4" d="M56.8821 153.843C56.9506 153.303 57.0875 152.671 57.5819 152.458C57.8071 152.384 58.0457 152.358 58.2817 152.382L62.8455 152.588C63.6108 152.607 64.3735 152.683 65.1275 152.816C65.5022 152.871 65.8561 153.023 66.1543 153.257C66.3707 153.515 66.5338 153.813 66.6343 154.134C66.7349 154.455 66.7708 154.793 66.74 155.128C66.74 155.432 60.807 155.448 60.2518 155.425C59.6965 155.402 59.2021 155.318 58.7305 155.333C58.3958 155.333 58.1068 155.493 57.7949 155.524C56.8213 155.615 56.7985 154.55 56.8821 153.843Z" fill="black"/>
<path opacity="0.4" d="M69.3414 161.533C69.3414 161.259 69.2578 160.985 69.2197 160.703C69.1949 160.191 69.0115 159.7 68.6949 159.296C68.2532 158.93 67.6941 158.735 67.1204 158.749C64.8595 158.566 62.5841 158.764 60.3887 159.334C59.8757 159.523 59.3213 159.571 58.7838 159.471C58.6007 159.416 58.4355 159.314 58.3046 159.175C58.3806 160.148 58.4491 161.122 58.5175 162.095C59.088 162.164 59.6661 162.187 60.2366 162.202L64.9373 162.369C65.3858 162.392 65.8352 162.392 66.2837 162.369C66.9834 162.331 67.6832 162.194 68.383 162.21C68.7557 162.21 69.2502 162.21 69.349 161.829C69.3622 161.731 69.3596 161.63 69.3414 161.533Z" fill="black"/>
<path opacity="0.4" d="M74.3085 153.272C74.4454 153.272 74.6279 153.272 74.6355 153.105C74.6506 153.063 74.6506 153.017 74.6355 152.975C74.415 152.58 73.8749 152.519 73.4261 152.496H72.3612C73.2549 152.314 74.1646 152.222 75.0767 152.222C75.1698 152.212 75.2637 152.233 75.3429 152.283C75.4094 152.337 75.4594 152.408 75.4874 152.489L76.3774 154.474C76.3939 154.514 76.4024 154.556 76.4024 154.599C76.4024 154.642 76.3939 154.685 76.3774 154.725C76.3774 154.824 76.2253 154.854 76.1264 154.877C74.38 155.166 72.6084 155.273 70.8399 155.196C70.5467 155.243 70.2467 155.215 69.9666 155.117C69.6865 155.019 69.4351 154.853 69.235 154.634C69.1545 154.537 69.0959 154.425 69.0632 154.304C69.0304 154.183 69.0243 154.056 69.0453 153.932C69.0663 153.809 69.1138 153.691 69.1846 153.588C69.2555 153.484 69.3479 153.397 69.4556 153.333C70.0489 153.059 71.1366 153.28 71.7831 153.287L74.3085 153.272Z" fill="black"/>
<path opacity="0.4" d="M76.8413 157.615L73.3728 158.171C73.3479 158.247 73.351 158.329 73.3817 158.403C73.4124 158.477 73.4686 158.538 73.5402 158.574C73.689 158.646 73.8544 158.678 74.0194 158.665L78.7657 158.749C78.8535 158.745 78.9404 158.766 79.0168 158.81C79.0726 158.857 79.1125 158.921 79.1309 158.992C79.3514 159.525 79.5416 160.072 79.7089 160.62C79.7704 160.777 79.7914 160.947 79.7698 161.114C79.6785 161.495 79.2221 161.632 78.8342 161.692C77.0403 161.91 75.2318 161.984 73.4261 161.913C73.1107 161.941 72.795 161.863 72.5285 161.692C72.3832 161.55 72.2737 161.376 72.209 161.183C71.9124 160.468 70.954 158.14 72.0493 157.859C73.6329 157.603 75.2399 157.521 76.8413 157.615Z" fill="black"/>
<path d="M41.0457 161.883C37.6228 161.67 34.1999 161.411 30.7847 161.053C31.3081 159.329 32.1349 157.711 33.2263 156.277" stroke="#263238" stroke-linecap="round" stroke-linejoin="round"/>
<path d="M54.8512 162.476C51.223 162.4 47.6023 162.24 43.9817 162.05L44.7423 157.882" stroke="#263238" stroke-linecap="round" stroke-linejoin="round"/>
<path d="M68.7633 162.255C65.3404 162.453 61.9176 162.529 58.4871 162.521L58.0916 158.254" stroke="#263238" stroke-linecap="round" stroke-linejoin="round"/>
<path d="M78.7961 158.475L80.2109 161.053C77.6095 161.454 75.0006 161.768 72.384 161.997L71.0072 157.364" stroke="#263238" stroke-linecap="round" stroke-linejoin="round"/>
<path d="M53.8472 153.881V155.531H45.5334L45.8225 153.379" stroke="#263238" stroke-linecap="round" stroke-linejoin="round"/>
<path d="M43.1679 153.379L42.7571 155.105L34.4434 154.459L35.3866 152.953" stroke="#263238" stroke-linecap="round" stroke-linejoin="round"/>
<path d="M34.0326 157.395L41.0457 157.882L40.6349 159.692" stroke="#263238" stroke-linecap="round" stroke-linejoin="round"/>
<path d="M46.005 159.076H54.8512L55.1479 160.764" stroke="#263238" stroke-linecap="round" stroke-linejoin="round"/>
<path d="M59.689 159.076L68.4135 158.543L69.3567 160.392" stroke="#263238" stroke-linecap="round" stroke-linejoin="round"/>
<path d="M57.0647 153.379V155.531L67.1508 155.105L66.4434 152.953C66.4434 152.953 63.7887 152.017 58.4262 152.519" stroke="#263238" stroke-linecap="round" stroke-linejoin="round"/>
<path d="M69.5924 155.105L76.674 154.816L75.9057 153.379" stroke="#263238" stroke-linecap="round" stroke-linejoin="round"/>
<path d="M69.5924 153.379H74.0421" stroke="#263238" stroke-linecap="round" stroke-linejoin="round"/>
<path d="M47.6556 152.953C49.7011 152.597 51.7714 152.404 53.8472 152.375" stroke="#263238" stroke-linecap="round" stroke-linejoin="round"/>
<path d="M54.8513 145.301C54.8513 145.301 55.612 141.497 54.4406 139.976C54.4406 139.976 52.1587 143.779 52.0446 145.301C52.0446 145.301 51.3828 141.764 49.4128 141.148C49.4128 141.148 48.2414 141.619 48.3326 142.532C48.8837 143.631 49.3368 144.776 49.6866 145.955C49.095 145.93 48.5047 146.027 47.9524 146.24C47.4001 146.453 46.8977 146.778 46.4767 147.195C46.7706 147.6 47.1557 147.931 47.6009 148.161C48.0461 148.391 48.539 148.513 49.04 148.518C49.04 148.518 47.0091 149.895 46.4767 151.15C46.4767 151.15 49.7474 152.496 52.5618 150.952C55.3762 149.408 54.8513 145.301 54.8513 145.301Z" fill="#263238"/>
<path d="M53.079 145.247C53.3712 144.64 53.7886 144.102 54.3039 143.668C54.8191 143.234 55.4205 142.914 56.0683 142.73C60.1377 141.611 62.0089 145.445 62.8075 148.754C63.4465 151.416 64.1843 154.915 62.7619 157.448C60.4115 161.631 54.0526 159.053 50.934 157.311C48.8879 156.17 47.3818 154.558 47.7773 151.987C47.8599 151.379 48.0849 150.8 48.4339 150.297C48.7828 149.793 49.246 149.379 49.7854 149.089C50.4372 148.858 51.064 148.562 51.6566 148.206C52.5617 147.476 52.5922 146.229 53.079 145.247Z" fill="black" stroke="#263238" stroke-linecap="round" stroke-linejoin="round"/>
<path opacity="0.6" d="M55.8933 144.951C57.5591 145.065 58.3882 146.472 59.3314 149.431C60.2746 152.39 61.4004 153.31 61.4004 155.174C61.4004 157.037 60.8679 157.364 60.8679 157.364C60.8679 157.364 62.9901 157.167 62.1306 151.637C61.2711 146.107 60.2822 144.213 58.3274 143.855C57.8348 143.711 57.3087 143.731 56.8285 143.912C56.3482 144.093 55.9399 144.426 55.6652 144.859" fill="white"/>
<path d="M49.8081 152.846C49.8081 152.846 50.9567 153.264 50.1885 153.683C49.4202 154.101 49.8081 152.846 49.8081 152.846Z" fill="#263238"/>
<path d="M52.5009 150.169C52.5009 150.169 53.5049 150.747 53.2082 151.119C52.9116 151.492 52.5009 150.169 52.5009 150.169Z" fill="#263238"/>
<path d="M55.1479 147.476C55.1479 147.476 56.5932 147.598 56.2357 148.069C55.8782 148.541 55.1479 147.476 55.1479 147.476Z" fill="#263238"/>
<path d="M57.4146 144.433C57.4146 144.433 58.3654 144.053 58.3045 144.608C58.2437 145.164 57.4146 144.433 57.4146 144.433Z" fill="#263238"/>
<path d="M58.9891 148.754C58.9891 148.754 60.2442 149.431 59.6889 149.788C59.1337 150.146 58.9891 148.754 58.9891 148.754Z" fill="#263238"/>
<path d="M56.5322 152.192C56.5322 152.192 57.4754 152.527 57.0875 152.953C56.6996 153.378 56.5322 152.192 56.5322 152.192Z" fill="#263238"/>
<path d="M53.3452 154.246C53.3452 154.246 54.3797 154.596 54.1059 154.946C53.832 155.295 53.3452 154.246 53.3452 154.246Z" fill="#263238"/>
<path d="M55.3989 157.014C55.3989 157.014 56.5247 156.779 56.2889 157.326C56.0531 157.874 55.3989 157.014 55.3989 157.014Z" fill="#263238"/>
<path d="M58.3046 155.63C58.3046 155.63 59.2173 155.98 58.8598 156.277C58.5023 156.573 58.3046 155.63 58.3046 155.63Z" fill="#263238"/>
<path d="M59.689 153.089C59.689 153.089 60.6626 153.508 60.3964 153.797C60.1301 154.086 59.689 153.089 59.689 153.089Z" fill="#263238"/>
<path d="M61.8035 151.104C61.8035 151.104 62.4272 151.507 62.1305 151.667C61.8339 151.827 61.8035 151.104 61.8035 151.104Z" fill="#263238"/>
<path d="M60.807 156.33C60.807 156.33 61.6361 156.665 61.4231 156.961C61.2101 157.258 60.807 156.33 60.807 156.33Z" fill="#263238"/>
<path d="M62.2142 154.459C62.2142 154.459 62.4348 155.037 62.3359 155.174C62.237 155.311 62.2142 154.459 62.2142 154.459Z" fill="#263238"/>
<path d="M58.624 157.882C58.624 157.882 59.301 157.775 59.2173 158.072C59.1337 158.368 58.624 157.882 58.624 157.882Z" fill="#263238"/>
<path d="M51.3143 155.98C51.3143 155.98 52.1358 156.33 51.8696 156.482C51.6034 156.634 51.3143 155.98 51.3143 155.98Z" fill="#263238"/>
<path d="M61.1342 146.632C61.1342 146.632 61.8948 147.096 61.6362 147.484C61.3776 147.872 61.1342 146.632 61.1342 146.632Z" fill="#263238"/>
<path d="M112.53 148.914V142.623C108.469 141.011 101.425 139.946 93.4385 139.946C80.8727 139.946 70.6877 142.577 70.6877 145.833C70.6877 149.089 80.8727 151.713 93.4385 151.713C101.44 151.713 108.476 150.64 112.53 149.028V148.914Z" fill="white" stroke="#263238" stroke-linecap="round" stroke-linejoin="round"/>
<path opacity="0.4" d="M108.788 145.08C108.788 146.799 101.775 148.199 93.119 148.199C84.4629 148.199 77.4498 146.799 77.4498 145.08C77.4498 143.361 84.4705 141.969 93.119 141.969C101.767 141.969 108.788 143.361 108.788 145.08Z" fill="black"/>
<path d="M93.4385 149.18C103.092 149.18 110.918 147.395 110.918 145.194C110.918 142.993 103.092 141.208 93.4385 141.208C83.7848 141.208 75.959 142.993 75.959 145.194C75.959 147.395 83.7848 149.18 93.4385 149.18Z" stroke="#263238" stroke-linecap="round" stroke-linejoin="round"/>
<path d="M102.574 144.548C102.574 145.978 98.9683 147.134 93.446 147.134C87.9238 147.134 84.3184 145.978 84.3184 144.548C84.3184 143.118 87.9314 141.969 93.446 141.969C98.9607 141.969 102.574 143.125 102.574 144.548Z" stroke="#263238" stroke-linecap="round" stroke-linejoin="round"/>
<path d="M112.53 132.347V129.609C110.935 129.357 109.315 129.311 107.708 129.472L106.506 132.111C106.506 132.111 111.382 130.62 112.53 132.347Z" fill="white"/>
<path opacity="0.4" d="M112.53 132.347V129.609C110.935 129.357 109.315 129.311 107.708 129.472L106.506 132.111C106.506 132.111 111.382 130.62 112.53 132.347Z" fill="black"/>
<path d="M112.53 132.347V129.609C110.935 129.357 109.315 129.311 107.708 129.472L106.506 132.111C106.506 132.111 111.382 130.62 112.53 132.347Z" stroke="#263238" stroke-linecap="round" stroke-linejoin="round"/>
<path d="M112.53 134.431C110.325 141.49 102.969 140.433 102.969 140.433V142.463C104.725 142.683 106.508 142.482 108.17 141.876C109.833 141.27 111.327 140.277 112.53 138.98V134.431Z" fill="white"/>
<path opacity="0.4" d="M112.53 134.431C110.325 141.49 102.969 140.433 102.969 140.433V142.463C104.725 142.683 106.508 142.482 108.17 141.876C109.833 141.27 111.327 140.277 112.53 138.98V134.431Z" fill="black"/>
<path d="M112.53 134.431C110.325 141.49 102.969 140.433 102.969 140.433V142.463C104.725 142.683 106.508 142.482 108.17 141.876C109.833 141.27 111.327 140.277 112.53 138.98V134.431Z" stroke="#263238" stroke-linecap="round" stroke-linejoin="round"/>
<path d="M77.4802 127.699C77.4802 127.699 78.3626 145.833 93.4536 145.833C108.545 145.833 109.427 127.699 109.427 127.699H77.4802Z" fill="white"/>
<path opacity="0.4" d="M109.397 127.699C109.397 127.699 108.514 145.833 93.4233 145.833C90.0097 145.934 86.6779 144.778 84.0598 142.585L84.2804 142.532C87.6587 144.203 91.5494 144.513 95.1499 143.399C100.474 141.665 106.118 129.822 107.084 127.699H109.397Z" fill="black"/>
<path d="M77.4802 127.699C77.4802 127.699 78.3626 145.833 93.4536 145.833C108.545 145.833 109.427 127.699 109.427 127.699H77.4802Z" stroke="#263238" stroke-linecap="round" stroke-linejoin="round"/>
<path d="M109.397 127.699C109.397 128.46 108.636 129.183 107.229 129.791C104.605 130.924 99.7289 131.685 93.4384 131.685C87.148 131.685 82.2723 130.924 79.6481 129.791C78.2409 129.183 77.4802 128.46 77.4802 127.699C77.4802 125.494 83.7859 123.714 93.4536 123.714C103.121 123.714 109.397 125.494 109.397 127.699Z" fill="white" stroke="#263238" stroke-linecap="round" stroke-linejoin="round"/>
<path d="M107.267 129.586C107.274 129.654 107.274 129.723 107.267 129.791C104.643 130.925 99.767 131.685 93.4765 131.685C87.186 131.685 82.3104 130.925 79.6861 129.791C79.6787 129.723 79.6787 129.654 79.6861 129.586C79.6861 127.677 85.1399 126.133 93.4993 126.133C101.859 126.133 107.267 127.699 107.267 129.586Z" fill="black" stroke="#263238" stroke-linecap="round" stroke-linejoin="round"/>
<path d="M93.4385 128.719C93.4385 128.719 95.766 127.547 96.9298 128.719C98.0936 129.89 95.2792 130.894 92.9441 130.856C90.6089 130.818 88.4715 129.335 89.3006 128.376C90.1297 127.418 92.6094 128.11 93.4385 128.719Z" fill="white"/>
<path d="M93.621 127.699C93.621 127.699 96.7472 126.695 98.2533 127.935C99.7593 129.175 97.0058 130.902 97.0058 130.902C97.0058 130.902 100.703 129.533 99.2877 127.935C97.8729 126.338 93.9252 127.022 93.621 127.699Z" fill="white"/>
<path d="M99.6605 127.433C99.6605 127.433 103.099 128.392 99.6605 130.263C99.6605 130.263 102.802 129.654 102.391 128.338C101.98 127.022 99.6605 127.433 99.6605 127.433Z" fill="white"/>
<path d="M89.4071 130.263C89.4071 130.263 87.5663 129.502 87.6804 128.528C87.7945 127.555 90.6165 127.372 90.6165 127.372C90.6165 127.372 87.1936 126.383 86.6992 128.186C86.2048 129.989 89.4071 130.263 89.4071 130.263Z" fill="white"/>
<path d="M86.8514 130.263C86.8514 130.263 84.4554 129.654 84.2956 129.053C84.1359 128.452 85.5735 127.699 85.5735 127.699C85.5735 127.699 83.2079 127.867 83.0558 128.894C82.9037 129.921 86.8514 130.263 86.8514 130.263Z" fill="white"/>
<path d="M92.9137 103.519C87.4523 108.128 96.8614 115.552 92.9137 118.663C92.9137 118.663 96.7777 117.142 94.3741 112.045C91.9705 106.949 92.9137 103.519 92.9137 103.519Z" fill="black"/>
<path d="M30.6393 84.2752C32.3883 80.0525 30.3831 75.2115 26.1604 73.4624C21.9378 71.7133 17.0967 73.7185 15.3477 77.9412C13.5986 82.1638 15.6038 87.0049 19.8265 88.754C24.0491 90.503 28.8902 88.4978 30.6393 84.2752Z" fill="black" stroke="#263238" stroke-linecap="round" stroke-linejoin="round"/>
<path d="M26.3806 86.2751C25.8786 86.2751 24.4181 85.1721 24.9202 84.267C25.4222 83.3618 26.3806 81.8634 26.3806 81.8634C26.8073 81.0221 27.046 80.0981 27.0804 79.1555C27.2858 77.7483 26.4795 75.3523 22.9957 75.3523C19.512 75.3523 18.7057 77.7559 18.9035 79.1555C18.938 80.099 19.1795 81.0235 19.6109 81.8634C19.6109 81.8634 20.5693 83.3846 21.0713 84.267C21.5734 85.1493 20.1053 86.2751 19.6109 86.2751C18.7952 86.4532 17.998 86.7079 17.2301 87.0357C17.2301 87.0357 20.5617 89.3785 22.9957 89.3785C25.4298 89.3785 28.7538 87.0357 28.7538 87.0357C27.9885 86.7077 27.1939 86.453 26.3806 86.2751Z" fill="#263238"/>
<path d="M23.0642 195.739C22.3796 194.59 21.0333 194.978 20.3259 195.883C19.6489 194.986 18.3178 194.529 17.6028 195.663C16.3934 197.564 18.8046 199.374 19.9456 200.082L20.265 200.287L20.5997 200.089C21.7559 199.413 24.2128 197.678 23.0642 195.739Z" fill="black" stroke="#263238" stroke-linecap="round" stroke-linejoin="round"/>
<path d="M111.466 200.105L109.001 198.895L106.529 200.105V195.168H111.466V200.105Z" fill="black" stroke="#263238" stroke-linecap="round" stroke-linejoin="round"/>
<path d="M28.6017 194.932H32.4049C32.4944 194.932 32.5831 194.95 32.6657 194.984C32.7483 195.019 32.8233 195.07 32.8863 195.133C32.9492 195.197 32.9989 195.272 33.0325 195.355C33.0661 195.438 33.0828 195.527 33.0818 195.617V198.735C33.0818 198.824 33.0643 198.912 33.0303 198.995C32.9963 199.077 32.9464 199.151 32.8836 199.214C32.8207 199.277 32.7461 199.327 32.6639 199.361C32.5818 199.395 32.4938 199.412 32.4049 199.412H30.9597L30.5185 200.34L30.0773 199.412H28.6321C28.5432 199.412 28.4552 199.395 28.373 199.361C28.2909 199.327 28.2163 199.277 28.1534 199.214C28.0905 199.151 28.0407 199.077 28.0067 198.995C27.9726 198.912 27.9551 198.824 27.9551 198.735V195.617C27.953 195.441 28.0192 195.271 28.1399 195.144C28.2605 195.016 28.4261 194.94 28.6017 194.932Z" fill="black" stroke="#263238" stroke-linecap="round" stroke-linejoin="round"/>
<path d="M35.2952 203.573H17.4278C17.2069 203.594 17.0017 203.696 16.8522 203.86C16.7028 204.024 16.62 204.237 16.62 204.459C16.62 204.681 16.7028 204.895 16.8522 205.059C17.0017 205.223 17.2069 205.325 17.4278 205.345H35.2952C35.4184 205.357 35.5427 205.342 35.6601 205.303C35.7775 205.264 35.8854 205.2 35.9769 205.117C36.0684 205.034 36.1415 204.932 36.1915 204.819C36.2415 204.706 36.2673 204.583 36.2673 204.459C36.2673 204.335 36.2415 204.213 36.1915 204.1C36.1415 203.987 36.0684 203.885 35.9769 203.802C35.8854 203.718 35.7775 203.655 35.6601 203.615C35.5427 203.576 35.4184 203.562 35.2952 203.573Z" fill="#263238"/>
<path d="M106.81 208.137H17.1083C16.959 208.137 16.8158 208.196 16.7103 208.302C16.6047 208.407 16.5454 208.551 16.5454 208.7C16.5454 208.849 16.6047 208.992 16.7103 209.098C16.8158 209.203 16.959 209.263 17.1083 209.263H106.81C106.96 209.263 107.103 209.203 107.208 209.098C107.314 208.992 107.373 208.849 107.373 208.7C107.373 208.551 107.314 208.407 107.208 208.302C107.103 208.196 106.96 208.137 106.81 208.137Z" fill="#263238"/>
<path d="M91.5976 211.94H17.1083C16.959 211.94 16.8158 211.999 16.7103 212.105C16.6047 212.211 16.5454 212.354 16.5454 212.503C16.5454 212.652 16.6047 212.795 16.7103 212.901C16.8158 213.007 16.959 213.066 17.1083 213.066H91.5976C91.7469 213.066 91.8901 213.007 91.9957 212.901C92.1012 212.795 92.1605 212.652 92.1605 212.503C92.1605 212.354 92.1012 212.211 91.9957 212.105C91.8901 211.999 91.7469 211.94 91.5976 211.94Z" fill="#263238"/>
<path d="M191.295 235.657C186.909 241.394 182.182 246.863 177.139 252.033C167.517 261.853 154.974 271.916 146.158 268.98C129.911 263.565 131.113 251.828 131.113 237.794C131.113 223.76 135.525 220.954 135.525 220.954L136.232 216.922C144.204 215.135 149.886 217.865 149.886 217.865L150.372 221.76C153.985 223.076 156.092 235.679 156.092 235.679C156.092 235.679 158.009 232.051 160.93 227.115C166.886 217.036 177.002 201.466 183.437 199.975L189.112 225.753L191.295 235.657Z" fill="black"/>
<path opacity="0.2" d="M191.295 235.657C186.909 241.394 182.182 246.863 177.139 252.033C175.618 238.73 186.427 220.931 186.427 220.931L189.112 225.73L191.295 235.657Z" fill="black"/>
<path opacity="0.2" d="M160.321 245.309C160.321 245.309 158.298 237.756 156.092 235.657C156.092 235.657 158.009 232.028 160.93 227.092C162.436 232.896 163.463 240.555 160.321 245.309Z" fill="black"/>
<path d="M191.295 235.657C186.909 241.394 182.182 246.863 177.139 252.033C167.517 261.853 154.974 271.916 146.158 268.98C129.911 263.565 131.113 251.828 131.113 237.794C131.113 223.76 135.525 220.954 135.525 220.954L136.232 216.922C144.204 215.135 149.886 217.865 149.886 217.865L150.372 221.76C153.985 223.076 156.092 235.679 156.092 235.679C156.092 235.679 158.009 232.051 160.93 227.115C166.886 217.036 177.002 201.466 183.437 199.975L189.112 225.753L191.295 235.657Z" stroke="#263238" stroke-linecap="round" stroke-linejoin="round"/>
<path d="M147.497 188.817L144.782 191.905C135.175 202.812 138.339 211.803 138.339 211.803L137.837 217.721C141.205 219.297 145.037 219.568 148.592 218.482L148.805 211.164C148.805 211.164 160.451 206.083 147.497 188.817Z" fill="white" stroke="#263238" stroke-linecap="round" stroke-linejoin="round"/>
<path d="M153.073 206.357L161.904 209.293C162.839 209.529 164.687 207.97 164.604 207.011L161.98 176.137C161.928 175.529 161.689 174.952 161.295 174.486C160.901 174.02 160.372 173.688 159.781 173.535L150 171.413C149.064 171.17 146.714 172.288 146.79 173.246L150.874 203.763C150.927 204.37 151.167 204.945 151.561 205.41C151.955 205.874 152.483 206.205 153.073 206.357Z" fill="black"/>
<path opacity="0.3" d="M153.073 206.357L161.904 209.293C162.839 209.529 164.687 207.97 164.604 207.011L161.98 176.137C161.928 175.529 161.689 174.952 161.295 174.486C160.901 174.02 160.372 173.688 159.781 173.535L150 171.413C149.064 171.17 146.714 172.288 146.79 173.246L150.874 203.763C150.927 204.37 151.167 204.945 151.561 205.41C151.955 205.874 152.483 206.205 153.073 206.357Z" fill="black" fill-opacity="0.7"/>
<path d="M153.073 206.357L161.904 209.293C162.839 209.529 164.687 207.969 164.604 207.011L161.98 176.137C161.928 175.529 161.689 174.952 161.295 174.486C160.901 174.02 160.372 173.688 159.781 173.535L150 171.413C149.064 171.17 146.714 172.288 146.79 173.246L150.874 203.763C150.927 204.37 151.167 204.945 151.561 205.41C151.955 205.874 152.483 206.205 153.073 206.357V206.357Z" stroke="#263238" stroke-linecap="round" stroke-linejoin="round"/>
<path d="M151.62 207.118L161.402 209.247C161.618 209.302 161.845 209.305 162.063 209.255C162.282 209.205 162.485 209.103 162.656 208.959C162.827 208.815 162.961 208.632 163.047 208.425C163.133 208.219 163.169 207.995 163.151 207.772L160.512 176.897C160.46 176.289 160.221 175.712 159.827 175.246C159.433 174.78 158.904 174.448 158.313 174.296L148.524 172.174C148.31 172.124 148.088 172.125 147.875 172.178C147.663 172.23 147.465 172.332 147.299 172.475C147.133 172.618 147.003 172.798 146.92 173.001C146.837 173.204 146.802 173.423 146.82 173.642L149.421 204.524C149.475 205.13 149.715 205.706 150.108 206.17C150.502 206.635 151.03 206.966 151.62 207.118Z" fill="black" stroke="#263238" stroke-linecap="round" stroke-linejoin="round"/>
<path opacity="0.3" d="M157.043 182.61L158.625 182.952C158.66 182.96 158.696 182.961 158.731 182.952C158.766 182.944 158.798 182.928 158.825 182.905C158.853 182.882 158.874 182.853 158.889 182.82C158.903 182.788 158.909 182.752 158.907 182.716L158.481 177.734C158.471 177.636 158.432 177.543 158.368 177.468C158.304 177.394 158.219 177.34 158.123 177.316L156.549 176.973C156.514 176.965 156.478 176.965 156.443 176.973C156.408 176.981 156.376 176.997 156.348 177.02C156.321 177.043 156.299 177.072 156.285 177.105C156.271 177.138 156.265 177.174 156.267 177.209L156.693 182.191C156.7 182.289 156.737 182.382 156.8 182.457C156.863 182.533 156.948 182.586 157.043 182.61Z" fill="black" fill-opacity="0.7"/>
<path d="M143.283 198.089C142.903 193.761 146.843 187.265 149.46 187.265C152.076 187.265 160.063 193.403 160.063 193.403C163.151 195.647 161.584 197.777 161.584 197.777C163.402 198.979 163.866 200.599 163.105 201.352C162.345 202.105 159.629 201.352 159.629 201.352C159.629 201.352 162.276 203.292 161.622 204.242C160.101 206.486 154.929 203.52 154.929 203.52C154.929 203.52 157.91 205.482 157.735 205.855C156.617 208.312 151.757 205.452 151.757 205.452L148.334 207.201C148.337 207.603 148.257 208 148.099 208.369C147.942 208.739 147.71 209.071 147.418 209.347C147.126 209.622 146.78 209.835 146.403 209.971C146.025 210.107 145.623 210.163 145.223 210.137" fill="white"/>
<path d="M143.283 198.089C142.903 193.761 146.843 187.265 149.46 187.265C152.076 187.265 160.063 193.403 160.063 193.403C163.151 195.647 161.584 197.777 161.584 197.777C163.402 198.979 163.866 200.599 163.105 201.352C162.345 202.105 159.629 201.352 159.629 201.352C159.629 201.352 162.276 203.292 161.622 204.242C160.101 206.486 154.929 203.52 154.929 203.52C154.929 203.52 157.91 205.482 157.735 205.855C156.617 208.312 151.757 205.452 151.757 205.452L148.334 207.201C148.337 207.603 148.257 208 148.099 208.369C147.942 208.739 147.71 209.071 147.418 209.347C147.126 209.622 146.78 209.835 146.403 209.971C146.025 210.107 145.623 210.163 145.223 210.137" stroke="#263238" stroke-linecap="round" stroke-linejoin="round"/>
<path d="M161.622 197.777C161.622 197.777 154.153 192.947 153.21 192.818C152.266 192.688 148.805 191.935 148.805 191.935" fill="white"/>
<path d="M161.622 197.777C161.622 197.777 154.153 192.947 153.21 192.818C152.266 192.688 148.805 191.935 148.805 191.935" stroke="#263238" stroke-linecap="round" stroke-linejoin="round"/>
<path d="M159.629 201.352C159.629 201.352 153.544 198.218 152.456 198.218C150.788 198.035 149.131 197.75 147.497 197.366" fill="white"/>
<path d="M159.629 201.352C159.629 201.352 153.544 198.218 152.456 198.218C150.788 198.035 149.131 197.75 147.497 197.366" stroke="#263238" stroke-linecap="round" stroke-linejoin="round"/>
<path d="M154.929 203.52C154.22 203.015 153.469 202.572 152.685 202.196C151.236 202.096 149.782 202.096 148.334 202.196" fill="white"/>
<path d="M154.929 203.52C154.22 203.015 153.469 202.572 152.685 202.196C151.236 202.096 149.782 202.096 148.334 202.196" stroke="#263238" stroke-linecap="round" stroke-linejoin="round"/>
<path d="M180.669 204.524C181.072 202.288 181.977 200.721 183.437 199.96C199.989 191.707 235.313 190.14 257.075 192.871C277.156 195.396 280.236 250.52 278.198 301.581H200.255C200.255 301.581 200.742 257.099 190.907 239.574C188.731 235.71 183.871 225.951 183.3 221.456" fill="black"/>
<path opacity="0.2" d="M278.198 301.574H200.255C200.255 301.574 200.362 292.149 199.494 280.276C199.494 280.276 197.334 271.81 204.72 267.383C211.406 263.374 228.254 261.397 232.544 257.776C237.481 253.608 238.759 242.328 246.449 223.334C251.165 211.689 273.307 215.728 273.307 215.728C278.761 236.988 279.453 270.053 278.198 301.574Z" fill="black"/>
<path d="M156.092 235.657C156.092 235.657 162.877 244.602 159.629 251.828" stroke="#263238" stroke-linecap="round" stroke-linejoin="round"/>
<path d="M180.41 225.943C180.41 225.943 182.981 233.512 188.944 235.9" stroke="#263238" stroke-linecap="round" stroke-linejoin="round"/>
<path d="M135.525 220.931C135.525 220.931 142.089 225.342 148.334 222.186" stroke="#263238" stroke-linecap="round" stroke-linejoin="round"/>
<path d="M158.298 239.331C158.298 239.331 162.756 241.095 163.881 245.309" stroke="#263238" stroke-linecap="round" stroke-linejoin="round"/>
<path d="M200.255 301.574C200.255 301.574 200.742 257.092 190.907 239.566C188.731 235.702 183.871 225.943 183.3 221.448" stroke="#263238" stroke-miterlimit="10"/>
<path d="M180.669 204.524C181.072 202.288 181.977 200.721 183.437 199.96C199.989 191.707 235.313 190.14 257.075 192.871C277.156 195.396 280.236 250.52 278.198 301.581" stroke="#263238" stroke-miterlimit="10"/>
<path d="M234.522 193.228C234.522 193.228 231.061 208.144 216.73 208.213C206.34 208.266 207.146 197.777 207.146 197.777C207.723 197.169 208.106 196.404 208.248 195.578C208.39 194.752 208.285 193.903 207.945 193.137C207.786 192.791 207.576 192.47 207.321 192.186C206.166 191.034 204.757 190.169 203.206 189.661C202.287 189.313 201.344 189.031 200.384 188.817C200.384 188.817 201.426 185.774 200.864 185.204C193.455 177.407 208.82 162.734 224.238 166.857C224.238 166.857 215.78 177.574 234.522 193.228Z" fill="white" stroke="#263238" stroke-linecap="round" stroke-linejoin="round"/>
<path d="M207.321 192.186C206.166 191.034 204.757 190.17 203.206 189.661C206.675 187.189 210.493 184.854 210.493 184.854C210.548 186.236 210.291 187.612 209.742 188.881C209.193 190.15 208.366 191.28 207.321 192.186Z" fill="#263238"/>
<path d="M227.22 158.756C228.939 135.808 216.738 127.882 209.276 126.049C197.319 123.143 183.856 132.727 182.448 145.544C181.041 158.361 184.472 160.696 185.095 165.754C185.537 169.306 183.635 171.383 187.377 179.864C189.872 185.462 193.964 194.43 203.701 191.197C206.674 190.176 209.49 188.745 212.068 186.945" fill="white"/>
<path d="M227.22 158.756C228.939 135.808 216.738 127.882 209.276 126.049C197.319 123.143 183.856 132.727 182.448 145.544C181.041 158.361 184.472 160.696 185.095 165.754C185.537 169.306 183.635 171.383 187.377 179.864C189.872 185.462 193.964 194.43 203.701 191.197C206.674 190.176 209.49 188.745 212.068 186.945" stroke="#263238" stroke-linecap="round" stroke-linejoin="round"/>
<path d="M196.939 156.102C196.939 156.102 200.856 153.911 203.83 158.437" stroke="#263238" stroke-linecap="round" stroke-linejoin="round"/>
<path d="M182.418 155.714C182.418 155.714 186.609 154.109 188.944 156.961" stroke="#263238" stroke-linecap="round" stroke-linejoin="round"/>
<path d="M191.028 163.069C191.028 163.069 192.002 166.872 190.641 167.853C189.279 168.835 186.723 167.618 187.902 170.599C189.081 173.581 192.649 173.216 192.649 173.216" stroke="#263238" stroke-linecap="round" stroke-linejoin="round"/>
<path d="M198.84 162.894C199 163.928 199.601 164.689 200.164 164.598C200.727 164.507 201.061 163.609 200.924 162.575C200.788 161.54 200.164 160.787 199.609 160.871C199.053 160.954 198.681 161.867 198.84 162.894Z" fill="#263238" stroke="#263238" stroke-linecap="round" stroke-linejoin="round"/>
<path d="M186.83 163.723C186.989 164.75 187.59 165.518 188.146 165.427C188.701 165.336 189.051 164.431 188.906 163.404C188.762 162.377 188.146 161.609 187.59 161.7C187.035 161.791 186.67 162.689 186.83 163.723Z" fill="#263238" stroke="#263238" stroke-linecap="round" stroke-linejoin="round"/>
<path d="M200.734 175.064C200.734 175.064 196.604 178.282 192.192 177.841" stroke="#263238" stroke-linecap="round" stroke-linejoin="round"/>
<path d="M200.065 176.038C200.065 176.038 200.065 179.423 197.022 180.183C193.98 180.944 193.364 177.939 193.364 177.939" stroke="#263238" stroke-linecap="round" stroke-linejoin="round"/>
<path d="M220.389 125.547C220.389 125.547 215.681 119.112 200.734 122.337C185.788 125.562 180.555 128.779 178.136 133.404C175.717 138.029 171.693 152.838 175.519 156.109C179.345 159.38 182.114 158.437 182.114 158.437C182.114 158.437 176.531 157.973 176.531 153.744C176.531 153.744 179.269 156.74 182.73 157.455C182.444 154.9 182.34 152.328 182.418 149.758C182.57 144.22 186.731 141.239 190.123 142.608C190.123 142.608 192.497 139.512 194.383 141.725C196.939 144.722 192.497 159.783 203.107 158.459C203.107 158.459 197.022 156.984 199.875 146.616C199.875 146.616 200.734 157.897 208.744 158.459C211.619 158.665 212.593 162.118 212.866 164.035L215.278 163.069C215.886 162.095 218.594 160.551 219.842 161.396C224.672 164.72 220.998 168.751 220.602 173.223L222.344 176.038C226.946 172.166 237.146 154.55 231.304 142.471C232.103 142.806 232.811 143.325 233.37 143.986C233.929 144.647 234.324 145.431 234.522 146.274C234.522 146.274 235.26 130.171 220.389 125.547Z" fill="#263238"/>
<path d="M215.278 164.59C215.278 164.59 218.161 156.391 222.694 157.577C227.227 158.764 225.676 168.264 222.451 171.786C219.225 175.308 216.54 172.706 216.54 172.706" fill="white"/>
<path d="M215.278 164.59C215.278 164.59 218.161 156.391 222.694 157.577C227.227 158.764 225.676 168.264 222.451 171.786C219.225 175.308 216.54 172.706 216.54 172.706" stroke="#263238" stroke-linecap="round" stroke-linejoin="round"/>
<g opacity="0.2">
<path opacity="0.2" d="M193.386 134.431C198.909 131.594 202.073 139.116 204.933 147.24C207.793 155.364 213.353 156.109 213.353 156.109" stroke="white" stroke-linecap="round" stroke-linejoin="round"/>
<path opacity="0.2" d="M190.123 137.161C190.123 137.161 186.069 131.594 182.114 135.055C178.158 138.515 174.386 150.853 179.954 153.561" stroke="white" stroke-linecap="round" stroke-linejoin="round"/>
<path opacity="0.2" d="M198.308 130.346C204.477 128.133 209.291 127.517 212.905 138.052C216.518 148.586 219.522 154.451 226.292 156.109" stroke="white" stroke-linecap="round" stroke-linejoin="round"/>
<path opacity="0.2" d="M213.353 126.627C219.081 128.285 224.405 142.836 229.251 145.194" stroke="white" stroke-linecap="round" stroke-linejoin="round"/>
<path opacity="0.2" d="M194.847 129.38C194.847 129.38 193.044 125.843 188.381 127.821" stroke="white" stroke-linecap="round" stroke-linejoin="round"/>
</g>
<path d="M257.295 196.56C251.073 199.146 249.012 203.056 247.065 214.245C245.848 221.22 246.304 261.404 246.304 261.404C246.304 261.404 211.315 265.033 204.743 267.368C201.738 268.433 200.384 271.931 200.384 271.931L196.467 272.692C195.429 275.581 195.082 278.672 195.452 281.719C195.821 284.765 196.898 287.684 198.597 290.24L203.336 289.7C205.678 296.371 263.228 294.827 271.139 285.577C279.255 276.085 286.23 207.232 262.194 194.879" fill="black"/>
<path d="M257.295 196.56C251.073 199.146 249.012 203.056 247.065 214.245C245.848 221.22 246.304 261.404 246.304 261.404C246.304 261.404 211.315 265.033 204.743 267.368C201.738 268.433 200.384 271.931 200.384 271.931L196.467 272.692C195.429 275.581 195.082 278.672 195.452 281.719C195.821 284.765 196.898 287.684 198.597 290.24L203.336 289.7C205.678 296.371 263.228 294.827 271.139 285.577C279.255 276.085 286.23 207.232 262.194 194.879" stroke="#263238" stroke-linecap="round" stroke-linejoin="round"/>
<path d="M204.743 198.697C204.743 198.697 203.784 207.445 212.996 211.369C222.207 215.294 235.412 205.459 237.336 194.871" stroke="#263238" stroke-linecap="round" stroke-linejoin="round"/>
<path d="M236.286 223.692C236.286 223.692 221.386 246.26 206.043 251.836" stroke="#263238" stroke-linecap="round" stroke-linejoin="round"/>
<path d="M246.304 261.412C246.304 261.412 251.332 260.849 253.91 263.861" stroke="#263238" stroke-linecap="round" stroke-linejoin="round"/>
<path d="M250.092 222.186C250.092 222.186 257.501 245.058 266.674 249.417" stroke="#263238" stroke-linecap="round" stroke-linejoin="round"/>
<path d="M253.888 255.585C253.888 255.585 248.867 256.186 246.281 259.952" stroke="#263238" stroke-linecap="round" stroke-linejoin="round"/>
<path d="M200.384 271.909C202.068 274.45 203.083 277.375 203.336 280.413" stroke="#263238" stroke-linecap="round" stroke-linejoin="round"/>
<path d="M196.794 274.601C196.794 274.601 186.145 275.362 185.309 275.362C184.472 275.362 175.276 269.627 172.613 269.954C169.677 270.311 162.687 279.721 162.33 280.747C162.127 281.31 162.153 281.929 162.402 282.472C162.65 283.015 163.103 283.439 163.661 283.653C163.531 286.095 166.703 287.053 166.703 287.053C166.658 289.183 170.286 289.662 170.286 289.662C172.34 293.572 179.414 288.43 179.414 288.43C182.219 288.445 185.008 288.008 187.674 287.137L198.932 287.464C199.304 279.584 196.794 274.601 196.794 274.601Z" fill="white" stroke="#263238" stroke-linecap="round" stroke-linejoin="round"/>
<path d="M173.374 271.239C173.374 271.239 172.796 273.042 173.321 273.719C173.846 274.396 175.154 274.229 175.131 275.476C175.108 276.724 174.979 277.477 176.911 278.374C178.843 279.272 176.561 282.177 178.067 282.778" stroke="#263238" stroke-linecap="round" stroke-linejoin="round"/>
<path d="M170.978 279.188C170.978 279.188 166.734 284.794 166.688 287.068" stroke="#263238" stroke-linecap="round" stroke-linejoin="round"/>
<path d="M173.785 282.695C173.785 282.695 169.982 287.852 170.271 289.677" stroke="#263238" stroke-linecap="round" stroke-linejoin="round"/>
<path d="M163.661 283.668C163.661 283.668 166.292 278.481 169.997 275.971" stroke="#263238" stroke-linecap="round" stroke-linejoin="round"/>
<path d="M177.352 285.859C176.627 287.122 175.496 288.103 174.142 288.643" stroke="#263238" stroke-linecap="round" stroke-linejoin="round"/>
<path d="M176.257 287.259C176.257 287.259 180.821 287.35 179.413 288.445" stroke="#263238" stroke-linecap="round" stroke-linejoin="round"/>
<path d="M297.328 306.138V289.229C297.328 288.254 296.941 287.32 296.252 286.631C295.563 285.942 294.628 285.555 293.654 285.555H14.2027C13.2283 285.555 12.2939 285.942 11.6049 286.631C10.9159 287.32 10.5288 288.254 10.5288 289.229V306.138" fill="white"/>
<path opacity="0.4" d="M297.328 289.229V296.112C295.279 295.691 293.175 295.601 291.098 295.846C284.868 296.706 278.76 303.118 259.965 303.118C241.17 303.118 232.719 296.797 215.932 296.797C199.144 296.797 197.212 303.719 190.298 303.719C183.384 303.719 177.367 300.874 164.817 300.874C152.266 300.874 144.257 304.928 119.437 304.928C94.6174 304.928 88.9127 294.994 77.0847 295.854C65.2568 296.713 50.6906 301.581 30.2294 301.581C23.5005 301.667 16.8184 300.451 10.5516 297.999V289.229C10.5516 288.254 10.9387 287.32 11.6277 286.631C12.3167 285.942 13.2511 285.555 14.2255 285.555H293.623C294.108 285.551 294.589 285.643 295.039 285.826C295.488 286.008 295.897 286.278 296.241 286.62C296.585 286.961 296.859 287.368 297.045 287.816C297.232 288.263 297.328 288.744 297.328 289.229Z" fill="black"/>
<path d="M297.328 306.138V289.229C297.328 288.254 296.941 287.32 296.252 286.631C295.563 285.942 294.628 285.555 293.654 285.555H14.2027C13.2283 285.555 12.2939 285.942 11.6049 286.631C10.9159 287.32 10.5288 288.254 10.5288 289.229V306.138" stroke="#263238" stroke-linecap="round" stroke-linejoin="round"/>
<path d="M128.405 271.392C128.405 271.392 129.508 269.186 131.113 269.977C132.718 270.768 132.216 277.013 129.759 277.013C127.302 277.013 124.898 275.431 124.693 273.141C124.488 270.852 128.405 271.392 128.405 271.392Z" fill="black" stroke="#263238" stroke-linecap="round" stroke-linejoin="round"/>
<path d="M129.151 270.395L129.607 268.874L127.903 270.395L126.1 268.874L126.701 270.395L124.686 271.392C124.686 271.392 128.687 271.939 129.151 270.395Z" fill="#263238"/>
<path d="M147.064 281.843H112.454L113.071 277.576C113.111 277.288 113.254 277.025 113.474 276.835C113.693 276.644 113.974 276.54 114.265 276.541H145.299C145.588 276.542 145.867 276.647 146.085 276.837C146.303 277.027 146.445 277.289 146.485 277.576L147.064 281.843Z" fill="white"/>
<path opacity="0.4" d="M147.064 281.843H112.454L113.071 277.576C113.111 277.288 113.254 277.025 113.474 276.835C113.693 276.644 113.974 276.54 114.265 276.541H145.299C145.588 276.542 145.867 276.647 146.085 276.837C146.303 277.027 146.445 277.289 146.485 277.576L147.064 281.843Z" fill="black"/>
<path d="M147.064 281.843H112.454L113.071 277.576C113.111 277.288 113.254 277.025 113.474 276.835C113.693 276.644 113.974 276.54 114.265 276.541H145.299C145.588 276.542 145.867 276.647 146.085 276.837C146.303 277.027 146.445 277.289 146.485 277.576L147.064 281.843Z" stroke="#263238" stroke-linecap="round" stroke-linejoin="round"/>
<path d="M145.291 285.555H114.47L106.864 282.695H152.898L145.291 285.555Z" fill="white"/>
<path opacity="0.4" d="M145.291 285.555H114.47L106.864 282.695H152.898L145.291 285.555Z" fill="black"/>
<path d="M145.291 285.555H114.47L106.864 282.695H152.898L145.291 285.555Z" stroke="#263238" stroke-linecap="round" stroke-linejoin="round"/>
<path d="M154.51 283.22H105.259C104.953 283.22 104.66 283.099 104.444 282.884C104.227 282.669 104.105 282.376 104.103 282.071C104.103 281.764 104.224 281.47 104.441 281.254C104.658 281.037 104.952 280.915 105.259 280.915H154.51C154.815 280.917 155.108 281.04 155.323 281.256C155.538 281.473 155.659 281.766 155.659 282.071C155.657 282.375 155.535 282.666 155.32 282.881C155.105 283.096 154.814 283.218 154.51 283.22Z" fill="white" stroke="#263238" stroke-linecap="round" stroke-linejoin="round"/>
<path d="M66.0555 268.851C66.0555 268.851 60.1377 267.976 59.8411 271.491C59.5444 275.005 63.7051 282.969 69.7294 281.843V279.827C69.7294 279.827 63.8801 280.93 62.3132 273.423C61.408 269.254 66.9531 271.46 66.9531 271.46L66.0555 268.851Z" fill="white"/>
<path opacity="0.4" d="M66.0555 268.851C66.0555 268.851 60.1377 267.976 59.8411 271.491C59.5444 275.005 63.7051 282.969 69.7294 281.843V279.827C69.7294 279.827 63.8801 280.93 62.3132 273.423C61.408 269.254 66.9531 271.46 66.9531 271.46L66.0555 268.851Z" fill="black"/>
<path d="M66.0555 268.851C66.0555 268.851 60.1377 267.976 59.8411 271.491C59.5444 275.005 63.7051 282.969 69.7294 281.843V279.827C69.7294 279.827 63.8801 280.93 62.3132 273.423C61.408 269.254 66.9531 271.46 66.9531 271.46L66.0555 268.851Z" stroke="#263238" stroke-linecap="round" stroke-linejoin="round"/>
<path d="M83.687 281.843C81.6997 283.411 79.2188 284.22 76.6891 284.125C63.454 284.125 64.9524 267.17 64.9524 267.17H88.4258C88.4258 267.17 89.3157 277.218 83.687 281.843Z" fill="white"/>
<path opacity="0.4" d="M83.687 281.843C81.6997 283.411 79.2188 284.22 76.6891 284.125C63.454 284.125 64.9524 267.17 64.9524 267.17H69.2348C69.2348 267.17 69.7369 274.624 72.4447 278.237C75.1526 281.85 83.6185 281.843 83.687 281.843Z" fill="black"/>
<path d="M83.687 281.843C81.6997 283.411 79.2188 284.22 76.6891 284.125C63.454 284.125 64.9524 267.17 64.9524 267.17H88.4258C88.4258 267.17 89.3157 277.218 83.687 281.843Z" stroke="#263238" stroke-linecap="round" stroke-linejoin="round"/>
<path d="M86.5319 285.555H65.5307L60.3507 283.608H91.7194L86.5319 285.555Z" fill="white"/>
<path opacity="0.4" d="M86.5319 285.555H65.5307L60.3507 283.608H91.7194L86.5319 285.555Z" fill="black"/>
<path d="M86.5319 285.555H65.5307L60.3507 283.608H91.7194L86.5319 285.555Z" stroke="#263238" stroke-linecap="round" stroke-linejoin="round"/>
<path d="M92.8148 283.965H59.2554C59.0537 283.965 58.8602 283.885 58.7175 283.742C58.5749 283.6 58.4948 283.406 58.4948 283.204C58.4948 283.003 58.5749 282.809 58.7175 282.666C58.8602 282.524 59.0537 282.444 59.2554 282.444H92.8148C93.0165 282.444 93.21 282.524 93.3526 282.666C93.4953 282.809 93.5754 283.003 93.5754 283.204C93.5754 283.406 93.4953 283.6 93.3526 283.742C93.21 283.885 93.0165 283.965 92.8148 283.965Z" fill="white" stroke="#263238" stroke-linecap="round" stroke-linejoin="round"/>
<path d="M75.784 248.017C70.3226 252.627 79.7394 260.051 75.784 263.162C75.784 263.162 79.6557 261.64 77.2445 256.536C74.8332 251.432 75.784 248.017 75.784 248.017Z" fill="white"/>
</svg>
