<svg width="201" height="137" viewBox="0 0 201 137" fill="none" xmlns="http://www.w3.org/2000/svg">
<path d="M7.75317 125.113H197.187C197.187 125.113 192.615 115.974 186.674 113.001C180.733 110.028 177.534 115.974 170.22 111.858C162.905 107.742 164.509 98.1509 156.282 92.4313C148.055 86.7117 139.372 93.1181 131.831 92.6617C124.291 92.2054 122.005 82.1487 113.76 81.0057C105.515 79.8627 105.759 89.3773 98.2187 92.2055C90.6784 95.0336 85.4783 90.4299 80.1698 90.6061C74.8614 90.7823 75.8282 94.0307 70.7998 96.3167C65.7714 98.6027 64.8588 97.4597 55.2629 98.3723C45.667 99.2849 43.381 109.111 39.9519 111.854C36.5229 114.596 31.9553 110.254 24.8713 111.854C17.7873 113.453 7.75317 125.113 7.75317 125.113Z" fill="black"/>
<g opacity="0.8">
<path opacity="0.8" d="M7.75317 125.113H197.187C197.187 125.113 192.615 115.974 186.674 113.001C180.733 110.028 177.534 115.974 170.22 111.858C162.905 107.742 164.509 98.1509 156.282 92.4313C148.055 86.7117 139.372 93.1181 131.831 92.6617C124.291 92.2054 122.005 82.1487 113.76 81.0057C105.515 79.8627 105.759 89.3773 98.2187 92.2055C90.6784 95.0336 85.4783 90.4299 80.1698 90.6061C74.8614 90.7823 75.8282 94.0307 70.7998 96.3167C65.7714 98.6027 64.8588 97.4597 55.2629 98.3723C45.667 99.2849 43.381 109.111 39.9519 111.854C36.5229 114.596 31.9553 110.254 24.8713 111.854C17.7873 113.453 7.75317 125.113 7.75317 125.113Z" fill="white"/>
</g>
<path d="M166.47 90.3534C166.827 92.2463 171.114 98.4132 172.696 101.883C172.33 101.431 171.905 100.898 171.485 100.406C171.155 99.8318 170.861 99.1903 170.531 98.6978C170.021 97.9343 169.483 97.1889 168.901 96.4796C168.007 95.3537 166.985 94.3363 165.855 93.4481C164.549 92.3819 162.96 91.7208 161.283 91.5461C160.832 91.5144 158.252 91.3202 158.853 92.3593C158.963 92.5185 159.11 92.6487 159.282 92.7388C160.868 93.7101 162.621 94.2297 164.292 94.9977C166.795 96.1678 170.102 99.2851 171.48 100.64L172.18 101.567C169.718 99.2716 165.697 97.9524 164.319 98.5984C162.616 99.3755 166.28 100.171 169.388 100.975C170.779 101.291 172.072 101.941 173.156 102.868C173.753 103.672 174.426 104.576 175.099 105.502C175.18 105.646 175.262 105.782 175.343 105.917C174.866 105.363 174.326 104.866 173.735 104.435C172.144 103.347 167.767 102.687 167.306 104.16C166.845 105.633 169.949 104.96 172.619 105.384C174.064 105.651 175.392 106.356 176.423 107.404L176.599 107.593C176.902 108.045 177.191 108.438 177.462 108.836C178.099 109.767 178.704 110.643 179.269 111.488C178.371 110.311 177.305 109.271 176.106 108.402C173.775 106.803 170.662 106.464 169.529 107.322C168.395 108.181 173.626 108.958 176.197 109.861C177.678 110.425 178.991 111.358 180.01 112.572C180.855 113.769 181.691 114.935 182.59 116.155C181.157 114.886 179.623 113.736 178.004 112.717C175.37 110.991 172.641 111.226 171.914 112.265C171.187 113.304 173.414 113.372 177.557 114.262C179.741 114.725 181.767 115.753 183.43 117.244L184.618 118.825C185.07 119.444 185.635 120.076 186.208 120.7C185.508 120.384 184.474 119.932 183.326 119.439C182.043 118.912 180.803 118.287 179.617 117.569C178.262 116.72 176.418 115.82 174.796 116.543C174.673 116.583 174.56 116.649 174.465 116.736C174.369 116.824 174.294 116.931 174.243 117.05C174.193 117.169 174.168 117.297 174.172 117.427C174.175 117.556 174.206 117.683 174.263 117.799C174.442 118.126 174.723 118.386 175.063 118.54C176.87 119.53 179.097 119.792 181.072 120.23C182.884 120.635 184.72 120.92 186.57 121.084C187.107 121.649 187.668 122.204 188.223 122.728L187.392 122.882C186.412 123.067 181.632 121.743 179.26 121.45C176.888 121.156 174.968 122.715 177.543 123.618C180.118 124.522 186.529 123.23 186.529 123.23L188.381 122.882C190.582 124.956 192.619 126.541 192.619 126.541L193.478 125.963C193.478 125.963 191.702 125.475 188.72 122.656C188.65 122.098 188.641 121.535 188.693 120.975C188.883 117.813 191.49 114.244 189.488 111.185C189.005 110.444 187.961 110.038 187.383 110.851C186.967 111.438 186.99 112.428 187.121 113.11C187.573 115.346 188.273 117.329 188.101 119.661C188.101 119.765 188.101 121.328 188.21 122.177C187.803 121.775 187.383 121.337 186.94 120.853C186.576 119.975 186.283 119.068 186.064 118.143C185.49 115.68 186.064 113.069 185.653 110.562C185.522 109.794 184.324 107.973 183.737 109.554C183.48 110.254 183.809 111.583 183.855 112.328C183.99 114.438 184.198 116.643 185.029 118.613L184.672 118.161C183.957 116.195 183.401 114.175 183.01 112.12C182.373 108.727 182.481 105.841 181.388 104.937C180.295 104.033 180.353 107.81 181.388 111.782C181.862 113.592 182.633 115.311 183.669 116.869C182.504 115.378 181.343 113.846 180.236 112.351C179.208 110.722 178.567 108.88 178.361 106.965C178.167 103.952 177.986 101.49 176.594 99.9944C175.203 98.499 175.14 99.6195 176.238 103.021C176.992 105.353 177.896 108.488 178.948 110.598C178.085 109.428 177.277 108.316 176.549 107.309C176.066 106.265 174.891 103.568 174.525 101.237C174.073 98.2731 173.495 96.719 172.718 97.5051C172.18 98.0563 173.17 101.652 174.611 104.58C174.001 103.717 173.545 103.053 173.256 102.66C173.135 102.479 173 102.29 172.849 102.091C172.149 99.6985 171.296 97.3535 170.297 95.07C168.548 91.0762 166.086 88.2887 166.47 90.3534Z" fill="black"/>
<g opacity="0.6">
<path opacity="0.6" d="M166.47 90.3534C166.827 92.2463 171.114 98.4132 172.696 101.883C172.33 101.431 171.905 100.898 171.485 100.406C171.155 99.8318 170.861 99.1903 170.531 98.6978C170.021 97.9343 169.483 97.1889 168.901 96.4796C168.007 95.3537 166.985 94.3363 165.855 93.4481C164.549 92.3819 162.96 91.7208 161.283 91.5461C160.832 91.5144 158.252 91.3202 158.853 92.3593C158.963 92.5185 159.11 92.6487 159.282 92.7388C160.868 93.7101 162.621 94.2297 164.292 94.9977C166.795 96.1678 170.102 99.2851 171.48 100.64L172.18 101.567C169.718 99.2716 165.697 97.9524 164.319 98.5984C162.616 99.3755 166.28 100.171 169.388 100.975C170.779 101.291 172.072 101.941 173.156 102.868C173.753 103.672 174.426 104.576 175.099 105.502C175.18 105.646 175.262 105.782 175.343 105.917C174.866 105.363 174.326 104.866 173.735 104.435C172.144 103.347 167.767 102.687 167.306 104.16C166.845 105.633 169.949 104.96 172.619 105.384C174.064 105.651 175.392 106.356 176.423 107.404L176.599 107.593C176.902 108.045 177.191 108.438 177.462 108.836C178.099 109.767 178.704 110.643 179.269 111.488C178.371 110.311 177.305 109.271 176.106 108.402C173.775 106.803 170.662 106.464 169.529 107.322C168.395 108.181 173.626 108.958 176.197 109.861C177.678 110.425 178.991 111.358 180.01 112.572C180.855 113.769 181.691 114.935 182.59 116.155C181.157 114.886 179.623 113.736 178.004 112.717C175.37 110.991 172.641 111.226 171.914 112.265C171.187 113.304 173.414 113.372 177.557 114.262C179.741 114.725 181.767 115.753 183.43 117.244L184.618 118.825C185.07 119.444 185.635 120.076 186.208 120.7C185.508 120.384 184.474 119.932 183.326 119.439C182.043 118.912 180.803 118.287 179.617 117.569C178.262 116.72 176.418 115.82 174.796 116.543C174.673 116.583 174.56 116.649 174.465 116.736C174.369 116.824 174.294 116.931 174.243 117.05C174.193 117.169 174.168 117.297 174.172 117.427C174.175 117.556 174.206 117.683 174.263 117.799C174.442 118.126 174.723 118.386 175.063 118.54C176.87 119.53 179.097 119.792 181.072 120.23C182.884 120.635 184.72 120.92 186.57 121.084C187.107 121.649 187.668 122.204 188.223 122.728L187.392 122.882C186.412 123.067 181.632 121.743 179.26 121.45C176.888 121.156 174.968 122.715 177.543 123.618C180.118 124.522 186.529 123.23 186.529 123.23L188.381 122.882C190.582 124.956 192.619 126.541 192.619 126.541L193.478 125.963C193.478 125.963 191.702 125.475 188.72 122.656C188.65 122.098 188.641 121.535 188.693 120.975C188.883 117.813 191.49 114.244 189.488 111.185C189.005 110.444 187.961 110.038 187.383 110.851C186.967 111.438 186.99 112.428 187.121 113.11C187.573 115.346 188.273 117.329 188.101 119.661C188.101 119.765 188.101 121.328 188.21 122.177C187.803 121.775 187.383 121.337 186.94 120.853C186.576 119.975 186.283 119.068 186.064 118.143C185.49 115.68 186.064 113.069 185.653 110.562C185.522 109.794 184.324 107.973 183.737 109.554C183.48 110.254 183.809 111.583 183.855 112.328C183.99 114.438 184.198 116.643 185.029 118.613L184.672 118.161C183.957 116.195 183.401 114.175 183.01 112.12C182.373 108.727 182.481 105.841 181.388 104.937C180.295 104.033 180.353 107.81 181.388 111.782C181.862 113.592 182.633 115.311 183.669 116.869C182.504 115.378 181.343 113.846 180.236 112.351C179.208 110.722 178.567 108.88 178.361 106.965C178.167 103.952 177.986 101.49 176.594 99.9944C175.203 98.499 175.14 99.6195 176.238 103.021C176.992 105.353 177.896 108.488 178.948 110.598C178.085 109.428 177.277 108.316 176.549 107.309C176.066 106.265 174.891 103.568 174.525 101.237C174.073 98.2731 173.495 96.719 172.718 97.5051C172.18 98.0563 173.17 101.652 174.611 104.58C174.001 103.717 173.545 103.053 173.256 102.66C173.135 102.479 173 102.29 172.849 102.091C172.149 99.6985 171.296 97.3535 170.297 95.07C168.548 91.0762 166.086 88.2887 166.47 90.3534Z" fill="white"/>
</g>
<path d="M198.492 81.5478C197.444 83.1607 196.297 90.5835 195.05 94.1978C195.113 93.6015 195.158 92.9419 195.19 92.2958C195.348 91.6543 195.578 90.9902 195.682 90.3983C195.836 89.4948 195.958 88.5912 196.03 87.6876C196.161 86.2558 196.121 84.8136 195.913 83.3911C195.698 81.7229 195.003 80.1532 193.911 78.8733C193.627 78.5525 191.874 76.6144 191.594 77.7845C191.563 77.9754 191.58 78.171 191.643 78.3537C192.118 80.1609 193.03 81.7376 193.704 83.4589C194.706 86.0341 194.95 90.57 195.014 92.4946C194.978 92.8063 194.932 93.1994 194.883 93.6466C194.684 90.2899 192.669 86.5672 191.237 86.0747C189.466 85.4693 191.571 88.5686 193.27 91.2929C194.057 92.4809 194.546 93.8418 194.693 95.2595C194.571 96.258 194.431 97.3739 194.282 98.5079C194.241 98.6705 194.205 98.8241 194.173 98.9822C194.209 98.2502 194.16 97.5166 194.029 96.7956C193.627 94.9116 190.911 91.4148 189.561 92.1648C188.21 92.9148 190.916 94.5683 192.565 96.7143C193.427 97.9051 193.9 99.333 193.92 100.803C193.92 100.889 193.92 100.975 193.92 101.06C193.844 101.58 193.767 102.081 193.69 102.556C193.509 103.667 193.347 104.715 193.188 105.718C193.35 104.249 193.298 102.764 193.035 101.309C192.443 98.544 190.424 96.1495 189.009 95.9914C187.595 95.8333 190.848 99.9988 192.091 102.429C192.78 103.854 193.091 105.431 192.994 107.01C192.782 108.456 192.583 109.879 192.393 111.384C192.228 109.476 191.911 107.585 191.445 105.727C190.726 102.664 188.585 100.948 187.329 101.21C186.073 101.472 187.654 103.044 190.04 106.545C191.297 108.385 192.051 110.522 192.226 112.744C192.149 113.376 192.073 114.027 191.996 114.704C191.91 115.477 191.865 116.313 191.856 117.162C191.562 116.448 191.128 115.405 190.636 114.262C190.071 112.995 189.604 111.687 189.24 110.349C188.833 108.79 188.129 106.875 186.457 106.283C186.34 106.227 186.213 106.197 186.084 106.195C185.955 106.192 185.826 106.218 185.708 106.269C185.589 106.32 185.483 106.397 185.396 106.493C185.31 106.589 185.244 106.702 185.205 106.825C185.109 107.186 185.131 107.567 185.269 107.914C185.883 109.866 187.329 111.601 188.454 113.281C189.489 114.823 190.624 116.296 191.851 117.691C191.851 118.472 191.874 119.258 191.914 120.022L191.205 119.57C190.365 119.028 187.821 114.772 186.308 112.929C184.794 111.086 182.328 110.882 183.565 113.313C184.803 115.743 190.342 119.227 190.342 119.227L191.923 120.257C192.091 123.275 192.47 125.827 192.47 125.827L193.491 125.999C193.491 125.999 192.542 124.422 192.326 120.329C192.66 119.875 193.043 119.46 193.469 119.091C195.782 116.932 200.132 116.146 200.792 112.545C200.95 111.677 200.48 110.665 199.495 110.855C198.791 110.991 198.14 111.727 197.761 112.301C196.536 114.221 195.682 116.15 193.957 117.722C193.88 117.795 192.809 118.933 192.298 119.62C192.298 119.051 192.276 118.441 192.298 117.786C192.642 116.896 193.056 116.035 193.536 115.21C194.819 113.033 197.038 111.542 198.465 109.437C198.917 108.79 199.288 106.649 197.774 107.39C197.101 107.72 196.419 108.908 195.967 109.477C194.612 111.099 193.256 112.843 192.479 114.84C192.479 114.65 192.515 114.46 192.529 114.271C193.368 112.354 194.359 110.508 195.493 108.75C197.372 105.854 199.437 103.834 199.27 102.425C199.102 101.015 196.559 103.78 194.539 107.394C193.636 109.033 193.01 110.81 192.687 112.653C192.872 110.765 193.085 108.858 193.301 107.024C193.678 105.135 194.485 103.359 195.66 101.833C197.593 99.5154 199.161 97.6088 199.184 95.5667C199.206 93.5247 198.389 94.2882 196.839 97.5094C195.777 99.7187 194.273 102.615 193.568 104.86C193.753 103.419 193.934 102.054 194.106 100.826C194.472 99.7367 195.461 96.9718 196.816 95.0336C198.524 92.5669 199.184 91.0444 198.077 91.085C197.309 91.1121 195.529 94.3831 194.571 97.5094C194.725 96.4658 194.851 95.6706 194.932 95.2008C194.969 94.99 195 94.7595 195.027 94.5096C196.162 92.2795 197.155 89.9799 198 87.6244C199.5 83.4996 199.631 79.7949 198.492 81.5478Z" fill="black"/>
<g opacity="0.6">
<path opacity="0.6" d="M198.492 81.5478C197.444 83.1607 196.297 90.5835 195.05 94.1978C195.113 93.6015 195.158 92.9419 195.19 92.2958C195.348 91.6543 195.578 90.9902 195.682 90.3983C195.836 89.4948 195.958 88.5912 196.03 87.6876C196.161 86.2558 196.121 84.8136 195.913 83.3911C195.698 81.7229 195.003 80.1532 193.911 78.8733C193.627 78.5525 191.874 76.6144 191.594 77.7845C191.563 77.9754 191.58 78.171 191.643 78.3537C192.118 80.1609 193.03 81.7376 193.704 83.4589C194.706 86.0341 194.95 90.57 195.014 92.4946C194.978 92.8063 194.932 93.1994 194.883 93.6466C194.684 90.2899 192.669 86.5672 191.237 86.0747C189.466 85.4693 191.571 88.5686 193.27 91.2929C194.057 92.4809 194.546 93.8418 194.693 95.2595C194.571 96.258 194.431 97.3739 194.282 98.5079C194.241 98.6705 194.205 98.8241 194.173 98.9822C194.209 98.2502 194.16 97.5166 194.029 96.7956C193.627 94.9116 190.911 91.4148 189.561 92.1648C188.21 92.9148 190.916 94.5683 192.565 96.7143C193.427 97.9051 193.9 99.333 193.92 100.803C193.92 100.889 193.92 100.975 193.92 101.06C193.844 101.58 193.767 102.081 193.69 102.556C193.509 103.667 193.347 104.715 193.188 105.718C193.35 104.249 193.298 102.764 193.035 101.309C192.443 98.544 190.424 96.1495 189.009 95.9914C187.595 95.8333 190.848 99.9988 192.091 102.429C192.78 103.854 193.091 105.431 192.994 107.01C192.782 108.456 192.583 109.879 192.393 111.384C192.228 109.476 191.911 107.585 191.445 105.727C190.726 102.664 188.585 100.948 187.329 101.21C186.073 101.472 187.654 103.044 190.04 106.545C191.297 108.385 192.051 110.522 192.226 112.744C192.149 113.376 192.073 114.027 191.996 114.704C191.91 115.477 191.865 116.313 191.856 117.162C191.562 116.448 191.128 115.405 190.636 114.262C190.071 112.995 189.604 111.687 189.24 110.349C188.833 108.79 188.129 106.875 186.457 106.283C186.34 106.227 186.213 106.197 186.084 106.195C185.955 106.192 185.826 106.218 185.708 106.269C185.589 106.32 185.483 106.397 185.396 106.493C185.31 106.589 185.244 106.702 185.205 106.825C185.109 107.186 185.131 107.567 185.269 107.914C185.883 109.866 187.329 111.601 188.454 113.281C189.489 114.823 190.624 116.296 191.851 117.691C191.851 118.472 191.874 119.258 191.914 120.022L191.205 119.57C190.365 119.028 187.821 114.772 186.308 112.929C184.794 111.086 182.328 110.882 183.565 113.313C184.803 115.743 190.342 119.227 190.342 119.227L191.923 120.257C192.091 123.275 192.47 125.827 192.47 125.827L193.491 125.999C193.491 125.999 192.542 124.422 192.326 120.329C192.66 119.875 193.043 119.46 193.469 119.091C195.782 116.932 200.132 116.146 200.792 112.545C200.95 111.677 200.48 110.665 199.495 110.855C198.791 110.991 198.14 111.727 197.761 112.301C196.536 114.221 195.682 116.15 193.957 117.722C193.88 117.795 192.809 118.933 192.298 119.62C192.298 119.051 192.276 118.441 192.298 117.786C192.642 116.896 193.056 116.035 193.536 115.21C194.819 113.033 197.038 111.542 198.465 109.437C198.917 108.79 199.288 106.649 197.774 107.39C197.101 107.72 196.419 108.908 195.967 109.477C194.612 111.099 193.256 112.843 192.479 114.84C192.479 114.65 192.515 114.46 192.529 114.271C193.368 112.354 194.359 110.508 195.493 108.75C197.372 105.854 199.437 103.834 199.27 102.425C199.102 101.015 196.559 103.78 194.539 107.394C193.636 109.033 193.01 110.81 192.687 112.653C192.872 110.765 193.085 108.858 193.301 107.024C193.678 105.135 194.485 103.359 195.66 101.833C197.593 99.5154 199.161 97.6088 199.184 95.5667C199.206 93.5247 198.389 94.2882 196.839 97.5094C195.777 99.7187 194.273 102.615 193.568 104.86C193.753 103.419 193.934 102.054 194.106 100.826C194.472 99.7367 195.461 96.9718 196.816 95.0336C198.524 92.5669 199.184 91.0444 198.077 91.085C197.309 91.1121 195.529 94.3831 194.571 97.5094C194.725 96.4658 194.851 95.6706 194.932 95.2008C194.969 94.99 195 94.7595 195.027 94.5096C196.162 92.2795 197.155 89.9799 198 87.6244C199.5 83.4996 199.631 79.7949 198.492 81.5478Z" fill="white"/>
</g>
<path d="M5.80152 97.7761C6.01386 99.1947 9.0363 103.925 10.1115 106.554C9.85403 106.188 9.55585 105.8 9.25316 105.42C9.02275 104.968 8.82396 104.494 8.58903 104.115C8.23212 103.532 7.85262 102.963 7.4415 102.416C6.80591 101.549 6.07046 100.761 5.25034 100.067C4.30795 99.2342 3.14271 98.6956 1.89809 98.517C1.57733 98.4809 -0.360833 98.2595 0.0593269 99.0501C0.135133 99.1741 0.242776 99.2755 0.371058 99.3438C1.52763 100.116 2.81522 100.555 4.04407 101.192C5.87832 102.113 8.25019 104.553 9.24412 105.587L9.73657 106.297C7.97009 104.512 5.00637 103.423 3.95823 103.853C2.66613 104.386 5.37684 105.086 7.67191 105.777C8.70097 106.05 9.64731 106.571 10.4278 107.295C10.8525 107.91 11.3314 108.61 11.7832 109.319C11.8374 109.428 11.8961 109.532 11.9548 109.635C11.6158 109.207 11.2276 108.821 10.7983 108.483C9.64169 107.625 6.39336 107.006 6.00482 108.09C5.61628 109.175 7.95653 108.763 9.93535 109.157C11.0066 109.398 11.978 109.963 12.7183 110.774C12.759 110.828 12.7997 110.873 12.8448 110.923C13.0572 111.248 13.2605 111.569 13.4502 111.872C13.902 112.586 14.3222 113.254 14.7423 113.9C14.1058 113.001 13.3453 112.197 12.4834 111.51C10.7892 110.25 8.47157 109.907 7.60414 110.516C6.73671 111.126 10.613 111.872 12.506 112.604C13.5946 113.063 14.5478 113.792 15.2755 114.723C15.8673 115.626 16.4591 116.53 17.0826 117.469C16.0498 116.477 14.9377 115.57 13.7575 114.759C11.8419 113.403 9.79982 113.489 9.2396 114.257C8.67939 115.025 10.3284 115.129 13.3915 115.911C15.0052 116.321 16.4834 117.146 17.679 118.305C17.9455 118.698 18.2256 119.1 18.5193 119.52C18.8714 120.019 19.2484 120.5 19.6487 120.962C19.1337 120.709 18.3792 120.338 17.5344 119.941C16.5938 119.509 15.6876 119.006 14.8237 118.436C13.8252 117.763 12.4879 117.04 11.2546 117.533C11.1614 117.556 11.0743 117.599 10.9993 117.659C10.9243 117.719 10.8633 117.794 10.8203 117.88C10.7774 117.966 10.7536 118.06 10.7505 118.156C10.7475 118.252 10.7653 118.348 10.8028 118.436C10.9317 118.702 11.1466 118.917 11.4127 119.046C12.7229 119.837 14.3854 120.094 15.8492 120.478C17.1857 120.832 18.544 121.098 19.9153 121.273C20.3038 121.725 20.7059 122.141 21.1035 122.547L20.48 122.642C19.7391 122.751 16.2152 121.626 14.4577 121.332C12.7003 121.038 11.2184 122.154 13.1024 122.904C14.9863 123.654 19.8159 122.873 19.8159 122.873L21.2119 122.669C22.7932 124.278 24.266 125.52 24.266 125.52L24.9211 125.114C24.9211 125.114 23.6154 124.698 21.4694 122.511C21.4344 122.093 21.445 121.672 21.5011 121.255C21.7315 118.902 23.76 116.313 22.373 113.973C22.0342 113.408 21.2706 113.069 20.8098 113.665C20.5242 114.171 20.4327 114.764 20.5523 115.332C20.8143 117.013 21.2887 118.495 21.099 120.243C21.099 120.325 21.0538 121.49 21.099 122.123C20.8098 121.816 20.5071 121.477 20.1954 121.102C19.9492 120.433 19.7558 119.745 19.6171 119.046C19.2647 117.194 19.7707 115.26 19.5313 113.381C19.4545 112.802 18.6277 111.411 18.1307 112.572C17.9184 113.087 18.1307 114.09 18.1307 114.646C18.0983 116.247 18.3335 117.843 18.8265 119.367C18.7406 119.254 18.6548 119.141 18.5735 119.024C18.1042 117.543 17.7538 116.028 17.5253 114.492C17.1504 111.944 17.313 109.794 16.5224 109.071C15.7318 108.348 15.6685 111.19 16.3146 114.176C16.6188 115.542 17.1454 116.848 17.8732 118.043C17.0465 116.891 16.2242 115.721 15.4426 114.582C14.7219 113.34 14.2968 111.949 14.2002 110.516C14.1415 108.257 14.0737 106.423 13.0798 105.267C12.0858 104.11 12.0045 104.941 12.7274 107.526C13.2243 109.288 13.8072 111.65 14.5345 113.259C13.9291 112.355 13.3554 111.506 12.8448 110.733C12.2011 109.267 11.7457 107.724 11.4895 106.143C11.232 103.92 10.8525 102.741 10.2471 103.31C9.83144 103.703 10.4504 106.414 11.4579 108.641C11.0061 107.977 10.7034 107.471 10.5182 107.169C10.4338 107.033 10.3389 106.883 10.2335 106.717C9.77884 104.908 9.21149 103.129 8.53482 101.39C7.34662 98.3498 5.57563 96.2084 5.80152 97.7761Z" fill="black"/>
<path opacity="0.6" d="M5.80152 97.7761C6.01386 99.1947 9.0363 103.925 10.1115 106.554C9.85403 106.188 9.55585 105.8 9.25316 105.42C9.02275 104.968 8.82396 104.494 8.58903 104.115C8.23212 103.532 7.85262 102.963 7.4415 102.416C6.80591 101.549 6.07046 100.761 5.25034 100.067C4.30795 99.2342 3.14271 98.6956 1.89809 98.517C1.57733 98.4809 -0.360833 98.2595 0.0593269 99.0501C0.135133 99.1741 0.242776 99.2755 0.371058 99.3438C1.52763 100.116 2.81522 100.555 4.04407 101.192C5.87832 102.113 8.25019 104.553 9.24412 105.587L9.73657 106.297C7.97009 104.512 5.00637 103.423 3.95823 103.853C2.66613 104.386 5.37684 105.086 7.67191 105.777C8.70097 106.05 9.64731 106.571 10.4278 107.295C10.8525 107.91 11.3314 108.61 11.7832 109.319C11.8374 109.428 11.8961 109.532 11.9548 109.635C11.6158 109.207 11.2276 108.821 10.7983 108.483C9.64169 107.625 6.39336 107.006 6.00482 108.09C5.61628 109.175 7.95653 108.763 9.93535 109.157C11.0066 109.398 11.978 109.963 12.7183 110.774C12.759 110.828 12.7997 110.873 12.8448 110.923C13.0572 111.248 13.2605 111.569 13.4502 111.872C13.902 112.586 14.3222 113.254 14.7423 113.9C14.1058 113.001 13.3453 112.197 12.4834 111.51C10.7892 110.25 8.47157 109.907 7.60414 110.516C6.73671 111.126 10.613 111.872 12.506 112.604C13.5946 113.063 14.5478 113.792 15.2755 114.723C15.8673 115.626 16.4591 116.53 17.0826 117.469C16.0498 116.477 14.9377 115.57 13.7575 114.759C11.8419 113.403 9.79982 113.489 9.2396 114.257C8.67939 115.025 10.3284 115.129 13.3915 115.911C15.0052 116.321 16.4834 117.146 17.679 118.305C17.9455 118.698 18.2256 119.1 18.5193 119.52C18.8714 120.019 19.2484 120.5 19.6487 120.962C19.1337 120.709 18.3792 120.338 17.5344 119.941C16.5938 119.509 15.6876 119.006 14.8237 118.436C13.8252 117.763 12.4879 117.04 11.2546 117.533C11.1614 117.556 11.0743 117.599 10.9993 117.659C10.9243 117.719 10.8633 117.794 10.8203 117.88C10.7774 117.966 10.7536 118.06 10.7505 118.156C10.7475 118.252 10.7653 118.348 10.8028 118.436C10.9317 118.702 11.1466 118.917 11.4127 119.046C12.7229 119.837 14.3854 120.094 15.8492 120.478C17.1857 120.832 18.544 121.098 19.9153 121.273C20.3038 121.725 20.7059 122.141 21.1035 122.547L20.48 122.642C19.7391 122.751 16.2152 121.626 14.4577 121.332C12.7003 121.038 11.2184 122.154 13.1024 122.904C14.9863 123.654 19.8159 122.873 19.8159 122.873L21.2119 122.669C22.7932 124.278 24.266 125.52 24.266 125.52L24.9211 125.114C24.9211 125.114 23.6154 124.698 21.4694 122.511C21.4344 122.093 21.445 121.672 21.5011 121.255C21.7315 118.902 23.76 116.313 22.373 113.973C22.0342 113.408 21.2706 113.069 20.8098 113.665C20.5242 114.171 20.4327 114.764 20.5523 115.332C20.8143 117.013 21.2887 118.495 21.099 120.243C21.099 120.325 21.0538 121.49 21.099 122.123C20.8098 121.816 20.5071 121.477 20.1954 121.102C19.9492 120.433 19.7558 119.745 19.6171 119.046C19.2647 117.194 19.7707 115.26 19.5313 113.381C19.4545 112.802 18.6277 111.411 18.1307 112.572C17.9184 113.087 18.1307 114.09 18.1307 114.646C18.0983 116.247 18.3335 117.843 18.8265 119.367C18.7406 119.254 18.6548 119.141 18.5735 119.024C18.1042 117.543 17.7538 116.028 17.5253 114.492C17.1504 111.944 17.313 109.794 16.5224 109.071C15.7318 108.348 15.6685 111.19 16.3146 114.176C16.6188 115.542 17.1454 116.848 17.8732 118.043C17.0465 116.891 16.2242 115.721 15.4426 114.582C14.7219 113.34 14.2968 111.949 14.2002 110.516C14.1415 108.257 14.0737 106.423 13.0798 105.267C12.0858 104.11 12.0045 104.941 12.7274 107.526C13.2243 109.288 13.8072 111.65 14.5345 113.259C13.9291 112.355 13.3554 111.506 12.8448 110.733C12.2011 109.267 11.7457 107.724 11.4895 106.143C11.232 103.92 10.8525 102.741 10.2471 103.31C9.83144 103.703 10.4504 106.414 11.4579 108.641C11.0061 107.977 10.7034 107.471 10.5182 107.169C10.4338 107.033 10.3389 106.883 10.2335 106.717C9.77884 104.908 9.21149 103.129 8.53482 101.39C7.34662 98.3498 5.57563 96.2084 5.80152 97.7761Z" fill="white"/>
<path d="M38.5198 96.6557C37.3135 97.4328 34.2549 102.136 32.3032 104.205C32.5291 103.817 32.755 103.383 32.9809 102.954C33.2836 102.561 33.645 102.181 33.8844 101.811C34.2685 101.241 34.6299 100.659 34.9597 100.058C35.4852 99.1229 35.8991 98.1297 36.1931 97.0985C36.5655 95.8961 36.5749 94.6106 36.2202 93.4029C36.1253 93.0956 35.5244 91.2388 34.9778 91.9526C34.8968 92.0721 34.8485 92.2108 34.8377 92.3547C34.6073 93.7101 34.7428 95.0654 34.6705 96.4614C34.5666 98.5216 33.3423 101.684 32.7911 103.021C32.6737 103.22 32.5246 103.473 32.3393 103.762C33.2429 101.418 33.0035 98.2686 32.1812 97.4915C31.1602 96.5337 31.6436 99.2986 31.9644 101.666C32.1363 102.717 32.051 103.795 31.7159 104.806C31.3273 105.443 30.8891 106.161 30.4418 106.889L30.2205 107.178C30.4869 106.694 30.6946 106.18 30.8394 105.646C31.1421 104.241 30.3876 101.029 29.2175 101.128C28.0474 101.228 29.4118 103.179 29.8681 105.145C30.0936 106.22 29.9799 107.34 29.5428 108.348L29.4615 108.524C29.2491 108.854 29.0458 109.17 28.847 109.468C28.3952 110.173 27.9435 110.824 27.5278 111.479C28.0877 110.529 28.5077 109.503 28.7747 108.434C29.2265 106.369 28.5805 104.119 27.6679 103.577C26.7553 103.035 27.6679 106.871 27.7899 108.904C27.8209 110.085 27.5487 111.255 26.9992 112.301C26.4119 113.205 25.8427 114.108 25.2508 115.093C25.7188 113.742 26.0769 112.355 26.3216 110.946C26.7733 108.642 25.8427 106.816 24.903 106.613C23.9632 106.41 24.5596 107.968 25.1108 111.077C25.4035 112.716 25.2618 114.403 24.6996 115.97C24.4512 116.376 24.2027 116.796 23.9406 117.235C23.6786 117.673 23.3624 118.287 23.0913 118.865C23.0913 118.287 23.1365 117.447 23.15 116.516C23.1557 115.48 23.2388 114.445 23.3985 113.421C23.6018 112.238 23.7102 110.711 22.7525 109.807C22.6906 109.732 22.6129 109.672 22.5251 109.631C22.4372 109.589 22.3413 109.568 22.2442 109.568C22.1471 109.568 22.0512 109.589 21.9633 109.631C21.8755 109.672 21.7978 109.732 21.7359 109.807C21.559 110.022 21.4575 110.288 21.4468 110.566C21.2661 112.089 21.7179 113.729 21.9663 115.201C22.1989 116.576 22.5203 117.934 22.9286 119.268C22.6892 119.796 22.4769 120.343 22.2555 120.871L21.9121 120.343C21.51 119.715 21.0808 116.037 20.62 114.316C20.1592 112.595 18.5328 111.705 18.6322 113.738C18.7316 115.771 21.4332 119.846 21.4332 119.846L22.1968 121.03C21.3835 123.13 20.8414 124.987 20.8414 124.987L21.4784 125.416C21.4784 125.416 21.3203 124.061 22.4272 121.201C22.7992 120.976 23.1965 120.796 23.6108 120.664C25.8698 119.905 29.0323 120.7 30.6045 118.454C30.9795 117.912 30.9704 117.099 30.2431 116.905C29.6639 116.851 29.085 117.012 28.6166 117.357C27.1935 118.287 26.0234 119.34 24.3653 119.877C24.2885 119.905 23.2133 120.352 22.6531 120.659C22.8157 120.271 23.0009 119.85 23.2133 119.412C23.7183 118.916 24.2639 118.462 24.8442 118.057C26.3848 116.968 28.3546 116.634 29.972 115.635C30.4644 115.333 31.3861 113.991 30.1301 114.031C29.5699 114.031 28.7431 114.65 28.2462 114.894C26.7732 115.525 25.4157 116.397 24.2298 117.474C24.2976 117.352 24.3653 117.225 24.4376 117.104C25.5894 116.049 26.8237 115.088 28.1287 114.23C30.2973 112.839 32.3213 112.098 32.6465 111.068C32.9718 110.038 30.3876 111.163 27.9118 112.988C26.7926 113.826 25.8201 114.845 25.034 116.001C25.7388 114.772 26.4706 113.539 27.1799 112.36C28.0203 111.194 29.1179 110.237 30.3876 109.563C32.4207 108.578 34.0697 107.756 34.7112 106.401C35.3527 105.045 34.5621 105.289 32.52 107.006C31.1195 108.185 29.2085 109.69 28.0383 111.004C28.6076 110.101 29.1497 109.197 29.6422 108.425C30.7106 107.239 31.9251 106.193 33.2565 105.312C35.1765 104.16 36.0937 103.324 35.3256 103.012C34.7925 102.795 32.5788 104.476 30.9659 106.31L31.9192 104.851C32.0095 104.716 32.1044 104.566 32.1993 104.399C33.6542 103.239 35.0348 101.988 36.3331 100.654C38.6146 98.2912 39.839 95.8109 38.5198 96.6557Z" fill="black"/>
<path opacity="0.6" d="M38.5198 96.6557C37.3135 97.4328 34.2549 102.136 32.3032 104.205C32.5291 103.817 32.755 103.383 32.9809 102.954C33.2836 102.561 33.645 102.181 33.8844 101.811C34.2685 101.241 34.6299 100.659 34.9597 100.058C35.4852 99.1229 35.8991 98.1297 36.1931 97.0985C36.5655 95.8961 36.5749 94.6106 36.2202 93.4029C36.1253 93.0956 35.5244 91.2388 34.9778 91.9526C34.8968 92.0721 34.8485 92.2108 34.8377 92.3547C34.6073 93.7101 34.7428 95.0654 34.6705 96.4614C34.5666 98.5216 33.3423 101.684 32.7911 103.021C32.6737 103.22 32.5246 103.473 32.3393 103.762C33.2429 101.418 33.0035 98.2686 32.1812 97.4915C31.1602 96.5337 31.6436 99.2986 31.9644 101.666C32.1363 102.717 32.051 103.795 31.7159 104.806C31.3273 105.443 30.8891 106.161 30.4418 106.889L30.2205 107.178C30.4869 106.694 30.6946 106.18 30.8394 105.646C31.1421 104.241 30.3876 101.029 29.2175 101.128C28.0474 101.228 29.4118 103.179 29.8681 105.145C30.0936 106.22 29.9799 107.34 29.5428 108.348L29.4615 108.524C29.2491 108.854 29.0458 109.17 28.847 109.468C28.3952 110.173 27.9435 110.824 27.5278 111.479C28.0877 110.529 28.5077 109.503 28.7747 108.434C29.2265 106.369 28.5805 104.119 27.6679 103.577C26.7553 103.035 27.6679 106.871 27.7899 108.904C27.8209 110.085 27.5487 111.255 26.9992 112.301C26.4119 113.205 25.8427 114.108 25.2508 115.093C25.7188 113.742 26.0769 112.355 26.3216 110.946C26.7733 108.642 25.8427 106.816 24.903 106.613C23.9632 106.41 24.5596 107.968 25.1108 111.077C25.4035 112.716 25.2618 114.403 24.6996 115.97C24.4512 116.376 24.2027 116.796 23.9406 117.235C23.6786 117.673 23.3624 118.287 23.0913 118.865C23.0913 118.287 23.1365 117.447 23.15 116.516C23.1557 115.48 23.2388 114.445 23.3985 113.421C23.6018 112.238 23.7102 110.711 22.7525 109.807C22.6906 109.732 22.6129 109.672 22.5251 109.631C22.4372 109.589 22.3413 109.568 22.2442 109.568C22.1471 109.568 22.0512 109.589 21.9633 109.631C21.8755 109.672 21.7978 109.732 21.7359 109.807C21.559 110.022 21.4575 110.288 21.4468 110.566C21.2661 112.089 21.7179 113.729 21.9663 115.201C22.1989 116.576 22.5203 117.934 22.9286 119.268C22.6892 119.796 22.4769 120.343 22.2555 120.871L21.9121 120.343C21.51 119.715 21.0808 116.037 20.62 114.316C20.1592 112.595 18.5328 111.705 18.6322 113.738C18.7316 115.771 21.4332 119.846 21.4332 119.846L22.1968 121.03C21.3835 123.13 20.8414 124.987 20.8414 124.987L21.4784 125.416C21.4784 125.416 21.3203 124.061 22.4272 121.201C22.7992 120.976 23.1965 120.796 23.6108 120.664C25.8698 119.905 29.0323 120.7 30.6045 118.454C30.9795 117.912 30.9704 117.099 30.2431 116.905C29.6639 116.851 29.085 117.012 28.6166 117.357C27.1935 118.287 26.0234 119.34 24.3653 119.877C24.2885 119.905 23.2133 120.352 22.6531 120.659C22.8157 120.271 23.0009 119.85 23.2133 119.412C23.7183 118.916 24.2639 118.462 24.8442 118.057C26.3848 116.968 28.3546 116.634 29.972 115.635C30.4644 115.333 31.3861 113.991 30.1301 114.031C29.5699 114.031 28.7431 114.65 28.2462 114.894C26.7732 115.525 25.4157 116.397 24.2298 117.474C24.2976 117.352 24.3653 117.225 24.4376 117.104C25.5894 116.049 26.8237 115.088 28.1287 114.23C30.2973 112.839 32.3213 112.098 32.6465 111.068C32.9718 110.038 30.3876 111.163 27.9118 112.988C26.7926 113.826 25.8201 114.845 25.034 116.001C25.7388 114.772 26.4706 113.539 27.1799 112.36C28.0203 111.194 29.1179 110.237 30.3876 109.563C32.4207 108.578 34.0697 107.756 34.7112 106.401C35.3527 105.045 34.5621 105.289 32.52 107.006C31.1195 108.185 29.2085 109.69 28.0383 111.004C28.6076 110.101 29.1497 109.197 29.6422 108.425C30.7106 107.239 31.9251 106.193 33.2565 105.312C35.1765 104.16 36.0937 103.324 35.3256 103.012C34.7925 102.795 32.5788 104.476 30.9659 106.31L31.9192 104.851C32.0095 104.716 32.1044 104.566 32.1993 104.399C33.6542 103.239 35.0348 101.988 36.3331 100.654C38.6146 98.2912 39.839 95.8109 38.5198 96.6557Z" fill="white"/>
<path d="M51.7661 96.7777C50.5553 97.5592 47.4967 102.262 45.545 104.327C45.7709 103.943 45.9968 103.509 46.2227 103.076C46.5254 102.687 46.8868 102.303 47.1263 101.937C47.5103 101.368 47.8717 100.785 48.2015 100.184C48.7262 99.249 49.1402 98.2559 49.4349 97.2249C49.8067 96.0227 49.8176 94.7378 49.4665 93.5293C49.3671 93.2221 48.7663 91.3653 48.2196 92.0746C48.1392 92.196 48.091 92.3359 48.0795 92.4812C47.8536 93.8365 47.9847 95.1919 47.9124 96.5834C47.8085 98.648 46.5841 101.811 46.033 103.148C45.9155 103.347 45.7664 103.6 45.5812 103.889C46.4847 101.539 46.2498 98.3905 45.423 97.618C44.402 96.6602 44.8854 99.4251 45.2062 101.792C45.3809 102.842 45.2955 103.919 44.9577 104.928C44.5692 105.569 44.1309 106.283 43.6837 107.015C43.6069 107.11 43.5346 107.209 43.4623 107.304C43.7131 106.818 43.9057 106.304 44.0361 105.773C44.3433 104.368 43.5843 101.155 42.4142 101.255C41.244 101.354 42.6084 103.306 43.0647 105.271C43.2907 106.345 43.1771 107.463 42.7394 108.47L42.6581 108.651C42.4458 108.976 42.2425 109.297 42.0437 109.595C41.5919 110.295 41.1401 110.95 40.7245 111.605C41.2851 110.654 41.7051 109.627 41.9714 108.556C42.4232 106.496 41.7771 104.246 40.8645 103.704C39.9519 103.161 40.8871 106.997 40.9865 109.03C41.0175 110.211 40.7453 111.381 40.1959 112.427C39.6086 113.331 39.0393 114.235 38.4475 115.22C38.9208 113.87 39.2849 112.485 39.5363 111.077C39.9881 108.773 39.0574 106.947 38.1177 106.744C37.178 106.541 37.7743 108.099 38.33 111.208C38.619 112.847 38.4758 114.533 37.9144 116.101C37.6659 116.507 37.4174 116.927 37.1554 117.365C36.8933 117.804 36.5771 118.418 36.306 118.992C36.306 118.418 36.3512 117.578 36.3647 116.643C36.3706 115.608 36.4537 114.575 36.6132 113.552C36.8165 112.369 36.925 110.842 35.9672 109.938C35.9053 109.863 35.8276 109.803 35.7398 109.762C35.6519 109.72 35.556 109.699 35.4589 109.699C35.3618 109.699 35.2659 109.72 35.1781 109.762C35.0902 109.803 35.0125 109.863 34.9507 109.938C34.7738 110.153 34.6722 110.419 34.6615 110.697C34.4808 112.215 34.9326 113.86 35.1811 115.332C35.4139 116.698 35.7353 118.047 36.1434 119.371C35.9039 119.905 35.6916 120.447 35.4702 120.98L35.1269 120.447C34.7248 119.819 34.2956 116.146 33.8347 114.424C33.3739 112.703 31.7475 111.813 31.8469 113.846C31.9463 115.879 34.648 119.95 34.648 119.95L35.4115 121.133C34.5983 123.239 34.0561 125.096 34.0561 125.096L34.6931 125.525C34.6931 125.525 34.535 124.169 35.6419 121.31C36.0079 121.102 36.3958 120.935 36.7985 120.813C39.0574 120.054 42.2199 120.853 43.7921 118.608C44.1671 118.061 44.158 117.23 43.4307 117.058C42.8513 117.002 42.2717 117.163 41.8042 117.51C40.3811 118.441 39.211 119.493 37.5529 120.031C37.4761 120.054 36.4009 120.505 35.8407 120.813C36.0033 120.42 36.1885 120.004 36.4009 119.561C36.907 119.066 37.4525 118.613 38.0318 118.206C39.5769 117.117 41.5422 116.783 43.1596 115.784C43.6566 115.482 44.5737 114.14 43.3177 114.176C42.7575 114.176 41.9307 114.799 41.4338 115.039C39.9615 115.673 38.6043 116.546 37.4174 117.623L37.6252 117.248C38.784 116.201 40.0243 115.248 41.3344 114.397C43.503 113.001 45.5269 112.265 45.8522 111.235C46.1775 110.205 43.5933 111.33 41.1175 113.155C39.9983 113.993 39.0258 115.012 38.2397 116.168C38.9444 114.939 39.6763 113.706 40.3856 112.522C41.2218 111.354 42.3144 110.393 43.5798 109.712C45.6128 108.727 47.2618 107.905 47.9033 106.527C48.5449 105.149 47.7543 105.411 45.7122 107.133C44.3116 108.307 42.4006 109.816 41.2305 111.131C41.7997 110.205 42.3419 109.324 42.8343 108.547C43.9043 107.363 45.1185 106.319 46.4486 105.438C48.3687 104.282 49.2858 103.451 48.5178 103.139C47.9847 102.922 45.7709 104.603 44.158 106.437C44.6098 105.773 44.917 105.271 45.1113 104.978C45.2017 104.842 45.2965 104.693 45.3914 104.526C46.8473 103.366 48.2294 102.117 49.5298 100.785C51.8519 98.4176 53.0763 95.9373 51.7661 96.7777Z" fill="black"/>
<path opacity="0.6" d="M51.7661 96.7777C50.5553 97.5592 47.4967 102.262 45.545 104.327C45.7709 103.943 45.9968 103.509 46.2227 103.076C46.5254 102.687 46.8868 102.303 47.1263 101.937C47.5103 101.368 47.8717 100.785 48.2015 100.184C48.7262 99.249 49.1402 98.2559 49.4349 97.2249C49.8067 96.0227 49.8176 94.7378 49.4665 93.5293C49.3671 93.2221 48.7663 91.3653 48.2196 92.0746C48.1392 92.196 48.091 92.3359 48.0795 92.4812C47.8536 93.8365 47.9847 95.1919 47.9124 96.5834C47.8085 98.648 46.5841 101.811 46.033 103.148C45.9155 103.347 45.7664 103.6 45.5812 103.889C46.4847 101.539 46.2498 98.3905 45.423 97.618C44.402 96.6602 44.8854 99.4251 45.2062 101.792C45.3809 102.842 45.2955 103.919 44.9577 104.928C44.5692 105.569 44.1309 106.283 43.6837 107.015C43.6069 107.11 43.5346 107.209 43.4623 107.304C43.7131 106.818 43.9057 106.304 44.0361 105.773C44.3433 104.368 43.5843 101.155 42.4142 101.255C41.244 101.354 42.6084 103.306 43.0647 105.271C43.2907 106.345 43.1771 107.463 42.7394 108.47L42.6581 108.651C42.4458 108.976 42.2425 109.297 42.0437 109.595C41.5919 110.295 41.1401 110.95 40.7245 111.605C41.2851 110.654 41.7051 109.627 41.9714 108.556C42.4232 106.496 41.7771 104.246 40.8645 103.704C39.9519 103.161 40.8871 106.997 40.9865 109.03C41.0175 110.211 40.7453 111.381 40.1959 112.427C39.6086 113.331 39.0393 114.235 38.4475 115.22C38.9208 113.87 39.2849 112.485 39.5363 111.077C39.9881 108.773 39.0574 106.947 38.1177 106.744C37.178 106.541 37.7743 108.099 38.33 111.208C38.619 112.847 38.4758 114.533 37.9144 116.101C37.6659 116.507 37.4174 116.927 37.1554 117.365C36.8933 117.804 36.5771 118.418 36.306 118.992C36.306 118.418 36.3512 117.578 36.3647 116.643C36.3706 115.608 36.4537 114.575 36.6132 113.552C36.8165 112.369 36.925 110.842 35.9672 109.938C35.9053 109.863 35.8276 109.803 35.7398 109.762C35.6519 109.72 35.556 109.699 35.4589 109.699C35.3618 109.699 35.2659 109.72 35.1781 109.762C35.0902 109.803 35.0125 109.863 34.9507 109.938C34.7738 110.153 34.6722 110.419 34.6615 110.697C34.4808 112.215 34.9326 113.86 35.1811 115.332C35.4139 116.698 35.7353 118.047 36.1434 119.371C35.9039 119.905 35.6916 120.447 35.4702 120.98L35.1269 120.447C34.7248 119.819 34.2956 116.146 33.8347 114.424C33.3739 112.703 31.7475 111.813 31.8469 113.846C31.9463 115.879 34.648 119.95 34.648 119.95L35.4115 121.133C34.5983 123.239 34.0561 125.096 34.0561 125.096L34.6931 125.525C34.6931 125.525 34.535 124.169 35.6419 121.31C36.0079 121.102 36.3958 120.935 36.7985 120.813C39.0574 120.054 42.2199 120.853 43.7921 118.608C44.1671 118.061 44.158 117.23 43.4307 117.058C42.8513 117.002 42.2717 117.163 41.8042 117.51C40.3811 118.441 39.211 119.493 37.5529 120.031C37.4761 120.054 36.4009 120.505 35.8407 120.813C36.0033 120.42 36.1885 120.004 36.4009 119.561C36.907 119.066 37.4525 118.613 38.0318 118.206C39.5769 117.117 41.5422 116.783 43.1596 115.784C43.6566 115.482 44.5737 114.14 43.3177 114.176C42.7575 114.176 41.9307 114.799 41.4338 115.039C39.9615 115.673 38.6043 116.546 37.4174 117.623L37.6252 117.248C38.784 116.201 40.0243 115.248 41.3344 114.397C43.503 113.001 45.5269 112.265 45.8522 111.235C46.1775 110.205 43.5933 111.33 41.1175 113.155C39.9983 113.993 39.0258 115.012 38.2397 116.168C38.9444 114.939 39.6763 113.706 40.3856 112.522C41.2218 111.354 42.3144 110.393 43.5798 109.712C45.6128 108.727 47.2618 107.905 47.9033 106.527C48.5449 105.149 47.7543 105.411 45.7122 107.133C44.3116 108.307 42.4006 109.816 41.2305 111.131C41.7997 110.205 42.3419 109.324 42.8343 108.547C43.9043 107.363 45.1185 106.319 46.4486 105.438C48.3687 104.282 49.2858 103.451 48.5178 103.139C47.9847 102.922 45.7709 104.603 44.158 106.437C44.6098 105.773 44.917 105.271 45.1113 104.978C45.2017 104.842 45.2965 104.693 45.3914 104.526C46.8473 103.366 48.2294 102.117 49.5298 100.785C51.8519 98.4176 53.0763 95.9373 51.7661 96.7777Z" fill="white"/>
<path d="M192.33 11.2095C192.33 11.2095 190.6 6.23983 185.621 6.01845C180.642 5.79708 181.51 10.5634 178.049 11.86C174.588 13.1567 173.287 9.47913 170.256 10.3466C167.224 11.214 169.176 13.5904 166.578 14.4578C163.981 15.3252 164.197 12.9443 160.303 14.9096C156.409 16.8749 155.541 17.5073 154.674 17.7242C153.806 17.9411 146.018 19.2377 146.018 19.2377H199.907C199.907 19.2377 201.425 14.4759 198.393 12.5287C195.362 10.5815 195.578 12.9443 192.33 11.2095Z" fill="black"/>
<path opacity="0.7" d="M192.33 11.2095C192.33 11.2095 190.6 6.23983 185.621 6.01845C180.642 5.79708 181.51 10.5634 178.049 11.86C174.588 13.1567 173.287 9.47913 170.256 10.3466C167.224 11.214 169.176 13.5904 166.578 14.4578C163.981 15.3252 164.197 12.9443 160.303 14.9096C156.409 16.8749 155.541 17.5073 154.674 17.7242C153.806 17.9411 146.018 19.2377 146.018 19.2377H199.907C199.907 19.2377 201.425 14.4759 198.393 12.5287C195.362 10.5815 195.578 12.9443 192.33 11.2095Z" fill="white"/>
<path d="M93.3078 3.16772C93.3078 3.16772 92.2552 0.149798 89.2418 0.00522691C86.2283 -0.139344 86.7524 2.7566 84.6516 3.54722C82.5508 4.33785 81.7647 2.10151 79.9259 2.64365C78.0872 3.1858 79.2709 4.61344 77.6986 5.13751C76.1264 5.66158 76.2529 4.23394 73.8901 5.39954C71.5273 6.56515 71.0077 6.97627 70.4791 7.10729C69.9505 7.23831 65.2339 8.01086 65.2339 8.01086H97.9025C97.9025 8.01086 98.806 5.12395 96.9989 3.94479C95.1918 2.76564 95.2731 4.21587 93.3078 3.16772Z" fill="black"/>
<path opacity="0.8" d="M93.3078 3.16772C93.3078 3.16772 92.2552 0.149798 89.2418 0.00522691C86.2283 -0.139344 86.7524 2.7566 84.6516 3.54722C82.5508 4.33785 81.7647 2.10151 79.9259 2.64365C78.0872 3.1858 79.2709 4.61344 77.6986 5.13751C76.1264 5.66158 76.2529 4.23394 73.8901 5.39954C71.5273 6.56515 71.0077 6.97627 70.4791 7.10729C69.9505 7.23831 65.2339 8.01086 65.2339 8.01086H97.9025C97.9025 8.01086 98.806 5.12395 96.9989 3.94479C95.1918 2.76564 95.2731 4.21587 93.3078 3.16772Z" fill="white"/>
<path d="M38.3526 56.2118C38.3526 56.2118 36.9385 52.1457 32.877 51.974C28.8154 51.8023 29.5157 55.6832 26.6921 56.7449C23.8684 57.8066 22.8022 54.7977 20.3309 55.507C17.8597 56.2163 19.4273 58.1544 17.3265 58.8638C15.2257 59.5731 15.3839 57.6259 12.2033 59.2161C9.02273 60.8064 8.31795 61.335 7.60865 61.5157C6.89934 61.6965 0.542725 62.7491 0.542725 62.7491H44.5376C44.5376 62.7491 45.7709 58.8638 43.2997 57.2735C40.8284 55.6832 41.0001 57.6349 38.3526 56.2118Z" fill="black"/>
<g opacity="0.7">
<path opacity="0.7" d="M38.3526 56.2118C38.3526 56.2118 36.9385 52.1457 32.877 51.974C28.8154 51.8023 29.5157 55.6832 26.6921 56.7449C23.8684 57.8066 22.8022 54.7977 20.3309 55.507C17.8597 56.2163 19.4273 58.1544 17.3265 58.8638C15.2257 59.5731 15.3839 57.6259 12.2033 59.2161C9.02273 60.8064 8.31795 61.335 7.60865 61.5157C6.89934 61.6965 0.542725 62.7491 0.542725 62.7491H44.5376C44.5376 62.7491 45.7709 58.8638 43.2997 57.2735C40.8284 55.6832 41.0001 57.6349 38.3526 56.2118Z" fill="white"/>
</g>
<path d="M90.6107 136.856C117.074 136.856 138.527 135.335 138.527 133.458C138.527 131.582 117.074 130.061 90.6107 130.061C64.1472 130.061 42.6943 131.582 42.6943 133.458C42.6943 135.335 64.1472 136.856 90.6107 136.856Z" fill="black"/>
<path d="M135.509 131.199C150.512 131.199 162.675 130.439 162.675 129.5C162.675 128.562 150.512 127.802 135.509 127.802C120.506 127.802 108.343 128.562 108.343 129.5C108.343 130.439 120.506 131.199 135.509 131.199Z" fill="black"/>
<g opacity="0.6">
<path opacity="0.6" d="M90.6107 136.856C117.074 136.856 138.527 135.335 138.527 133.458C138.527 131.582 117.074 130.061 90.6107 130.061C64.1472 130.061 42.6943 131.582 42.6943 133.458C42.6943 135.335 64.1472 136.856 90.6107 136.856Z" fill="white"/>
<path opacity="0.6" d="M135.509 131.199C150.512 131.199 162.675 130.439 162.675 129.5C162.675 128.562 150.512 127.802 135.509 127.802C120.506 127.802 108.343 128.562 108.343 129.5C108.343 130.439 120.506 131.199 135.509 131.199Z" fill="white"/>
</g>
<path d="M90.2628 82.7995L98.6886 76.7637" stroke="#263238" stroke-width="0.835087" stroke-linecap="round" stroke-linejoin="round"/>
<path d="M116.895 124.73L116.421 130.083C116.421 130.083 114.022 131.136 114.027 131.488C114.031 131.841 114.478 132.324 116.435 132.324C118.391 132.324 119.028 131.583 119.028 131.027C119.028 130.472 123.193 125.841 123.193 125.841C123.296 125.563 123.324 125.263 123.276 124.971C123.227 124.679 123.104 124.404 122.918 124.174C122.267 123.433 120.044 123.343 120.044 123.343L116.895 124.73Z" fill="black"/>
<path d="M114.031 131.845C114.031 131.845 117.289 131.633 118.161 131.136C119.033 130.639 122.136 125.913 122.385 125.538C122.547 125.232 122.633 124.891 122.633 124.544" stroke="#263238" stroke-width="0.417543" stroke-linecap="round" stroke-linejoin="round"/>
<path d="M121.07 123.419C121.07 123.419 123.713 123.921 123.46 125.055C123.207 126.189 119.06 131.217 118.432 131.832C117.804 132.446 113.914 132.46 114.031 131.832C114.149 131.204 116.421 130.07 116.421 130.07L117.176 125.552" stroke="#263238" stroke-width="0.835087" stroke-linecap="round" stroke-linejoin="round"/>
<path d="M65.4101 129.08L57.6304 132.88C57.6304 132.88 56.6139 133.621 58.6514 133.621C60.689 133.621 71.4279 133.711 71.4279 133.711C71.4279 133.711 72.6342 133.991 72.9098 133.436C73.3616 132.532 73.5603 131.954 73.2802 131.674C73.0001 131.393 65.4101 129.08 65.4101 129.08Z" fill="black"/>
<path d="M58.3622 132.749H72.1642" stroke="#263238" stroke-width="0.417543" stroke-linecap="round" stroke-linejoin="round"/>
<path d="M64.886 129.564C64.886 129.564 56.9617 132.961 57.0882 133.336C57.2147 133.711 65.1345 133.716 68.1524 133.716C71.1703 133.716 73.3118 133.842 73.3118 133.088" stroke="#263238" stroke-width="0.835087" stroke-linecap="round" stroke-linejoin="round"/>
<path d="M121.07 123.42L94.9162 104.305L94.0126 85.063C93.0487 85.9113 91.9609 86.6076 90.7869 87.1277C89.1695 87.7466 79.7994 92.4813 79.7994 92.4813C79.7994 92.4813 83.9513 107.196 84.7058 108.456C85.4603 109.717 117.153 125.557 117.153 125.557L121.07 123.42Z" fill="#263238"/>
<path d="M73.3073 132.333C73.3073 132.333 72.2998 132.08 71.1704 131.827C70.0409 131.574 64.8815 129.568 64.8815 129.568C64.7794 129.158 64.7368 128.735 64.755 128.312C64.7683 128.04 64.8431 127.774 64.9737 127.534C65.1044 127.295 65.2876 127.088 65.5095 126.93C65.5095 126.93 45.8885 100.771 45.387 100.017C44.8855 99.2624 45.2605 98.0019 48.6579 95.3635C52.0554 92.725 74.2832 79.1579 74.2832 79.1579C73.4293 78.1459 75.0377 77.5225 75.0377 77.5225L77.0526 78.1504L90.2583 82.8038L95.5397 79.2844C95.5397 79.2844 96.4207 82.5508 93.1497 85.0673C89.8788 87.5837 59.9751 100.88 59.9751 100.88L59.4782 100.911L72.9323 130.305C72.9323 130.305 73.8359 131.913 73.3073 132.333Z" fill="#263238"/>
<path d="M56.6228 97.5684L59.1076 100.677L58.1137 96.5745" stroke="white" stroke-width="0.835087" stroke-linecap="round" stroke-linejoin="round"/>
<path d="M81.1141 92.7207C81.1141 92.7207 86.2103 100.677 88.0761 102.294" stroke="white" stroke-width="0.835087" stroke-linecap="round" stroke-linejoin="round"/>
<path d="M81.8596 92.4722C83.2644 93.7014 84.7595 94.8235 86.3323 95.8289" stroke="white" stroke-width="0.835087" stroke-linecap="round" stroke-linejoin="round"/>
<g style="mix-blend-mode:multiply">
<path d="M90.7959 50.3521L73.1492 62.3786L77.0074 78.2814L90.1047 82.6728L107.58 70.2216L105.47 54.2239L90.7959 50.3521Z" fill="black"/>
</g>
<path d="M73.244 62.3787L74.3644 67.3483" stroke="#263238" stroke-width="0.835087" stroke-linecap="round" stroke-linejoin="round"/>
<path d="M75.2952 70.9761L77.0571 78.1459L90.2628 82.7993L88.6274 70.9761" stroke="#263238" stroke-width="0.835087" stroke-linecap="round" stroke-linejoin="round"/>
<path d="M88.5009 69.9733L87.9994 66.9553" stroke="#263238" stroke-width="0.835087" stroke-linecap="round" stroke-linejoin="round"/>
<path d="M104.096 72.9911L107.616 70.3481L105.854 55.385" stroke="#263238" stroke-width="0.835087" stroke-linecap="round" stroke-linejoin="round"/>
<path d="M89.7567 66.0744L99.3165 58.9045" stroke="#263238" stroke-width="0.835087" stroke-linecap="round" stroke-linejoin="round"/>
<path d="M98.8151 52.489L90.8908 50.3521L73.5332 62.1753" stroke="#263238" stroke-width="0.835087" stroke-linecap="round" stroke-linejoin="round"/>
<path d="M73.6597 62.677L76.3026 63.4315" stroke="#263238" stroke-width="0.835087" stroke-linecap="round" stroke-linejoin="round"/>
<path d="M80.8295 64.439L87.9993 66.4494" stroke="#263238" stroke-width="0.835087" stroke-linecap="round" stroke-linejoin="round"/>
<path d="M97.5546 52.2407L86.7389 60.54" stroke="#263238" stroke-width="0.417543" stroke-linecap="round" stroke-linejoin="round"/>
<path d="M85.8579 61.2944L81.959 64.3124" stroke="#263238" stroke-width="0.417543" stroke-linecap="round" stroke-linejoin="round"/>
<path d="M97.8257 45.3012C97.8257 45.3012 100.573 67.9583 100.573 68.9658C100.573 69.9732 98.0561 70.4747 98.0561 71.7307C97.9857 72.7606 97.7744 73.7761 97.4281 74.7486C97.4281 74.7486 96.9266 75.2546 96.9266 75.6522C96.9266 76.0497 97.8076 75.9052 98.5621 75.5302C99.3166 75.1552 99.5651 73.7682 99.5651 73.7682C99.3924 74.5993 99.2672 75.4394 99.1901 76.2847L98.6886 76.7862C98.6886 76.7862 97.1796 78.1686 98.1826 78.2951C99.1856 78.4216 103.843 76.6597 104.096 75.5302C104.349 74.4007 103.464 68.9883 103.464 68.9883C103.464 68.9883 107.114 43.458 107.114 41.068C107.132 40.4001 106.949 39.7422 106.59 39.1787C106.231 38.6152 105.712 38.1718 105.099 37.9055" fill="white"/>
<g style="mix-blend-mode:multiply" opacity="0.3">
<path d="M107.096 44.2486C106.568 42.2382 105.994 38.5877 105.994 38.5877L103.6 37.8604L100.437 41.6599L102.935 40.1238V70.2714C102.935 71.8075 101.015 77.7575 101.015 77.7575C101.015 77.7575 104.986 76.9217 104.345 73.3074C103.703 69.6931 102.935 70.2714 104.087 62.9751C105.239 55.6788 107.643 46.2726 107.096 44.2486Z" fill="black"/>
</g>
<path d="M97.8257 45.3012C97.8257 45.3012 100.573 67.9583 100.573 68.9658C100.573 69.9732 98.0561 70.4747 98.0561 71.7307C97.9857 72.7606 97.7744 73.7761 97.4281 74.7486C97.4281 74.7486 96.9266 75.2546 96.9266 75.6522C96.9266 76.0497 97.8076 75.9052 98.5621 75.5302C99.3166 75.1552 99.5651 73.7682 99.5651 73.7682C99.3924 74.5992 99.2672 75.4394 99.1901 76.2847L98.6886 76.7862C98.6886 76.7862 97.1796 78.1686 98.1826 78.2951C99.1856 78.4216 103.843 76.6597 104.096 75.5302C104.349 74.4007 103.464 68.9883 103.464 68.9883C103.464 68.9883 107.114 43.458 107.114 41.068C107.132 40.4001 106.949 39.7422 106.59 39.1787C106.231 38.6152 105.712 38.1718 105.099 37.9055" stroke="#263238" stroke-width="0.835087" stroke-linecap="round" stroke-linejoin="round"/>
<path d="M100.866 75.3179C101.003 75.8547 100.959 76.4218 100.74 76.9307C100.492 77.3348 100.201 77.7106 99.8722 78.0512" stroke="#263238" stroke-width="0.417543" stroke-linecap="round" stroke-linejoin="round"/>
<path d="M102.371 75.3179C102.296 75.8263 102.171 76.3258 101.996 76.8088" stroke="#263238" stroke-width="0.417543" stroke-linecap="round" stroke-linejoin="round"/>
<path d="M103.491 74.9429C103.415 75.4509 103.289 75.9502 103.116 76.4338" stroke="#263238" stroke-width="0.417543" stroke-linecap="round" stroke-linejoin="round"/>
<path d="M62.8621 27.8579C62.7175 26.5568 60.1152 24.0991 56.5009 23.3762C52.8866 22.6534 48.9787 22.6534 47.533 23.828C46.9908 24.2572 46.6294 25.2556 46.3945 26.3309C46.652 25.7797 47.1715 24.6638 47.7092 24.2165C50.3702 21.9983 51.1111 23.313 51.5539 25.2511C51.9966 27.1893 51.4048 32.4797 51.4048 32.4797C51.4048 32.4797 45.3418 34.2552 46.2273 31.1469C46.0973 30.704 46.0066 30.2504 45.9563 29.7916C45.9563 30.022 45.9563 30.162 45.9563 30.162L45.6671 32.0415L43.2094 32.4932L34.6707 32.2222C34.6707 32.2222 39.0168 34.9329 41.4745 34.9329C43.0628 34.8675 44.5846 34.2781 45.8026 33.2568L61.6151 34.463C61.6151 34.463 63.0066 29.1591 62.8621 27.8579Z" fill="black"/>
<path d="M44.4292 32.3667L34.6526 32.2176C34.6526 32.2176 37.3633 34.7747 40.9776 34.7747C44.5919 34.7747 45.7936 33.2702 45.7936 33.2702L61.6061 34.4765C61.6061 34.4765 63.6708 30.5415 62.6181 27.0853C61.5654 23.6291 52.0779 22.4681 49.4395 23.1051C46.1776 23.8957 45.9608 26.6516 45.9608 28.156C45.937 29.2656 45.8358 30.3721 45.6581 31.4676" stroke="#263238" stroke-width="0.835087" stroke-linecap="round" stroke-linejoin="round"/>
<g style="mix-blend-mode:multiply" opacity="0.3">
<path d="M53.5688 33.9433L47.1851 34.0563C47.1851 34.0563 45.378 36.7444 45.8297 37.5305C46.1794 38.074 46.6416 38.5362 47.1851 38.8858C47.1851 38.8858 46.7333 42.473 47.298 43.7064C47.8628 44.9398 52.34 44.375 52.34 44.375C51.3492 44.9609 50.2354 45.3074 49.0871 45.387C46.9592 45.6084 46.2906 45.1611 45.9517 43.9278C45.6129 42.6944 45.4999 39.1524 45.4999 39.1524L43.9413 37.5305L45.0617 34.5035L46.2951 33.2747L53.5688 33.9433Z" fill="black"/>
</g>
<path d="M45.1836 33.7219C45.1836 33.7219 43.5256 37.6344 44.2801 38.2398C45.0345 38.8452 45.4818 39.1433 45.4818 39.1433C45.4818 39.1433 45.9336 44.4066 46.6836 45.3102C47.4335 46.2138 52.2495 44.7093 52.2495 44.7093C52.2495 44.7093 62.0126 54.4815 62.3289 52.6743C62.6451 50.8672 61.4253 44.0904 61.4253 43.3495C61.4253 42.6085 59.32 40.6388 59.32 40.6388" stroke="#263238" stroke-width="0.835087" stroke-linecap="round" stroke-linejoin="round"/>
<path d="M53.9076 33.8711C53.9076 33.8711 54.2058 35.2265 55.1093 35.3755C56.0129 35.5246 56.7629 34.0202 56.7629 34.0202L53.9076 33.8711Z" fill="#263238"/>
<path d="M61.5608 34.4764C61.5608 34.4764 62.4644 37.1871 61.4072 38.6871C60.35 40.187 59.9073 40.1915 59.9073 40.1915C59.0037 41.6959 56.5957 38.3844 56.5957 38.3844C56.5957 38.3844 58.4028 38.303 58.8546 37.1013C59.3064 35.8995 58.6739 34.1421 58.6739 34.1421L61.5608 34.4764Z" fill="#263238"/>
<path d="M58.8501 34.4766C58.8501 34.4766 59.3019 36.5819 58.8501 37.6391C58.3983 38.6962 56.5912 38.389 56.5912 38.389L55.6876 40.648" stroke="#263238" stroke-width="0.835087" stroke-linecap="round" stroke-linejoin="round"/>
<path d="M46.5525 40.0107C46.5525 40.0107 48.2964 40.3857 49.4123 38.3933" stroke="#263238" stroke-width="0.626315" stroke-linecap="round" stroke-linejoin="round"/>
<path d="M77.5165 49.7966L73.8197 51.1582L75.9074 56.8263L79.6042 55.4647L77.5165 49.7966Z" fill="#263238"/>
<path d="M76.8695 51.0647L75.1017 51.7158L76.0698 54.3443L77.8376 53.6931L76.8695 51.0647Z" fill="white"/>
<path d="M75.5664 48.9319L74.7864 49.2192L75.4219 50.9447L76.202 50.6574L75.5664 48.9319Z" fill="white" stroke="#263238" stroke-width="0.417543" stroke-linecap="round" stroke-linejoin="round"/>
<path d="M71.6945 73.7004L75.0422 77.518" stroke="#263238" stroke-width="0.835087" stroke-linecap="round" stroke-linejoin="round"/>
<path d="M106.084 26.5973L102.764 28.5129L100.889 25.2375L104.205 23.3264L106.084 26.5973Z" stroke="#263238" stroke-width="0.835087" stroke-linecap="round" stroke-linejoin="round"/>
<path d="M104.964 22.87L99.7367 25.8879L96.6239 20.1231L101.851 17.1052L104.964 22.87Z" stroke="#263238" stroke-width="0.835087" stroke-linecap="round" stroke-linejoin="round"/>
<path d="M155.291 96.1162C170.986 80.4207 170.986 54.9733 155.291 39.2778C139.595 23.5823 114.148 23.5823 98.4524 39.2778C82.7569 54.9733 82.7569 80.4207 98.4524 96.1162C114.148 111.812 139.595 111.812 155.291 96.1162Z" fill="white"/>
<path d="M127.223 20.6111C118.047 20.6084 109.076 23.3271 101.445 28.4233C93.8134 33.5195 87.8649 40.7642 84.3513 49.2414C80.8378 57.7185 79.9171 67.0472 81.7057 76.0476C83.4943 85.048 87.9118 93.3159 94.3996 99.8055C100.887 106.295 109.154 110.715 118.154 112.506C127.154 114.298 136.483 113.38 144.961 109.869C153.439 106.357 160.685 100.411 165.784 92.7813C170.882 85.1516 173.604 76.1813 173.604 67.0049C173.604 54.7029 168.718 42.9045 160.02 34.2043C151.322 25.5042 139.525 20.6147 127.223 20.6111ZM127.223 107.196C119.271 107.196 111.497 104.838 104.884 100.419C98.2721 96.0011 93.1185 89.7213 90.0751 82.3741C87.0318 75.0269 86.2356 66.9422 87.787 59.1425C89.3385 51.3427 93.168 44.1782 98.7913 38.5549C104.415 32.9316 111.579 29.102 119.379 27.5506C127.179 25.9991 135.263 26.7954 142.611 29.8387C149.958 32.882 156.238 38.0357 160.656 44.648C165.074 51.2603 167.432 59.0343 167.432 66.9868C167.432 72.2672 166.392 77.4957 164.371 82.3741C162.351 87.2525 159.389 91.6851 155.655 95.4188C151.922 99.1526 147.489 102.114 142.611 104.135C137.732 106.156 132.504 107.196 127.223 107.196Z" fill="#263238" stroke="#263238" stroke-width="0.835087" stroke-linecap="round" stroke-linejoin="round"/>
<path d="M155.69 32.0097C151.067 28.2424 145.741 25.4307 140.022 23.7375" stroke="white" stroke-width="1.67017" stroke-linecap="round" stroke-linejoin="round"/>
<path d="M135.744 22.6983C134.101 22.3865 132.442 22.1648 130.774 22.0342" stroke="white" stroke-width="1.67017" stroke-linecap="round" stroke-linejoin="round"/>
<path d="M161.062 91.808C166.482 84.4066 169.328 75.4333 169.165 66.261C169.002 57.0886 165.838 48.2222 160.158 41.0183" stroke="white" stroke-width="0.835087" stroke-linecap="round" stroke-linejoin="round"/>
<path d="M155.198 98.2641C156.515 97.0875 157.756 95.8274 158.912 94.4917" stroke="white" stroke-width="0.835087" stroke-linecap="round" stroke-linejoin="round"/>
<path d="M110.168 105.344C117.219 108.475 124.996 109.605 132.647 108.608C140.297 107.612 147.526 104.529 153.54 99.6963" stroke="white" stroke-width="0.835087" stroke-linecap="round" stroke-linejoin="round"/>
<path d="M104.182 102.068C105.437 102.891 106.736 103.645 108.072 104.327" stroke="white" stroke-width="0.835087" stroke-linecap="round" stroke-linejoin="round"/>
<path d="M99.6825 98.6526C100.741 99.5734 101.844 100.44 102.99 101.25" stroke="white" stroke-width="0.835087" stroke-linecap="round" stroke-linejoin="round"/>
<path d="M115.622 26.6787C108.492 28.7316 102.035 32.6379 96.9074 37.9995C91.7798 43.3611 88.1653 49.9862 86.4323 57.1998C84.6993 64.4133 84.9097 71.9574 87.0421 79.0631C89.1745 86.1689 93.1527 92.5822 98.5711 97.6497" stroke="white" stroke-width="0.835087" stroke-linecap="round" stroke-linejoin="round"/>
<path d="M156.887 37.3409C151.98 32.4395 145.935 28.8293 139.293 26.8325C132.65 24.8357 125.617 24.5144 118.82 25.8972" stroke="white" stroke-width="0.835087" stroke-linecap="round" stroke-linejoin="round"/>
<path d="M133.236 81.8643H121.165V85.1352H133.236V81.8643Z" fill="black"/>
<path d="M130.594 67.0051C130.594 66.2167 130.317 65.4533 129.811 64.8481C129.306 64.2429 128.604 63.8342 127.829 63.6935L127.472 41.6147H126.97L126.618 63.6935C125.85 63.8315 125.154 64.2321 124.648 64.8267C124.143 65.4213 123.86 66.1731 123.848 66.9533C123.836 67.7335 124.095 68.4937 124.581 69.104C125.067 69.7142 125.751 70.1365 126.514 70.2986L126.387 78.1325H128.059L127.933 70.2986C128.685 70.1357 129.36 69.7202 129.844 69.1211C130.328 68.522 130.592 67.7753 130.594 67.0051ZM127.223 68.8122C126.866 68.8122 126.516 68.7062 126.219 68.5077C125.922 68.3091 125.69 68.0269 125.554 67.6966C125.417 67.3664 125.381 67.0031 125.451 66.6525C125.521 66.302 125.693 65.98 125.945 65.7272C126.198 65.4745 126.52 65.3024 126.871 65.2327C127.221 65.1629 127.585 65.1987 127.915 65.3355C128.245 65.4723 128.527 65.7039 128.726 66.0011C128.924 66.2983 129.03 66.6477 129.03 67.0051C129.03 67.2424 128.984 67.4774 128.893 67.6966C128.802 67.9159 128.669 68.1151 128.501 68.2829C128.333 68.4507 128.134 68.5838 127.915 68.6747C127.696 68.7655 127.461 68.8122 127.223 68.8122Z" fill="#263238"/>
<path d="M127.223 68.8619C128.249 68.8619 129.08 68.0305 129.08 67.005C129.08 65.9795 128.249 65.1482 127.223 65.1482C126.198 65.1482 125.366 65.9795 125.366 67.005C125.366 68.0305 126.198 68.8619 127.223 68.8619Z" fill="black"/>
<path d="M127.223 29.0686V35.7595" stroke="#263238" stroke-width="3.34035" stroke-linecap="round" stroke-linejoin="round"/>
<path d="M127.223 98.481V105.172" stroke="#263238" stroke-width="3.34035" stroke-linecap="round" stroke-linejoin="round"/>
<path d="M108.199 34.1694L111.542 39.9613" stroke="#263238" stroke-width="3.34035" stroke-linecap="round" stroke-linejoin="round"/>
<path d="M142.905 94.2793L146.248 100.076" stroke="#263238" stroke-width="3.34035" stroke-linecap="round" stroke-linejoin="round"/>
<path d="M94.2701 48.0933L100.062 51.441" stroke="#263238" stroke-width="3.34035" stroke-linecap="round" stroke-linejoin="round"/>
<path d="M154.38 82.7993L160.177 86.147" stroke="#263238" stroke-width="3.34035" stroke-linecap="round" stroke-linejoin="round"/>
<path d="M165.273 67.1226H158.582" stroke="#263238" stroke-width="3.34035" stroke-linecap="round" stroke-linejoin="round"/>
<path d="M95.8604 67.1226H89.1694" stroke="#263238" stroke-width="3.34035" stroke-linecap="round" stroke-linejoin="round"/>
<path d="M165.273 67.1226H158.582" stroke="#263238" stroke-width="3.34035" stroke-linecap="round" stroke-linejoin="round"/>
<path d="M95.8604 67.1226H89.1694" stroke="#263238" stroke-width="3.34035" stroke-linecap="round" stroke-linejoin="round"/>
<path d="M160.177 48.0933L154.38 51.441" stroke="#263238" stroke-width="3.34035" stroke-linecap="round" stroke-linejoin="round"/>
<path d="M100.062 82.7993L94.2701 86.147" stroke="#263238" stroke-width="3.34035" stroke-linecap="round" stroke-linejoin="round"/>
<path d="M146.248 34.1694L142.905 39.9613" stroke="#263238" stroke-width="3.34035" stroke-linecap="round" stroke-linejoin="round"/>
<path d="M111.542 94.2793L108.199 100.076" stroke="#263238" stroke-width="3.34035" stroke-linecap="round" stroke-linejoin="round"/>
<path d="M129.139 19.1519H125.308V22.5402H129.139V19.1519Z" stroke="#263238" stroke-width="0.835087" stroke-linecap="round" stroke-linejoin="round"/>
<path d="M130.241 10.0981H124.205V18.9577H130.241V10.0981Z" stroke="#263238" stroke-width="0.835087" stroke-linecap="round" stroke-linejoin="round"/>
<path d="M131.497 3.86353H122.76V9.89938H131.497V3.86353Z" fill="black"/>
<path d="M131.592 3.86353H122.854V9.89938H131.592V3.86353Z" stroke="#263238" stroke-width="0.835087" stroke-linecap="round" stroke-linejoin="round"/>
<path d="M123.826 7.61782V3.99902" stroke="#263238" stroke-width="0.835087" stroke-linecap="round" stroke-linejoin="round"/>
<path d="M123.826 10.0123V8.45361" stroke="#263238" stroke-width="0.835087" stroke-linecap="round" stroke-linejoin="round"/>
<path d="M124.937 10.0123V3.99902" stroke="#263238" stroke-width="0.835087" stroke-linecap="round" stroke-linejoin="round"/>
<path d="M126.049 5.50347V3.99902" stroke="#263238" stroke-width="0.835087" stroke-linecap="round" stroke-linejoin="round"/>
<path d="M126.049 10.0123V6.22632" stroke="#263238" stroke-width="0.835087" stroke-linecap="round" stroke-linejoin="round"/>
<path d="M127.887 10.0123V3.99902" stroke="#263238" stroke-width="0.835087" stroke-linecap="round" stroke-linejoin="round"/>
<g style="mix-blend-mode:multiply" opacity="0.3">
<path d="M63.4268 51.7574L66.6751 51.9833L66.5667 50.7499C66.5667 50.7499 63.6527 50.524 63.4268 51.7574Z" fill="black"/>
</g>
<g style="mix-blend-mode:multiply" opacity="0.3">
<path d="M54.4769 77.3872L61.1091 72.9913L52.6382 76.2216C52.6382 76.2216 51.8701 58.9408 52.4484 57.599C53.0267 56.2572 56.6726 53.7588 56.6726 53.7588C56.6726 53.7588 56.4558 52.3673 57.6304 51.8388C58.436 51.5378 59.3232 51.5378 60.1288 51.8388L60.9646 52.155C60.0023 51.6129 58.4481 50.515 56.0582 48.2832H56.004L56.5823 48.8389L56.3293 51.0978L53.7902 53.1715C53.2165 53.7498 51.0479 56.5057 51.0479 56.5057L50.9214 79.3931L54.3685 77.1749L54.4769 77.3872Z" fill="black"/>
</g>
<path d="M56.3066 51.1067C56.3066 51.1067 51.0252 55.3851 51.0252 56.5281C51.0252 57.6711 50.6457 78.9141 50.8987 79.4155C51.1517 79.917 61.1091 72.9912 61.1091 72.9912L60.1016 63.8109" stroke="#263238" stroke-width="0.835087" stroke-linecap="round" stroke-linejoin="round"/>
<path d="M57.3141 61.5474L68.0033 70.0997" stroke="#263238" stroke-width="0.835087" stroke-linecap="round" stroke-linejoin="round"/>
<g style="mix-blend-mode:multiply" opacity="0.3">
<path d="M103.6 37.8603L97.1616 35.8815L76.1762 32.353L70.8586 38.1856C70.8586 38.1856 75.4669 35.3077 76.8087 35.3077C78.1505 35.3077 98.3904 41.0634 100.301 41.6011L103.6 37.8603Z" fill="black"/>
</g>
<path d="M64.5516 42.2065C64.5516 42.2065 74.9201 32.353 76.1761 32.353C77.432 32.353 98.1825 36.5004 99.6915 36.7534C101.2 37.0064 103.717 37.5079 103.717 37.5079C103.717 37.5079 99.3165 43.0423 97.8075 44.9262C96.2986 46.8102 95.5486 47.9441 95.5486 47.9441L78.5705 40.1508" stroke="#263238" stroke-width="0.835087" stroke-linecap="round" stroke-linejoin="round"/>
<path d="M81.4575 42.053L85.7359 53.3702" stroke="#263238" stroke-width="0.835087" stroke-linecap="round" stroke-linejoin="round"/>
<path d="M68.3783 59.0309L67.3709 60.0384L62.469 53.7495" stroke="#263238" stroke-width="0.835087" stroke-linecap="round" stroke-linejoin="round"/>
<path d="M76.637 42.5001L81.6111 41.6282L77.3824 44.61" stroke="#263238" stroke-width="0.417543" stroke-linecap="round" stroke-linejoin="round"/>
<path d="M60.079 63.8109L53.7631 62.8848" stroke="#263238" stroke-width="0.417543" stroke-linecap="round" stroke-linejoin="round"/>
<path d="M56.5596 48.8433C56.1057 49.9668 56.0609 51.214 56.4331 52.3672C57.0611 54.2511 59.1981 57.5221 59.1981 57.5221L61.963 53.6232" stroke="#263238" stroke-width="0.835087" stroke-linecap="round" stroke-linejoin="round"/>
<path d="M62.8439 52.1142C62.8439 52.1142 64.2309 50.8582 65.4869 50.8582H67.6238C67.6238 50.8582 67.2488 45.9518 65.4869 43.3089C63.7249 40.6659 61.335 42.0529 61.335 42.0529" stroke="#263238" stroke-width="0.835087" stroke-linecap="round" stroke-linejoin="round"/>
<path d="M60.5805 73.7456L75.6747 66.7022L76.9307 62.3018L82.0855 61.1814C82.0855 61.1814 83.093 60.1739 82.9665 61.1814C82.84 62.1889 81.4575 62.5639 80.9561 63.5714C80.4546 64.5788 80.4501 66.5893 79.8221 67.4703C79.1941 68.3512 76.9307 69.3587 76.9307 69.3587C76.9307 69.3587 59.9526 83.5674 58.6966 84.3219C57.4406 85.0763 54.9242 77.9065 54.9242 77.9065" fill="white"/>
<g style="mix-blend-mode:multiply" opacity="0.3">
<path d="M54.4768 77.3871C55.0596 78.3222 57.4405 82.194 57.6077 83.712C57.8019 85.4424 59.338 83.712 59.338 83.712L73.1626 72.196C73.1626 72.196 59.5278 80.8297 58.3983 80.4456C57.2688 80.0616 57.0429 77.1838 57.0429 77.1838L61.109 72.9912L54.4768 77.3871Z" fill="black"/>
</g>
<path d="M60.5805 73.7456L75.6747 66.7022L76.9307 62.3018L82.0855 61.1814C82.0855 61.1814 83.093 60.1739 82.9665 61.1814C82.84 62.1889 81.4575 62.5639 80.9561 63.5714C80.4546 64.5788 80.4501 66.5893 79.8221 67.4703C79.1941 68.3512 76.9307 69.3587 76.9307 69.3587C76.9307 69.3587 59.9526 83.5674 58.6966 84.3219C57.4406 85.0763 54.9242 77.9065 54.9242 77.9065" stroke="#263238" stroke-width="0.835087" stroke-linecap="round" stroke-linejoin="round"/>
<path d="M82.0855 61.1814C82.0855 61.1814 79.6233 62.6497 79.8717 63.1467" stroke="#263238" stroke-width="0.417543" stroke-linecap="round" stroke-linejoin="round"/>
<path d="M80.1201 61.6423L78.2543 62.6363" stroke="#263238" stroke-width="0.417543" stroke-linecap="round" stroke-linejoin="round"/>
</svg>
