<svg width="195" height="41" viewBox="0 0 195 41" fill="none" xmlns="http://www.w3.org/2000/svg">
<path d="M43.9638 39.2628V13.232H52.6305V19.3754C53.5365 17.1307 54.7577 15.4767 56.2941 14.374C57.8305 13.232 59.7214 12.6807 61.888 12.6807C62.282 12.6807 62.6365 12.6807 62.9911 12.72C63.385 12.7594 63.7395 12.7988 64.1335 12.8382L63.2274 21.1869C62.6759 20.99 62.1638 20.8719 61.6123 20.7537C61.1002 20.675 60.588 20.6356 60.0759 20.6356C57.8305 20.6356 56.1365 21.3051 54.9153 22.6834C53.6941 24.0617 53.1032 25.9914 53.1032 28.5118V39.2628H43.9638Z" fill="white"/>
<path d="M87.3364 26.2277C87.3364 24.2193 86.7848 22.6047 85.7212 21.4233C84.6182 20.2418 83.1606 19.6511 81.2697 19.6511C79.4182 19.6511 77.9212 20.2418 76.8575 21.3839C75.7939 22.5653 75.2424 24.1799 75.2424 26.2277C75.2424 28.2362 75.7939 29.8508 76.8575 31.0322C77.9606 32.1743 79.4182 32.765 81.2697 32.765C83.1606 32.765 84.6182 32.1743 85.7212 31.0322C86.7848 29.8508 87.3364 28.2362 87.3364 26.2277ZM95.3727 13.232V39.2629H86.9818V35.0491C85.7606 36.8212 84.4212 38.1602 82.9242 38.9872C81.4273 39.8536 79.6545 40.2474 77.606 40.2474C74.1394 40.2474 71.3818 38.9872 69.2939 36.4668C67.206 33.9464 66.1818 30.5203 66.1818 26.2671C66.1818 22.0534 67.2454 18.6666 69.4515 16.1856C71.6181 13.6652 74.5333 12.4444 78.1969 12.4444C80.1666 12.4444 81.8606 12.8382 83.2788 13.6652C84.697 14.4922 85.9182 15.7918 86.903 17.5245V13.232H95.3727Z" fill="white"/>
<path d="M103.724 39.2628V19.7298H99.8636V13.232H103.724V5.51331H112.785V13.232H116.685V19.7298H112.785V39.2628H103.724Z" fill="white"/>
<path d="M121.215 13.232H130.394V39.2628H121.215V13.232ZM120.742 5.11954C120.742 3.74121 121.215 2.55978 122.239 1.57526C123.224 0.590735 124.406 0.118164 125.785 0.118164C127.242 0.118164 128.424 0.590735 129.409 1.57526C130.394 2.5204 130.867 3.70183 130.867 5.11954C130.867 6.57663 130.355 7.75806 129.37 8.78196C128.385 9.76649 127.203 10.2784 125.785 10.2784C124.406 10.2784 123.224 9.76649 122.239 8.74258C121.255 7.71868 120.742 6.53725 120.742 5.11954Z" fill="white"/>
<path d="M145.246 39.2628L133.585 13.2319H143.355L147.767 24.7312C147.846 24.8493 147.885 25.0069 147.964 25.1644C148.515 26.7002 148.87 27.8817 149.027 28.7874C149.146 27.9604 149.461 26.8578 150.012 25.4401C150.13 25.125 150.249 24.8887 150.288 24.7312L154.7 13.2319H164.273L152.455 39.2628H145.246Z" fill="white"/>
<path d="M185.073 22.9197C184.915 21.4233 184.364 20.2418 183.418 19.3361C182.433 18.4697 181.291 17.9971 179.873 17.9971C178.376 17.9971 177.194 18.4303 176.327 19.2179C175.421 20.0449 174.83 21.2657 174.555 22.9197H185.073ZM194.133 28.0786H174.358C174.358 30.0871 174.87 31.6229 175.894 32.7256C176.918 33.8283 178.336 34.3796 180.188 34.3796C181.567 34.3796 182.748 34.1039 183.694 33.592C184.679 33.0407 185.388 32.2924 185.9 31.2685L192.794 34.0252C191.967 36.0336 190.509 37.5695 188.421 38.6328C186.333 39.7354 183.733 40.2474 180.7 40.2474C176.17 40.2474 172.545 38.9872 169.788 36.5062C167.07 33.9858 165.691 30.6778 165.691 26.5428C165.691 22.4865 167.07 19.1392 169.788 16.4613C172.545 13.7834 176.012 12.4444 180.188 12.4444C184.521 12.4444 187.909 13.7834 190.391 16.5006C192.873 19.2179 194.133 22.9197 194.133 27.6455V28.0786Z" fill="white"/>
<path d="M39.7484 16.7369H19.5394V24.6525H29.7818C29.4666 26.7791 28.4424 28.5118 26.7091 29.772C24.9757 31.0716 22.8091 31.7017 20.1697 31.7017C17.097 31.7017 14.6939 30.6778 12.9212 28.5906C11.1485 26.5428 10.2818 23.7073 10.2818 20.1237C10.2818 16.5794 11.1485 13.7833 12.9212 11.6961C14.6939 9.64833 17.097 8.62443 20.1697 8.62443C21.1545 8.62443 22.1 8.78195 22.9666 9.01824V0.118143C22.0606 0.039381 21.1545 0 20.1697 0C17.3333 0 14.6939 0.472571 12.2515 1.41771C9.80908 2.36286 7.64242 3.74119 5.75151 5.5921C3.8606 7.443 2.40303 9.56957 1.45757 11.9324C0.472727 14.2953 0 16.8944 0 19.7299C0 22.4078 0.512121 25.0069 1.49697 27.4485C2.48182 29.9295 3.8606 32.0561 5.63333 33.8676C7.52424 35.7579 9.65151 37.1362 12.0151 38.0814C14.4182 38.9871 17.1363 39.4597 20.1697 39.4597C26.3939 39.4597 31.2394 37.6482 34.6666 34.0645C38.0939 30.4809 39.7878 25.4401 39.7878 18.9816C39.7878 18.3515 39.7878 17.9183 39.7878 17.6033C39.7484 17.2882 39.7484 17.0126 39.7484 16.7369Z" fill="white"/>
<path d="M31.1212 0H25.3697V0.511951V8.70317H31.1212V11.578V14.4134H39.7878V8.70317V0H31.1212Z" fill="white"/>
</svg>
