<svg width="547" height="456" viewBox="0 0 547 456" fill="none" xmlns="http://www.w3.org/2000/svg">
<path d="M286.195 455.984C429.833 455.984 546.275 451.656 546.275 446.318C546.275 440.979 429.833 436.651 286.195 436.651C142.557 436.651 26.1151 440.979 26.1151 446.318C26.1151 451.656 142.557 455.984 286.195 455.984Z" fill="black"/>
<path opacity="0.8" d="M286.195 455.984C429.833 455.984 546.275 451.656 546.275 446.318C546.275 440.979 429.833 436.651 286.195 436.651C142.557 436.651 26.1151 440.979 26.1151 446.318C26.1151 451.656 142.557 455.984 286.195 455.984Z" fill="white"/>
<path d="M411.196 82.9489C410.684 82.9489 410.194 83.152 409.832 83.5136C409.47 83.8752 409.267 84.3657 409.267 84.8771V94.7625H374.032V84.8771C374.032 84.3657 373.829 83.8752 373.467 83.5136C373.106 83.152 372.615 82.9489 372.104 82.9489C371.592 82.9489 371.102 83.152 370.74 83.5136C370.379 83.8752 370.176 84.3657 370.176 84.8771V333.876C370.176 334.387 370.379 334.878 370.74 335.239C371.102 335.601 371.592 335.804 372.104 335.804C372.615 335.804 373.106 335.601 373.467 335.239C373.829 334.878 374.032 334.387 374.032 333.876V278.176H409.267V333.876C409.267 334.387 409.47 334.878 409.832 335.239C410.194 335.601 410.684 335.804 411.196 335.804C411.707 335.804 412.197 335.601 412.559 335.239C412.921 334.878 413.124 334.387 413.124 333.876V84.8385C413.114 84.3338 412.906 83.8532 412.546 83.4999C412.185 83.1466 411.7 82.9488 411.196 82.9489ZM409.267 274.358H374.032V261.863H409.267V274.358ZM409.267 257.994H374.032V245.512H409.267V257.994ZM409.267 241.642H374.032V229.199H409.267V241.642ZM409.267 225.304H374.032V212.912H409.267V225.304ZM409.267 208.978H374.032V196.727H409.267V208.978ZM409.267 192.704H374.032V180.376H409.267V192.704ZM409.267 176.507H374.032V164.063H409.267V176.507ZM409.267 160.155H374.032V147.712H409.267V160.155ZM409.267 143.842H374.032V131.36H409.267V143.842ZM409.267 127.491H374.032V114.983H409.267V127.491ZM409.267 111.127H374.032V98.6189H409.267V111.127Z" fill="white"/>
<path d="M77.4316 283.691C77.4316 283.691 106.291 244.188 92.2147 234.842C77.573 225.188 70.6957 254.433 67.5977 268.792C60.9902 299.438 62.8542 305.942 67.2891 299.206L77.4316 283.691Z" fill="black"/>
<path opacity="0.5" d="M77.4316 283.691C77.4316 283.691 106.291 244.188 92.2147 234.842C77.573 225.188 70.6957 254.433 67.5977 268.792C60.9902 299.438 62.8542 305.942 67.2891 299.206L77.4316 283.691Z" fill="white"/>
<path d="M88.2555 307.986C88.2555 307.986 128.376 279.988 118.079 266.645C107.371 252.749 91.3663 278.214 83.7691 290.761C67.5591 317.602 67.2249 324.363 73.6009 319.427L88.2555 307.986Z" fill="black"/>
<path opacity="0.5" d="M88.2555 307.986C88.2555 307.986 128.376 279.988 118.079 266.645C107.371 252.749 91.3663 278.214 83.7691 290.761C67.5591 317.602 67.2249 324.363 73.6009 319.427L88.2555 307.986Z" fill="white"/>
<path d="M89.1296 340.458C89.1296 340.458 123.838 324.865 117.912 313.167C111.741 300.993 95.8142 318.116 88.1912 326.626C71.9041 344.803 70.67 349.919 76.2619 347.078L89.1296 340.458Z" fill="black"/>
<path opacity="0.5" d="M89.1296 340.458C89.1296 340.458 123.838 324.865 117.912 313.167C111.741 300.993 95.8142 318.116 88.1912 326.626C71.9041 344.803 70.67 349.919 76.2619 347.078L89.1296 340.458Z" fill="white"/>
<path d="M91.1864 373.071C91.1864 373.071 125.895 357.478 119.981 345.78C113.798 333.619 97.8838 350.729 90.248 359.252C73.9737 377.428 72.7268 382.545 78.3315 379.691L91.1864 373.071Z" fill="black"/>
<path opacity="0.5" d="M91.1864 373.071C91.1864 373.071 125.895 357.478 119.981 345.78C113.798 333.619 97.8838 350.729 90.248 359.252C73.9737 377.428 72.7268 382.545 78.3315 379.691L91.1864 373.071Z" fill="white"/>
<path d="M50.475 300.196C50.475 300.196 12.3218 269.563 2.41065 283.189C-7.87325 297.33 20.9988 305.595 35.2034 309.349C65.5152 317.357 72.0969 315.776 65.5666 311.046L50.475 300.196Z" fill="black"/>
<path opacity="0.5" d="M50.475 300.196C50.475 300.196 12.3218 269.563 2.41065 283.189C-7.87325 297.33 20.9988 305.595 35.2034 309.349C65.5152 317.357 72.0969 315.776 65.5666 311.046L50.475 300.196Z" fill="white"/>
<path d="M51.6062 325.79C51.6062 325.79 8.13104 303.346 1.12513 318.682C-6.16358 334.634 23.7883 336.948 38.4043 337.797C69.7059 339.622 75.8505 336.768 68.5104 333.426L51.6062 325.79Z" fill="black"/>
<path opacity="0.5" d="M51.6062 325.79C51.6062 325.79 8.13104 303.346 1.12513 318.682C-6.16358 334.634 23.7883 336.948 38.4043 337.797C69.7059 339.622 75.8505 336.768 68.5104 333.426L51.6062 325.79Z" fill="white"/>
<path d="M56.8638 354.482C56.8638 354.482 19.5847 336.486 14.0185 349.636C8.22099 363.301 33.5965 364.561 46.0272 364.933C72.5339 365.756 77.663 363.185 71.377 360.614L56.8638 354.482Z" fill="black"/>
<path opacity="0.5" d="M56.8638 354.482C56.8638 354.482 19.5847 336.486 14.0185 349.636C8.22099 363.301 33.5965 364.561 46.0272 364.933C72.5339 365.756 77.663 363.185 71.377 360.614L56.8638 354.482Z" fill="white"/>
<path d="M58.6893 377.66C58.6893 377.66 23.5183 355.806 16.5895 368.289C9.37796 381.259 34.4835 385.206 46.7985 386.902C73.0739 390.527 78.4343 388.535 72.5082 385.231L58.6893 377.66Z" fill="black"/>
<path opacity="0.5" d="M58.6893 377.66C58.6893 377.66 23.5183 355.806 16.5895 368.289C9.37796 381.259 34.4835 385.206 46.7985 386.902C73.0739 390.527 78.4343 388.535 72.5082 385.231L58.6893 377.66Z" fill="white"/>
<path d="M55.3598 261.387C55.3598 261.387 48.7524 204.016 27.0791 209.878C4.57022 215.997 23.4155 245.023 32.9795 259.061C53.303 288.935 60.7846 292.226 59.1777 282.894L55.3598 261.387Z" fill="black"/>
<path opacity="0.5" d="M55.3598 261.387C55.3598 261.387 48.7524 204.016 27.0791 209.878C4.57022 215.997 23.4155 245.023 32.9795 259.061C53.303 288.935 60.7846 292.226 59.1777 282.894L55.3598 261.387Z" fill="white"/>
<path d="M31.514 230.78C31.514 230.78 64.4996 292.586 69.6159 321.278C75.5034 354.238 76.4547 391.054 72.3925 419.901" stroke="black" stroke-width="1.25197" stroke-linecap="round" stroke-linejoin="round"/>
<path d="M64.4097 302.189L80.5682 252.697" stroke="black" stroke-width="1.25197" stroke-linecap="round" stroke-linejoin="round"/>
<path d="M69.6158 321.278L100.03 283.035" stroke="black" stroke-width="1.25197" stroke-linecap="round" stroke-linejoin="round"/>
<path d="M67.6748 314.324L23.634 295.826" stroke="black" stroke-width="1.25197" stroke-linecap="round" stroke-linejoin="round"/>
<path d="M73.4338 347.181L106.548 321.805" stroke="black" stroke-width="1.25197" stroke-linecap="round" stroke-linejoin="round"/>
<path d="M71.6727 336.293L37.0802 329.094" stroke="black" stroke-width="1.25197" stroke-linecap="round" stroke-linejoin="round"/>
<path d="M73.3309 362.787L46.5414 358.544" stroke="black" stroke-width="1.25197" stroke-linecap="round" stroke-linejoin="round"/>
<path d="M75.5934 379.935L93.616 363.789" stroke="black" stroke-width="1.25197" stroke-linecap="round" stroke-linejoin="round"/>
<path d="M75.2335 387.198L44.4461 379.459" stroke="black" stroke-width="1.25197" stroke-linecap="round" stroke-linejoin="round"/>
<path d="M52.429 396.621H88.8211V404.154H85.646L79.0771 445.251H62.173L55.6041 404.154H52.429V396.621Z" fill="black"/>
<path opacity="0.5" d="M52.429 396.621H88.8211V404.154H85.646L79.0771 445.251H62.173L55.6041 404.154H52.429V396.621Z" fill="white"/>
<path d="M112.358 8.54489C110.78 7.13507 108.854 6.17338 106.779 5.75971C104.704 5.34603 102.555 5.49545 100.558 6.19245C93.4874 8.54489 86.7129 18.7645 88.4226 27.4158C89.6181 33.4062 95.1714 42.2375 96.8554 45.6055C98.5394 48.9735 96.1741 54.6682 90.8264 66.4946C85.4788 78.3211 83.4092 89.4149 98.9122 99.1846C114.415 108.954 131.962 93.4513 140.96 82.3319C149.959 71.2124 134.212 45.6055 132.862 34.7688C131.512 23.9322 129.198 3.1587 112.358 8.54489Z" fill="#263238"/>
<path d="M148.802 83.0774C144.944 86.9369 140.283 89.8986 135.151 91.7516C130.018 93.6047 124.541 94.3035 119.107 93.7984L115.392 109.288L122.462 144.652L168.624 120.729L158.173 93.7341L148.802 83.0774Z" fill="black" stroke="#263238" stroke-linecap="round" stroke-linejoin="round"/>
<path opacity="0.3" d="M148.802 83.0774C144.944 86.9369 140.283 89.8986 135.151 91.7516C130.018 93.6047 124.541 94.3035 119.107 93.7984L115.392 109.288L122.462 144.652L168.624 120.729L158.173 93.7341L148.802 83.0774Z" fill="#263238"/>
<path d="M148.802 83.0774L141.732 36.2343L120.778 40.5278L110.327 47.2637C110.327 47.2637 97.858 57.0463 97.858 58.049C97.858 59.0516 118.953 94.3511 118.953 94.3511C124.441 94.6759 129.936 93.8397 135.08 91.8971C140.223 89.9545 144.899 86.9493 148.802 83.0774Z" fill="white"/>
<path d="M148.802 83.0774L141.732 36.2343L120.778 40.5278L110.327 47.2637C110.327 47.2637 97.858 57.0463 97.858 58.049C97.858 59.0516 118.953 94.3511 118.953 94.3511C124.441 94.6759 129.936 93.8397 135.08 91.8971C140.223 89.9545 144.899 86.9493 148.802 83.0774Z" stroke="#263238" stroke-linecap="round" stroke-linejoin="round"/>
<path opacity="0.5" d="M120.688 81.0721C120.688 81.0721 135.459 70.1197 134.096 73.3591C132.733 76.5986 122.527 84.6843 119.788 84.9285C117.05 85.1728 120.688 81.0721 120.688 81.0721Z" fill="black"/>
<path d="M121.138 60.2729L121.717 60.8771L125.316 64.6821L126.242 79.2981L130.651 78.6039L127.167 64.9135L132.746 76.5086L137.387 71.868L127.411 62.8181L127.167 55.6323L122.064 53.0742" fill="#263238"/>
<path d="M113.027 42.9188C113.027 42.9188 108.643 44.937 108.643 48.9734C108.643 53.0098 113.387 62.6124 116.356 64.6306C119.326 66.6489 124.416 57.4062 124.416 57.4062C124.416 57.4062 132.129 61.1084 134.186 57.7404C136.243 54.3725 129.468 43.253 125.098 40.2192C120.727 37.1855 113.027 42.9188 113.027 42.9188Z" fill="white" stroke="#263238" stroke-linecap="round" stroke-linejoin="round"/>
<path d="M109.325 38.8695C110.53 41.949 111.543 45.1002 112.358 48.305C113.027 51.673 122.128 57.4063 123.131 57.7405C124.133 58.0747 124.815 46.9552 124.815 46.9552L122.128 33.8176L109.325 38.8695Z" fill="white"/>
<g style="mix-blend-mode:multiply" opacity="0.5">
<path d="M122.411 35.2188C121.845 35.0602 121.27 34.9399 120.688 34.8588L111.394 38.1368L110.173 41.3248C110.79 43.0474 111.574 45.3613 112.05 47.2381C113.574 48.4665 115.415 49.2377 117.359 49.462C120.148 49.6548 122.604 47.4952 124.339 44.8471L122.411 35.2188Z" fill="black"/>
</g>
<path d="M109.325 38.8695C110.53 41.949 111.543 45.1002 112.358 48.305C113.027 51.673 122.128 57.4063 123.131 57.7405C124.133 58.0747 124.815 46.9552 124.815 46.9552L122.128 33.8176L109.325 38.8695Z" stroke="#263238" stroke-linecap="round" stroke-linejoin="round"/>
<path d="M103.257 33.1363C103.257 33.1363 99.5421 30.1154 99.5421 33.1363C99.5421 36.1572 102.923 37.854 105.61 37.854" fill="white"/>
<path d="M103.257 33.1363C103.257 33.1363 99.5421 30.1154 99.5421 33.1363C99.5421 36.1572 102.923 37.854 105.61 37.854" stroke="#263238" stroke-linecap="round" stroke-linejoin="round"/>
<path d="M123.131 23.3665C123.131 23.3665 125.496 19.6643 126.164 23.7136C126.472 26.3497 125.749 29.0027 124.146 31.118L123.131 23.3665Z" fill="white" stroke="#263238" stroke-linecap="round" stroke-linejoin="round"/>
<g opacity="0.5">
<path d="M103.257 33.1363C103.257 33.1363 99.5421 30.1154 99.5421 33.1363C99.5421 36.1572 102.923 37.854 105.61 37.854" fill="black"/>
<path d="M103.257 33.1363C103.257 33.1363 99.5421 30.1154 99.5421 33.1363C99.5421 36.1572 102.923 37.854 105.61 37.854" stroke="#263238" stroke-linecap="round" stroke-linejoin="round"/>
</g>
<path opacity="0.5" d="M123.131 23.3665C123.131 23.3665 125.496 19.6643 126.164 23.7136C126.472 26.3497 125.749 29.0027 124.146 31.118L123.131 23.3665Z" fill="black" stroke="#263238" stroke-linecap="round" stroke-linejoin="round"/>
<path d="M99.0792 23.3922C99.0792 23.3922 101.972 35.4372 108.18 41.389C114.389 47.3408 121.035 47.3922 123.336 36.787C125.226 28.0457 120.534 16.3863 120.534 16.3863C120.534 16.3863 105.391 3.91706 99.0792 23.3922Z" fill="white"/>
<g style="mix-blend-mode:multiply" opacity="0.5">
<path d="M109.865 12.4655L112.217 18.3788C112.217 18.3788 115.919 17.5561 118.002 22.0296C120.084 26.5031 122.179 33.059 120.984 38.1367C119.84 42.9701 117.128 44.5642 112.95 44.6798C117.5 46.6209 121.627 44.6798 123.336 36.7612C125.226 28.0199 120.534 16.3606 120.534 16.3606C120.534 16.3606 115.405 12.157 109.865 12.4655Z" fill="black"/>
</g>
<path d="M99.0792 23.3922C99.0792 23.3922 101.972 35.4372 108.18 41.389C114.389 47.3408 121.035 47.3922 123.336 36.787C125.226 28.0457 120.534 16.3863 120.534 16.3863C120.534 16.3863 105.391 3.91706 99.0792 23.3922Z" stroke="#263238" stroke-linecap="round" stroke-linejoin="round"/>
<path d="M110.571 29.7554C110.931 30.4367 110.867 31.1694 110.43 31.4008C109.993 31.6322 109.35 31.2594 109.003 30.5781C108.656 29.8968 108.708 29.1769 109.145 28.9455C109.582 28.7141 110.224 29.0869 110.571 29.7554Z" fill="#263238"/>
<path d="M117.282 27.6729C117.539 28.3928 117.372 29.1126 116.909 29.2669C116.446 29.4212 115.855 28.9841 115.623 28.2642C115.392 27.5444 115.533 26.8245 115.996 26.6702C116.459 26.516 117.025 26.9787 117.282 27.6729Z" fill="#263238"/>
<path d="M117.745 23.8164C117.219 23.4636 116.593 23.2927 115.962 23.3298C115.33 23.367 114.728 23.6102 114.248 24.0221C112.397 25.4619 115.893 32.6734 115.893 32.6734C115.893 32.6734 115.958 34.9487 113.04 33.8946" stroke="#263238" stroke-width="0.5" stroke-linecap="round" stroke-linejoin="round"/>
<path d="M117.745 36.2343C117.544 36.7077 117.237 37.128 116.846 37.4622C116.456 37.7964 115.993 38.0353 115.494 38.1599C114.996 38.2846 114.475 38.2917 113.973 38.1806C113.471 38.0695 113.002 37.8432 112.603 37.5197" stroke="#263238" stroke-width="0.5" stroke-linecap="round" stroke-linejoin="round"/>
<path d="M109.916 25.7318C109.916 25.7318 106.625 22.6338 105.185 28.6113" stroke="#263238" stroke-width="0.5" stroke-linecap="round" stroke-linejoin="round"/>
<path d="M120.727 12.5684C117.115 9.4318 114.197 9.47037 112.924 9.88173C111.733 9.13841 110.378 8.69714 108.977 8.59624C98.8735 7.24648 97.5238 15.0237 97.5238 22.4152C97.5238 29.8068 91.0963 38.5867 95.5056 39.6022C96.7122 39.8917 97.9824 39.7462 99.0923 39.1912C100.202 38.6363 101.081 37.7075 101.573 36.5684C101.573 36.5684 106.291 28.8555 106.291 23.4179C106.291 17.9803 112.165 18.4945 112.165 18.4945C112.419 18.1201 112.751 17.8049 113.138 17.5706C113.524 17.3364 113.957 17.1885 114.407 17.1372C114.856 17.0859 115.311 17.1324 115.741 17.2735C116.17 17.4146 116.565 17.6469 116.896 17.9546C119.57 20.2428 119.878 22.9294 122.038 23.6236C124.198 24.3177 127.81 20.8469 127.81 20.8469C125.752 17.8417 123.377 15.0663 120.727 12.5684Z" fill="#263238"/>
<path d="M112.448 14.5866C112.448 14.5866 108.386 11.3215 104.735 14.9851C101.085 18.6488 101.483 25.5776 100.262 30.0639C99.0406 34.5503 95.7755 35.3601 95.7755 35.3601" stroke="white" stroke-width="0.5" stroke-linecap="round" stroke-linejoin="round"/>
<path d="M109.607 13.3655C109.607 13.3655 105.224 9.02051 99.7092 14.5224C95.5057 18.7388 97.3825 21.5026 96.5598 28.4314" stroke="white" stroke-width="0.5" stroke-linecap="round" stroke-linejoin="round"/>
<path d="M114.492 12.5428C114.492 12.5428 122.205 8.87911 125.496 18.2503" stroke="white" stroke-width="0.5" stroke-linecap="round" stroke-linejoin="round"/>
<path d="M97.858 58.0747L86.1987 104.995L120.393 114.688L122.077 108.62L99.6192 98.259L107.242 71.2638C107.242 71.2638 106.239 66.2118 100.815 60.4914" fill="white"/>
<g style="mix-blend-mode:multiply" opacity="0.5">
<path d="M122.128 108.659L99.6705 98.2976L107.293 71.3024C106.696 69.0614 105.727 66.9365 104.427 65.0163L103.694 64.4636V71.9194C103.694 76.6885 97.7294 91.8959 95.6341 95.4695C93.5388 99.0432 90.2736 103.517 90.2736 103.517L96.8296 100.534L121.678 110.484L122.128 108.659Z" fill="black"/>
</g>
<path d="M97.858 58.0747L86.1987 104.995L120.393 114.688L122.077 108.62L99.6192 98.259L107.242 71.2638C107.242 71.2638 106.239 66.2118 100.815 60.4914" stroke="#263238" stroke-linecap="round" stroke-linejoin="round"/>
<path d="M194 72.1636L168.11 66.726L141.667 36.17L145.575 60.7485L161.798 76.2001L194.398 77.6912L194 72.1636Z" fill="white"/>
<g style="mix-blend-mode:multiply" opacity="0.5">
<path d="M141.667 36.17L144.817 55.7865L146.822 61.9183L147.079 62.1497C147.838 61.3655 152.118 56.9177 153.211 56.9177C154.304 56.9177 166.632 67.6516 164.845 68.4871L163.045 69.3741L193.755 74.4389L193.974 72.0865L168.136 66.6617L141.667 36.17Z" fill="black"/>
</g>
<path d="M194 72.1636L168.11 66.726L141.667 36.17L145.575 60.7485L161.798 76.2001L194.398 77.6912L194 72.1636Z" stroke="#263238" stroke-linecap="round" stroke-linejoin="round"/>
<path d="M435.684 332.333L105.995 284.025C104.947 283.869 104.004 283.304 103.372 282.453C102.741 281.602 102.473 280.535 102.627 279.487L130.085 92.1786C130.161 91.6602 130.338 91.1617 130.606 90.7117C130.874 90.2618 131.229 89.8691 131.649 89.5563C132.07 89.2435 132.547 89.0166 133.055 88.8887C133.564 88.7607 134.092 88.7342 134.61 88.8107L140.858 89.7234C141.649 89.8421 142.458 89.7191 143.178 89.3705C143.898 89.0218 144.496 88.4638 144.894 87.7694L153.185 73.4362C153.437 72.9862 153.778 72.5925 154.188 72.2793C156.129 70.8757 158.541 70.2853 160.911 70.6339L244.018 82.8203C245.882 83.088 247.619 83.9227 248.993 85.2113C249.359 85.5784 249.648 86.0156 249.841 86.4968L257.233 104.802C257.492 105.45 257.917 106.017 258.466 106.448C259.014 106.879 259.666 107.158 260.356 107.257L464.299 137.158C465.347 137.311 466.292 137.873 466.925 138.721C467.559 139.569 467.831 140.635 467.68 141.683L440.222 328.978C440.063 330.024 439.497 330.964 438.646 331.593C437.796 332.222 436.73 332.488 435.684 332.333Z" fill="#263238" stroke="#263238" stroke-miterlimit="10"/>
<path d="M439.193 331.421H112.41C111.461 331.421 110.522 331.234 109.645 330.871C108.769 330.508 107.972 329.976 107.301 329.305C106.63 328.634 106.098 327.837 105.735 326.961C105.372 326.084 105.185 325.145 105.185 324.196V141.349C105.185 139.433 105.946 137.595 107.301 136.24C108.656 134.885 110.494 134.124 112.41 134.124H113.297C114.743 134.121 116.156 133.687 117.353 132.876C118.551 132.065 119.48 130.915 120.02 129.573L124.995 117.066C125.551 115.622 126.567 114.402 127.887 113.595C129.305 112.758 130.92 112.314 132.566 112.309H216.56C217.689 112.308 218.808 112.513 219.864 112.914C221.33 113.504 222.553 114.574 223.334 115.947L231.883 130.512C232.52 131.6 233.431 132.502 234.524 133.129C235.618 133.756 236.857 134.086 238.118 134.086H439.193C441.11 134.086 442.947 134.847 444.302 136.202C445.657 137.556 446.418 139.394 446.418 141.31V324.196C446.418 325.145 446.231 326.084 445.868 326.961C445.505 327.837 444.973 328.634 444.302 329.305C443.631 329.976 442.835 330.508 441.958 330.871C441.082 331.234 440.142 331.421 439.193 331.421Z" fill="black"/>
<path opacity="0.1" d="M439.193 331.421H112.41C111.461 331.421 110.522 331.234 109.645 330.871C108.769 330.508 107.972 329.976 107.301 329.305C106.63 328.634 106.098 327.837 105.735 326.961C105.372 326.084 105.185 325.145 105.185 324.196V141.349C105.185 139.433 105.946 137.595 107.301 136.24C108.656 134.885 110.494 134.124 112.41 134.124H113.297C114.743 134.121 116.156 133.687 117.353 132.876C118.551 132.065 119.48 130.915 120.02 129.573L124.995 117.066C125.551 115.622 126.567 114.402 127.887 113.595C129.305 112.758 130.92 112.314 132.566 112.309H216.56C217.689 112.308 218.808 112.513 219.864 112.914C221.33 113.504 222.553 114.574 223.334 115.947L231.883 130.512C232.52 131.6 233.431 132.502 234.524 133.129C235.618 133.756 236.857 134.086 238.118 134.086H439.193C441.11 134.086 442.947 134.847 444.302 136.202C445.657 137.556 446.418 139.394 446.418 141.31V324.196C446.418 325.145 446.231 326.084 445.868 326.961C445.505 327.837 444.973 328.634 444.302 329.305C443.631 329.976 442.835 330.508 441.958 330.871C441.082 331.234 440.142 331.421 439.193 331.421Z" fill="#263238"/>
<path d="M439.193 331.421H112.41C111.461 331.421 110.522 331.234 109.645 330.871C108.769 330.508 107.972 329.976 107.301 329.305C106.63 328.634 106.098 327.837 105.735 326.961C105.372 326.084 105.185 325.145 105.185 324.196V141.349C105.185 139.433 105.946 137.595 107.301 136.24C108.656 134.885 110.494 134.124 112.41 134.124H113.297C114.743 134.121 116.156 133.687 117.353 132.876C118.551 132.065 119.48 130.915 120.02 129.573L124.995 117.066C125.551 115.622 126.567 114.402 127.887 113.595C129.305 112.758 130.92 112.314 132.566 112.309H216.56C217.689 112.308 218.808 112.513 219.864 112.914C221.33 113.504 222.553 114.574 223.334 115.947L231.883 130.512C232.52 131.6 233.431 132.502 234.524 133.129C235.618 133.756 236.857 134.086 238.118 134.086H439.193C441.11 134.086 442.947 134.847 444.302 136.202C445.657 137.556 446.418 139.394 446.418 141.31V324.196C446.418 325.145 446.231 326.084 445.868 326.961C445.505 327.837 444.973 328.634 444.302 329.305C443.631 329.976 442.835 330.508 441.958 330.871C441.082 331.234 440.142 331.421 439.193 331.421V331.421Z" stroke="#263238" stroke-miterlimit="10"/>
<path d="M197.522 133.507H145.228C143.98 133.507 142.784 133.011 141.901 132.129C141.019 131.247 140.523 130.05 140.523 128.802C140.522 128.183 140.642 127.57 140.878 126.998C141.114 126.425 141.46 125.905 141.897 125.467C142.334 125.029 142.853 124.681 143.425 124.444C143.996 124.207 144.609 124.084 145.228 124.084H197.522C198.773 124.084 199.973 124.582 200.858 125.466C201.743 126.351 202.24 127.551 202.24 128.802C202.24 129.421 202.118 130.034 201.88 130.606C201.643 131.177 201.295 131.697 200.857 132.134C200.419 132.571 199.899 132.917 199.326 133.153C198.754 133.388 198.141 133.509 197.522 133.507Z" fill="white"/>
<path d="M439.193 363.326H112.41C110.494 363.326 108.656 362.565 107.301 361.21C105.946 359.856 105.185 358.018 105.185 356.102V173.254C105.185 171.338 105.946 169.501 107.301 168.146C108.656 166.791 110.494 166.03 112.41 166.03H113.297C114.743 166.029 116.157 165.595 117.355 164.784C118.553 163.973 119.481 162.822 120.02 161.479L124.995 148.984C125.547 147.539 126.565 146.318 127.887 145.514C129.302 144.671 130.919 144.227 132.566 144.228H216.56C217.689 144.227 218.808 144.432 219.864 144.832C221.333 145.424 222.558 146.498 223.334 147.879L231.883 162.456C232.52 163.544 233.431 164.446 234.524 165.073C235.618 165.7 236.857 166.03 238.118 166.03H439.193C441.11 166.03 442.947 166.791 444.302 168.146C445.657 169.501 446.418 171.338 446.418 173.254V356.102C446.418 358.018 445.657 359.856 444.302 361.21C442.947 362.565 441.11 363.326 439.193 363.326Z" fill="#263238" stroke="#263238" stroke-miterlimit="10"/>
<path d="M222.576 95.8037L170.694 89.3763C169.455 89.2189 168.328 88.5778 167.56 87.5928C166.791 86.6078 166.444 85.3589 166.593 84.1186C166.75 82.8778 167.394 81.7502 168.382 80.9836C169.37 80.2171 170.623 79.8743 171.864 80.0308L223.733 86.4582C224.974 86.6124 226.102 87.2527 226.871 88.2385C227.64 89.2243 227.986 90.475 227.834 91.7159C227.757 92.3297 227.561 92.9225 227.255 93.4603C226.95 93.9982 226.541 94.4704 226.053 94.8501C225.564 95.2298 225.006 95.5095 224.409 95.6731C223.813 95.8367 223.19 95.8811 222.576 95.8037Z" fill="black"/>
<path opacity="0.5" d="M222.576 95.8037L170.694 89.3763C169.455 89.2189 168.328 88.5778 167.56 87.5928C166.791 86.6078 166.444 85.3589 166.593 84.1186C166.75 82.8778 167.394 81.7502 168.382 80.9836C169.37 80.2171 170.623 79.8743 171.864 80.0308L223.733 86.4582C224.974 86.6124 226.102 87.2527 226.871 88.2385C227.64 89.2243 227.986 90.475 227.834 91.7159C227.757 92.3297 227.561 92.9225 227.255 93.4603C226.95 93.9982 226.541 94.4704 226.053 94.8501C225.564 95.2298 225.006 95.5095 224.409 95.6731C223.813 95.8367 223.19 95.8811 222.576 95.8037Z" fill="white"/>
<path d="M197.522 165.426H145.228C144.609 165.426 143.996 165.304 143.425 165.066C142.853 164.829 142.334 164.481 141.897 164.043C141.46 163.605 141.114 163.085 140.878 162.512C140.642 161.94 140.522 161.327 140.523 160.708C140.523 159.459 141.019 158.261 141.901 157.377C142.783 156.492 143.979 155.994 145.228 155.99H197.522C198.773 155.99 199.973 156.487 200.858 157.372C201.743 158.257 202.24 159.457 202.24 160.708C202.24 161.959 201.743 163.159 200.858 164.044C199.973 164.929 198.773 165.426 197.522 165.426Z" fill="black"/>
<path opacity="0.5" d="M197.522 165.426H145.228C144.609 165.426 143.996 165.304 143.425 165.066C142.853 164.829 142.334 164.481 141.897 164.043C141.46 163.605 141.114 163.085 140.878 162.512C140.642 161.94 140.522 161.327 140.523 160.708C140.523 159.459 141.019 158.261 141.901 157.377C142.783 156.492 143.979 155.994 145.228 155.99H197.522C198.773 155.99 199.973 156.487 200.858 157.372C201.743 158.257 202.24 159.457 202.24 160.708C202.24 161.959 201.743 163.159 200.858 164.044C199.973 164.929 198.773 165.426 197.522 165.426Z" fill="white"/>
<path d="M449.876 221.023H101.715C97.9731 221.023 94.94 224.056 94.94 227.798V438.476C94.94 442.218 97.9731 445.251 101.715 445.251H449.876C453.617 445.251 456.65 442.218 456.65 438.476V227.798C456.65 224.056 453.617 221.023 449.876 221.023Z" fill="white"/>
<g style="mix-blend-mode:multiply">
<path d="M456.65 281.377C416.556 318.849 371.001 350.014 321.546 373.803C248.466 408.756 164.935 432.846 116.266 445.251H449.863C450.754 445.252 451.636 445.078 452.46 444.739C453.283 444.399 454.031 443.9 454.662 443.271C455.292 442.642 455.792 441.894 456.133 441.072C456.475 440.249 456.65 439.367 456.65 438.476V281.377Z" fill="black"/>
</g>
<path opacity="0.2" d="M456.65 281.377C416.556 318.849 371.001 350.014 321.546 373.803C248.466 408.756 164.935 432.846 116.266 445.251H449.863C450.754 445.252 451.636 445.078 452.46 444.739C453.283 444.399 454.031 443.9 454.662 443.271C455.292 442.642 455.792 441.894 456.133 441.072C456.475 440.249 456.65 439.367 456.65 438.476V281.377Z" fill="white"/>
<path d="M449.876 221.023H101.715C97.9731 221.023 94.94 224.056 94.94 227.798V438.476C94.94 442.218 97.9731 445.251 101.715 445.251H449.876C453.617 445.251 456.65 442.218 456.65 438.476V227.798C456.65 224.056 453.617 221.023 449.876 221.023Z" stroke="#263238" stroke-miterlimit="10"/>
<path d="M100.172 240.717V231.718C100.175 229.92 100.892 228.197 102.164 226.927C103.437 225.657 105.161 224.944 106.959 224.944H121.678" stroke="#263238" stroke-miterlimit="10"/>
<path d="M100.172 377.377V251.682" stroke="#263238" stroke-miterlimit="10"/>
<path d="M451.406 420.261V434.491C451.407 435.382 451.233 436.264 450.894 437.088C450.554 437.911 450.055 438.659 449.426 439.29C448.797 439.92 448.049 440.42 447.227 440.762C446.404 441.103 445.522 441.278 444.631 441.278H432.766" stroke="#263238" stroke-miterlimit="10"/>
<path d="M451.406 237.554V409.681" stroke="#263238" stroke-miterlimit="10"/>
<path d="M329.567 303.011H222.01C220.072 303.011 218.501 304.583 218.501 306.521V361.398C218.501 363.336 220.072 364.908 222.01 364.908H329.567C331.505 364.908 333.077 363.336 333.077 361.398V306.521C333.077 304.583 331.505 303.011 329.567 303.011Z" fill="#263238" stroke="#263238" stroke-miterlimit="10"/>
<path d="M329.567 303.011H222.01C220.072 303.011 218.501 304.583 218.501 306.521V318.322C218.501 320.26 220.072 321.831 222.01 321.831H329.567C331.505 321.831 333.077 320.26 333.077 318.322V306.521C333.077 304.583 331.505 303.011 329.567 303.011Z" fill="white" stroke="#263238" stroke-miterlimit="10"/>
<path d="M120.393 114.688L122.745 119.071L127.746 122.67C128.06 122.901 128.437 123.032 128.826 123.046C129.216 123.06 129.601 122.956 129.931 122.748L130.368 122.465C130.686 122.272 130.923 121.969 131.034 121.615C131.145 121.26 131.123 120.876 130.972 120.536L128.131 114.006L130.047 115.497C130.351 115.732 130.734 115.839 131.115 115.795C131.497 115.752 131.847 115.562 132.091 115.266C132.302 115.001 132.418 114.673 132.418 114.334C132.418 113.995 132.302 113.666 132.091 113.402L127.63 107.759L122.051 108.62L120.393 114.688Z" fill="white" stroke="#263238" stroke-miterlimit="10"/>
<path d="M130.419 122.465L125.946 116.59" stroke="#263238" stroke-width="0.5" stroke-linecap="round" stroke-linejoin="round"/>
<path d="M127.797 122.67L124.288 118.017" stroke="#263238" stroke-width="0.5" stroke-linecap="round" stroke-linejoin="round"/>
<path d="M194 72.1636L200.993 72.575L209.503 78.0126C209.503 78.0126 209.978 79.6709 208.796 79.9023C207.613 80.1337 201.224 77.7812 201.224 77.7812L194.398 77.6912L194 72.1636Z" fill="white" stroke="#263238" stroke-miterlimit="10"/>
<path d="M194.359 76.8299L201.7 80.1465C201.7 80.1465 202.882 78.4882 201.224 77.7812L198.807 76.1229" fill="white"/>
<path d="M194.359 76.8299L201.7 80.1465C201.7 80.1465 202.882 78.4882 201.224 77.7812L198.807 76.1229" stroke="#263238" stroke-linejoin="round"/>
<path d="M453.681 202.191L450.647 193.115L447.241 188.449C447.184 188.364 447.102 188.299 447.005 188.266C446.909 188.233 446.804 188.232 446.708 188.264C446.611 188.297 446.528 188.36 446.47 188.444C446.413 188.529 446.386 188.63 446.392 188.732V202.178L448.963 205.559L453.681 202.191Z" fill="white"/>
<path d="M503.121 241.874L477.668 242.773C476.729 242.806 475.8 242.571 474.989 242.095C474.179 241.62 473.521 240.923 473.092 240.087L453.681 202.191C453.681 202.191 449.31 204.556 448.976 205.559C448.642 206.561 463.348 243.442 467.86 254.767C468.239 255.718 468.904 256.528 469.763 257.085C470.621 257.642 471.632 257.919 472.655 257.878L501.102 256.67" fill="white"/>
<path d="M503.121 241.874L477.668 242.773C476.729 242.806 475.8 242.571 474.989 242.095C474.179 241.62 473.521 240.923 473.092 240.087L453.681 202.191C453.681 202.191 449.31 204.556 448.976 205.559C448.642 206.561 463.348 243.442 467.86 254.767C468.239 255.718 468.904 256.528 469.763 257.085C470.621 257.642 471.632 257.919 472.655 257.878L501.102 256.67" stroke="#263238" stroke-miterlimit="10"/>
<path d="M455.545 206.908L451.56 208.554" stroke="#263238" stroke-width="0.75" stroke-miterlimit="10"/>
<g opacity="0.5">
<g opacity="0.5">
<path d="M503.121 241.874L477.668 242.773C476.729 242.806 475.8 242.571 474.989 242.095C474.179 241.62 473.521 240.923 473.092 240.087L453.681 202.191C453.681 202.191 449.31 204.556 448.976 205.559C448.642 206.561 463.348 243.442 467.86 254.767C468.239 255.718 468.904 256.528 469.763 257.085C470.621 257.642 471.632 257.919 472.655 257.878L501.102 256.67" fill="black"/>
<path d="M503.121 241.874L477.668 242.773C476.729 242.806 475.8 242.571 474.989 242.095C474.179 241.62 473.521 240.923 473.092 240.087L453.681 202.191C453.681 202.191 449.31 204.556 448.976 205.559C448.642 206.561 463.348 243.442 467.86 254.767C468.239 255.718 468.904 256.528 469.763 257.085C470.621 257.642 471.632 257.919 472.655 257.878L501.102 256.67" stroke="#263238" stroke-miterlimit="10"/>
</g>
<path opacity="0.5" d="M455.545 206.908L451.56 208.554" stroke="#263238" stroke-width="0.75" stroke-miterlimit="10"/>
</g>
<path d="M453.681 202.191L450.647 193.115L447.241 188.449C447.184 188.364 447.102 188.299 447.005 188.266C446.909 188.233 446.804 188.232 446.708 188.264C446.611 188.297 446.528 188.36 446.47 188.444C446.413 188.529 446.386 188.63 446.392 188.732V202.178L448.963 205.559L453.681 202.191Z" fill="black"/>
<path opacity="0.5" d="M453.681 202.191L450.647 193.115L447.241 188.449C447.184 188.364 447.102 188.299 447.005 188.266C446.909 188.233 446.804 188.232 446.708 188.264C446.611 188.297 446.528 188.36 446.47 188.444C446.413 188.529 446.386 188.63 446.392 188.732V202.178L448.963 205.559L453.681 202.191Z" fill="white"/>
<path d="M453.681 202.191L450.647 193.115L447.241 188.449C447.184 188.364 447.102 188.299 447.005 188.266C446.909 188.233 446.804 188.232 446.708 188.264C446.611 188.297 446.528 188.36 446.47 188.444C446.413 188.529 446.386 188.63 446.392 188.732V202.178L448.963 205.559L453.681 202.191Z" stroke="#263238" stroke-miterlimit="10"/>
<path d="M511.001 217.925C509.778 219.474 508.902 221.267 508.43 223.183C508.057 225.651 508.648 235.151 508.648 235.151L495.408 236.642C495.408 236.642 496.41 226.988 496.462 225.381C496.886 223.388 497.73 221.509 498.938 219.868C500.146 218.228 501.69 216.864 503.468 215.868C508.018 213.632 511.888 214.724 511.001 217.925Z" fill="white"/>
<g style="mix-blend-mode:multiply" opacity="0.5">
<path d="M510.911 218.028C508.507 217.372 505.589 216.64 503.121 216.048C501.424 217.058 499.954 218.407 498.801 220.011C497.649 221.614 496.84 223.438 496.423 225.368C496.423 225.985 496.243 227.785 496.063 229.764C497.349 229.469 499.393 229.019 500.91 228.749C502.111 228.555 503.294 228.258 504.445 227.862L503.995 235.575H504.291L508.61 235.086C508.61 235.086 508.018 225.587 508.391 223.118C508.861 221.262 509.72 219.527 510.911 218.028Z" fill="black"/>
</g>
<path d="M511.001 217.925C509.778 219.474 508.902 221.267 508.43 223.183C508.057 225.651 508.648 235.151 508.648 235.151L495.408 236.642C495.408 236.642 496.41 226.988 496.462 225.381C496.886 223.388 497.73 221.509 498.938 219.868C500.146 218.228 501.69 216.864 503.468 215.868C508.018 213.632 511.888 214.724 511.001 217.925Z" stroke="#263238" stroke-width="1.00396" stroke-miterlimit="10"/>
<path d="M513.752 219.558C524.73 205.057 498.262 189.991 491.307 204.402C490.338 206.179 489.57 208.059 489.019 210.006C487.965 210.649 485.162 212.372 484.648 212.847C484.134 213.323 485.934 214.544 486.924 215.148C485.034 219.789 485.317 224.674 485.857 225.779C486.795 227.682 491.423 227.708 494.469 227.142C497.516 226.576 498.724 223.658 499.611 222.861C500.498 222.064 504.92 223.08 506.476 223.543C508.031 224.005 511.618 222.424 513.752 219.558Z" fill="white"/>
<g style="mix-blend-mode:multiply" opacity="0.5">
<path d="M502.889 218.169C502.889 218.169 503.121 219.262 500.91 220.149C498.698 221.036 498.261 220.367 497.606 221.91C497.327 222.924 496.764 223.838 495.983 224.542C495.201 225.246 494.234 225.711 493.197 225.882C491.102 226.28 488.986 226.55 486.859 226.692C488.607 227.669 492.078 227.592 494.572 227.142C497.606 226.589 498.827 223.658 499.714 222.861C500.601 222.064 505.023 223.08 506.579 223.543C506.943 223.615 507.319 223.615 507.684 223.543C508.264 222.251 508.612 220.867 508.712 219.455L502.889 218.169Z" fill="black"/>
</g>
<path d="M513.752 219.558C524.73 205.057 498.262 189.991 491.307 204.402C490.338 206.179 489.57 208.059 489.019 210.006C487.965 210.649 485.162 212.372 484.648 212.847C484.134 213.323 485.934 214.544 486.924 215.148C485.034 219.789 485.317 224.674 485.857 225.779C486.795 227.682 491.423 227.708 494.469 227.142C497.516 226.576 498.724 223.658 499.611 222.861C500.498 222.064 504.92 223.08 506.476 223.543C508.031 224.005 511.618 222.424 513.752 219.558Z" stroke="#263238" stroke-miterlimit="10"/>
<path d="M492.31 211.279C492.027 211.896 491.551 212.282 491.243 212.14C490.934 211.999 490.909 211.382 491.243 210.765C491.577 210.148 492.001 209.762 492.31 209.904C492.618 210.045 492.593 210.662 492.31 211.279Z" fill="#263238"/>
<path d="M492.053 207.32C492.053 207.32 493.338 206.253 493.595 208.708" stroke="#263238" stroke-width="0.5" stroke-linecap="round" stroke-linejoin="round"/>
<path d="M486.667 217.642C486.667 217.642 486.667 218.928 488.98 218.928" stroke="#263238" stroke-width="0.5" stroke-linecap="round" stroke-linejoin="round"/>
<path d="M483.53 301.765L482.514 314.337C482.514 314.337 475.483 364.393 475.817 370.14C476.151 375.886 476.91 435.25 476.91 435.25L485.381 436.599L494.893 370.757L508.25 303.847L483.53 301.765Z" fill="black" stroke="#263238" stroke-miterlimit="10"/>
<path opacity="0.2" d="M483.53 301.765L482.514 314.337C482.514 314.337 475.483 364.393 475.817 370.14C476.151 375.886 476.91 435.25 476.91 435.25L485.381 436.599L494.893 370.757L508.25 303.847L483.53 301.765Z" fill="#263238"/>
<path d="M494.251 347.489C494.251 347.489 490.999 366.63 488.543 376.014C486.088 385.398 486.101 394.757 486.101 404.938C486.101 415.119 482.437 433.887 482.437 433.887" stroke="#263238" stroke-width="0.75" stroke-miterlimit="10"/>
<path d="M500.717 298.679C506.296 295.748 512.286 293.807 513.996 297.702C517.39 305.492 513.328 317.332 513.328 317.332L516.425 371.939L522.094 437.82L513.623 436.458C513.623 436.458 500.614 380.861 498.583 377.467C496.552 374.073 493.351 326.472 493.351 326.472L486.924 320.623" fill="black"/>
<path d="M500.717 298.679C506.296 295.748 512.286 293.807 513.996 297.702C517.39 305.492 513.328 317.332 513.328 317.332L516.425 371.939L522.094 437.82L513.623 436.458C513.623 436.458 500.614 380.861 498.583 377.467C496.552 374.073 493.351 326.472 493.351 326.472L486.924 320.623" stroke="#263238" stroke-miterlimit="10"/>
<g opacity="0.2">
<path opacity="0.2" d="M500.717 298.679C506.296 295.748 512.286 293.807 513.996 297.702C517.39 305.492 513.328 317.332 513.328 317.332L516.425 371.939L522.094 437.82L513.623 436.458C513.623 436.458 500.614 380.861 498.583 377.467C496.552 374.073 493.351 326.472 493.351 326.472L486.924 320.623" fill="#263238"/>
</g>
<path d="M507.324 340.046C507.517 352.708 508.803 358.802 509.805 362.144C511.026 366.219 510.615 373.957 510.615 377.57C510.615 381.182 508.982 376.76 512.659 393.471C516.335 410.182 518.765 433.398 518.765 433.398" stroke="#263238" stroke-width="0.75" stroke-miterlimit="10"/>
<path d="M507.324 312.447C507.324 312.447 507.723 311.624 507.324 330.778C507.324 331.806 507.324 332.796 507.324 333.76" stroke="#263238" stroke-width="0.75" stroke-miterlimit="10"/>
<path d="M488.518 308.809L488.248 314.542L486.924 318.527L488.903 320.841" stroke="#263238" stroke-width="0.75" stroke-linecap="round" stroke-linejoin="round"/>
<path d="M485.921 312.228C485.921 312.228 489.237 315.545 497.85 314.542" stroke="#263238" stroke-width="0.75" stroke-linecap="round" stroke-linejoin="round"/>
<path d="M506.27 309.362C512.698 308.076 513.109 306.302 515.333 304.811C515.374 302.38 514.938 299.965 514.047 297.702C512.363 293.846 506.334 295.748 500.768 298.679L498.069 302.947L483.581 301.765L483.119 307.446C490.557 309.998 498.514 310.656 506.27 309.362Z" fill="#263238"/>
<path d="M484.983 305.698L484.841 307.961L488.518 308.809L488.8 305.84L484.983 305.698Z" fill="white" stroke="#263238" stroke-width="0.75" stroke-miterlimit="10"/>
<path d="M510.641 309.053L510.024 303.423L511.888 302.806L512.826 307.806" fill="black"/>
<path d="M510.641 309.053L510.024 303.423L511.888 302.806L512.826 307.806" stroke="#263238" stroke-miterlimit="10"/>
<path d="M496.269 310.93L495.022 304.361H498.146L499.393 309.992" fill="black"/>
<path d="M496.269 310.93L495.022 304.361H498.146L499.393 309.992" stroke="#263238" stroke-miterlimit="10"/>
<g opacity="0.2">
<path opacity="0.2" d="M510.641 309.053L510.024 303.423L511.888 302.806L512.826 307.806" fill="#263238"/>
<path opacity="0.2" d="M496.269 310.93L495.022 304.361H498.146L499.393 309.992" fill="#263238"/>
</g>
<path d="M481.872 251.939C481.872 251.939 480.805 259.073 477.604 271.221C474.403 283.369 471.176 297.934 471.176 297.934L472.963 305.415L478.298 297.574L481.872 251.939Z" fill="#263238" stroke="#263238" stroke-miterlimit="10"/>
<path d="M490.78 241.617C490.78 241.617 483.298 243.391 482.591 246.951C482.21 248.59 481.969 250.259 481.872 251.939L493.274 242.684L507.53 236.976L490.78 241.617Z" fill="#263238" stroke="#263238" stroke-miterlimit="10"/>
<path d="M492.824 238.866C492.824 238.866 486.743 245.743 484.327 248.571C481.91 251.399 481.897 281.749 481.897 286.21C481.897 290.671 479.48 302.78 483.517 305.21C487.553 307.639 512.248 306.829 514.677 302.78C517.107 298.731 518.714 250.191 518.315 245.743C518.012 243.747 517.226 241.856 516.025 240.234C514.824 238.612 513.245 237.308 511.425 236.436C508.61 235.138 492.824 238.866 492.824 238.866Z" fill="white"/>
<g style="mix-blend-mode:multiply" opacity="0.5">
<path d="M511.425 236.436C511.089 236.3 510.733 236.222 510.371 236.205L508.623 237.117C511.565 239.528 513.589 242.878 514.356 246.604C515.169 252.018 515.095 257.527 514.137 262.917C513.263 268.869 499.148 262.917 501.797 265.128C504.445 267.339 514.356 271.08 514.806 273.06C515.256 275.039 509.895 278.343 507.967 278.574C506.039 278.806 509.252 283.202 511.271 286.943C513.289 290.684 512.556 295.941 507.967 299.515C503.378 303.089 492.721 304.85 488.119 305.03C486.628 305.03 485.702 305.415 485.419 305.852C492.49 307.434 512.505 306.405 514.677 302.78C517.107 298.731 518.714 250.191 518.315 245.743C518.012 243.748 517.226 241.856 516.025 240.234C514.824 238.612 513.245 237.308 511.425 236.436Z" fill="black"/>
</g>
<path d="M492.824 238.866C492.824 238.866 486.743 245.743 484.327 248.571C481.91 251.399 481.897 281.749 481.897 286.21C481.897 290.671 479.48 302.78 483.517 305.21C487.553 307.639 512.248 306.829 514.677 302.78C517.107 298.731 518.714 250.191 518.315 245.743C518.012 243.747 517.226 241.856 516.025 240.234C514.824 238.612 513.245 237.308 511.425 236.436C508.61 235.138 492.824 238.866 492.824 238.866Z" stroke="#263238" stroke-miterlimit="10"/>
<path d="M505.255 269.653C498.737 267.622 493.03 261.94 493.03 261.94C494.476 268.692 498.403 274.655 504.033 278.651" fill="white"/>
<path d="M505.255 269.653C498.737 267.622 493.03 261.94 493.03 261.94C494.476 268.692 498.403 274.655 504.033 278.651" stroke="#263238" stroke-width="0.75" stroke-linecap="round" stroke-linejoin="round"/>
<path d="M510.217 231.988L490.793 236.436L489.584 242.105L511.425 236.436L510.217 231.988Z" fill="white" stroke="#263238" stroke-miterlimit="10"/>
<path d="M486.512 445.084L485.381 436.548L476.91 435.198L469.852 440.224L463.528 443.695V445.084H486.512Z" fill="#263238" stroke="#263238" stroke-miterlimit="10"/>
<path d="M523.149 445.752L522.094 437.821L513.623 436.458L506.566 441.484L500.241 444.968V445.752H523.149Z" fill="#263238" stroke="#263238" stroke-miterlimit="10"/>
<path d="M449.979 194.786L444.759 191.765C444.759 191.765 442.728 191.521 443.603 193.784L448.822 197.807" fill="white"/>
<path d="M449.979 194.786L444.759 191.765C444.759 191.765 442.728 191.521 443.603 193.784L448.822 197.807" stroke="#263238" stroke-linecap="round" stroke-linejoin="round"/>
<path d="M449.207 202.641C448.962 202.021 448.6 201.453 448.14 200.969L447.163 199.915L441.854 193.334C441.854 193.334 440.209 192.228 440.569 194.619L443.86 201.047L438.011 195.558C438.011 195.558 436.905 194.645 436.905 195.93C436.905 197.216 442.214 202.885 442.214 202.885L436.352 200.134C436.352 200.134 435.067 201.047 435.993 201.959C436.918 202.872 441.841 204.71 441.841 204.71L437.458 204.53C437.458 204.53 436.172 205.623 437.085 205.996C437.998 206.369 443.127 207.448 443.127 207.448C443.779 208.002 444.523 208.437 445.325 208.734L446.611 211.112L451.534 208.631L449.207 202.641Z" fill="white" stroke="#263238" stroke-linecap="round" stroke-linejoin="round"/>
<path d="M501.771 259.703L472.436 266.581C470.934 266.845 469.387 266.581 468.059 265.834C466.73 265.086 465.701 263.901 465.147 262.48L446.636 211.061L451.56 208.58L472.012 246.463C472.476 247.329 473.206 248.023 474.095 248.442C474.984 248.862 475.985 248.983 476.948 248.79L499.38 242.452" fill="white"/>
<path d="M501.771 259.703L472.436 266.581C470.934 266.845 469.387 266.581 468.059 265.834C466.73 265.086 465.701 263.901 465.147 262.48L446.636 211.061L451.56 208.58L472.012 246.463C472.476 247.329 473.206 248.023 474.095 248.442C474.984 248.862 475.985 248.983 476.948 248.79L499.38 242.452" stroke="#263238" stroke-miterlimit="10"/>
<path d="M454.324 213.426L448.616 216.28" stroke="#263238" stroke-width="0.75" stroke-miterlimit="10"/>
<path d="M498.12 204.556C498.12 204.556 494.996 207.68 496.552 210.019C497.473 211.371 498.176 212.859 498.634 214.429C498.634 214.429 497.349 217.552 498.377 217.552C499.406 217.552 498.891 215.213 500.717 215.74C502.542 216.267 504.355 219.378 502.799 220.419C501.636 221.069 500.402 221.587 499.123 221.961C498.96 222.011 498.815 222.108 498.706 222.239C498.597 222.37 498.529 222.53 498.51 222.699C498.49 222.869 498.521 223.04 498.598 223.192C498.675 223.344 498.795 223.471 498.943 223.556C500.634 224.698 502.582 225.404 504.612 225.612C506.272 225.648 507.931 225.475 509.548 225.098C509.548 225.098 514.69 218.079 518.392 216.254C522.094 214.429 520.475 206.111 520.475 205.07C520.475 204.029 516.837 201.689 516.837 201.689C516.837 201.689 517.878 199.35 513.199 194.156C508.52 188.963 499.676 187.909 499.418 189.734C499.328 190.218 499.378 190.717 499.563 191.172C499.747 191.628 500.059 192.021 500.46 192.305C500.46 192.305 492.657 188.924 489.019 192.562C485.381 196.2 498.12 204.556 498.12 204.556Z" fill="#263238" stroke="#263238" stroke-miterlimit="10"/>
<path d="M498.12 204.556C498.12 204.556 504.445 212.269 513.816 213.014" stroke="white" stroke-width="0.5" stroke-linecap="round" stroke-linejoin="round"/>
<path d="M495.883 206.908C495.883 206.908 498.827 215.47 511.001 217.912" stroke="white" stroke-width="0.5" stroke-linecap="round" stroke-linejoin="round"/>
</svg>
