<svg width="489" height="364" viewBox="0 0 489 364" fill="none" xmlns="http://www.w3.org/2000/svg">
<path d="M239.145 363.657C343.669 363.657 428.402 358.71 428.402 352.607C428.402 346.505 343.669 341.558 239.145 341.558C134.622 341.558 49.8887 346.505 49.8887 352.607C49.8887 358.71 134.622 363.657 239.145 363.657Z" fill="#F5F5F5"/>
<path d="M303.392 77.8149V184.298H209.071V52.6803H278.248L303.392 77.8149Z" fill="black"/>
<path opacity="0.8" d="M303.392 77.8149V184.298H209.071V52.6803H278.248L303.392 77.8149Z" fill="white"/>
<path opacity="0.2" d="M303.392 123.799H209.071V130.232H303.392V123.799Z" fill="black"/>
<path d="M303.392 77.8149H278.248V52.6803L303.392 77.8149Z" fill="black"/>
<path d="M276.793 268.906H208.242C208.242 268.906 212.546 325.354 199.935 348.234H285.09C272.489 325.354 276.793 268.906 276.793 268.906Z" fill="black"/>
<path opacity="0.2" d="M278.131 323.88C274.509 298.785 276.793 268.906 276.793 268.906H208.242C208.242 268.906 210.291 295.808 207.412 319.996L278.131 323.88Z" fill="black"/>
<path d="M294.988 346.253H190.047C189.116 346.255 188.224 346.626 187.565 347.285C186.907 347.943 186.536 348.836 186.533 349.767H298.502C298.499 348.836 298.128 347.943 297.47 347.285C296.811 346.626 295.919 346.255 294.988 346.253Z" fill="black"/>
<path d="M393.886 237.964H392.881V244.836H393.886V237.964Z" fill="black"/>
<path d="M393.886 212.068H392.881V231.766H393.886V212.068Z" fill="black"/>
<path d="M383.462 128.631H101.573C97.7618 128.631 94.6721 131.72 94.6721 135.532V306.242C94.6721 310.054 97.7618 313.143 101.573 313.143H383.462C387.273 313.143 390.363 310.054 390.363 306.242V135.532C390.363 131.72 387.273 128.631 383.462 128.631Z" fill="black"/>
<path d="M380.738 133.062H104.287C101.381 133.062 99.0255 135.418 99.0255 138.323V263.645C99.0255 266.551 101.381 268.906 104.287 268.906H380.738C383.644 268.906 386 266.551 386 263.645V138.323C386 135.418 383.644 133.062 380.738 133.062Z" fill="white"/>
<path opacity="0.9" d="M94.6819 273.309V306.223C94.687 308.051 95.4158 309.804 96.7088 311.097C98.0019 312.39 99.7542 313.119 101.583 313.124H383.462C385.29 313.119 387.043 312.39 388.336 311.097C389.629 309.804 390.358 308.051 390.363 306.223V273.309H94.6819Z" fill="white"/>
<path opacity="0.5" d="M242.513 299.888C246.184 299.888 249.16 296.912 249.16 293.241C249.16 289.569 246.184 286.593 242.513 286.593C238.841 286.593 235.865 289.569 235.865 293.241C235.865 296.912 238.841 299.888 242.513 299.888Z" fill="black"/>
<path opacity="0.4" d="M173.131 108.494V204.591H269.229L173.131 108.494ZM194.244 159.485L218.237 183.507H194.244V159.485Z" fill="black"/>
<path d="M283.255 219.916V239.692C283.263 242.89 284.536 245.955 286.797 248.218C289.057 250.48 292.121 251.756 295.32 251.766H365.062C368.261 251.756 371.326 250.48 373.589 248.218C375.851 245.956 377.126 242.891 377.137 239.692V169.959C377.126 166.761 375.85 163.697 373.588 161.436C371.326 159.175 368.26 157.902 365.062 157.894H295.32C292.122 157.902 289.058 159.176 286.797 161.437C284.536 163.697 283.263 166.762 283.255 169.959V191.638" fill="white"/>
<path d="M365.062 252.264H361.158V251.288H365.17V252.264H365.062ZM357.175 252.264H353.154V251.288H357.175V252.264ZM349.123 252.264H345.101V251.288H349.123V252.264ZM341.079 252.264H337.048V251.288H341.07L341.079 252.264ZM333.036 252.264H329.015V251.288H333.036V252.264ZM324.993 252.264H320.962V251.288H324.993V252.264ZM316.94 252.264H312.919V251.288H316.94V252.264ZM308.897 252.264H304.876V251.288H308.897V252.264ZM300.854 252.264H296.823V251.288H300.854V252.264ZM292.723 251.991C291.344 251.7 290.024 251.179 288.819 250.448L289.346 249.589C290.444 250.261 291.649 250.74 292.909 251.005L292.723 251.991ZM369.328 251.512L368.986 250.536C370.195 250.093 371.323 249.453 372.324 248.643L372.959 249.423C371.872 250.32 370.641 251.026 369.318 251.512H369.328ZM285.686 247.735C284.786 246.661 284.073 245.443 283.577 244.133L284.553 243.782C285.018 244.984 285.677 246.103 286.506 247.091L285.686 247.735ZM375.721 246.339L374.872 245.802C375.557 244.712 376.052 243.514 376.336 242.259L377.312 242.483C377.001 243.85 376.46 245.154 375.712 246.339H375.721ZM282.767 240.043C282.767 239.926 282.767 239.809 282.767 239.692V236.012H283.743V240.014L282.767 240.043ZM377.634 238.374H376.658V234.352H377.634V238.374ZM283.763 231.98H282.787V227.959H283.763V231.98ZM377.625 230.36H376.649V226.339H377.625V230.36ZM283.753 223.967H282.777V219.916H283.753V223.967ZM377.625 222.307H376.649V218.256H377.625V222.307ZM377.625 214.264H376.649V210.243H377.625V214.264ZM377.625 206.221H376.649V202.2H377.625V206.221ZM377.625 198.178H376.649V194.147H377.625V198.178ZM283.753 191.072H282.777V187.041H283.753V191.072ZM377.625 190.096H376.649V186.074H377.625V190.096ZM283.753 182.99H282.777V178.968H283.753V182.99ZM377.625 182.014H376.649V177.992H377.625V182.014ZM283.753 174.908H282.777V170.886H283.753V174.908ZM377.625 173.932H376.649V169.9H377.625V173.932ZM284.124 166.982L283.148 166.728C283.499 165.37 284.08 164.083 284.866 162.921L285.695 163.487C284.97 164.579 284.438 165.787 284.124 167.06V166.982ZM375.985 166.123C375.568 164.903 374.944 163.764 374.14 162.755L374.931 162.131C375.801 163.23 376.48 164.467 376.941 165.791L375.985 166.123ZM288.331 160.686L287.716 159.886C288.83 159.036 290.076 158.376 291.406 157.933L291.718 158.909C290.495 159.337 289.35 159.964 288.331 160.764V160.686ZM371.3 160.169C370.219 159.466 369.028 158.951 367.776 158.646L368.02 157.67C369.4 158.022 370.711 158.606 371.895 159.397L371.3 160.169ZM363.901 158.314H359.889V157.338H363.91L363.901 158.314ZM355.858 158.314H351.836V157.338H355.858V158.314ZM347.815 158.314H343.783V157.338H347.815V158.314ZM339.762 158.314H335.779V157.338H339.801L339.762 158.314ZM331.719 158.314H327.697V157.338H331.719V158.314ZM323.676 158.314H319.644V157.338H323.676V158.314ZM315.623 158.314H311.601V157.338H315.623V158.314ZM307.58 158.314H303.568V157.338H307.589L307.58 158.314ZM299.537 158.314H295.515V157.338H299.537V158.314Z" fill="black"/>
<path d="M283.421 206.807V194.547C281.936 197.706 281.15 201.149 281.117 204.64L282.767 206.289V207.471L280.317 209.921C280.325 209.76 280.301 209.599 280.246 209.448C280.191 209.297 280.105 209.159 279.995 209.042C279.409 208.447 278.189 208.71 277.281 209.618C276.374 210.526 276.11 211.736 276.705 212.332C277.301 212.927 278.511 212.663 279.419 211.756L282.767 208.408V213.766C282.767 215.055 283.441 216.099 284.27 216.099C285.1 216.099 285.783 215.055 285.783 213.766C285.783 212.478 285.11 211.443 284.27 211.443C284.11 211.449 283.953 211.487 283.809 211.556C283.664 211.625 283.536 211.723 283.431 211.843V207.773L284.69 206.514H286.974C289.419 204.017 291.294 201.02 292.47 197.729L283.421 206.807ZM279.107 211.453C278.462 212.107 277.584 212.292 277.154 211.873C276.725 211.453 276.92 210.575 277.574 209.921C278.228 209.267 279.097 209.081 279.526 209.501C279.956 209.921 279.77 210.838 279.107 211.453ZM284.261 212.068C284.866 212.068 285.354 212.81 285.354 213.737C285.354 214.664 284.866 215.416 284.261 215.416C283.655 215.416 283.177 214.664 283.177 213.737C283.177 212.81 283.665 212.068 284.261 212.068Z" fill="black"/>
<path d="M245.617 229.316C244.51 228.199 243.89 226.69 243.89 225.118C243.89 223.546 244.51 222.038 245.617 220.921L249.384 217.153C250.5 216.042 252.011 215.418 253.587 215.418C255.162 215.418 256.673 216.042 257.789 217.153C258.9 218.268 259.524 219.777 259.524 221.351C259.524 222.924 258.9 224.434 257.789 225.548L254.021 229.316C252.905 230.427 251.394 231.051 249.819 231.051C248.244 231.051 246.733 230.427 245.617 229.316Z" fill="#263238"/>
<path d="M226.563 255.495L249.677 232.381L242.561 225.265L219.447 248.379C219.177 248.648 218.997 248.995 218.934 249.372C218.871 249.748 218.928 250.135 219.096 250.478C219.223 250.725 219.29 250.999 219.29 251.278C219.29 251.556 219.223 251.831 219.096 252.078C218.809 252.602 218.699 253.205 218.784 253.796C218.868 254.388 219.142 254.936 219.564 255.358C219.989 255.78 220.538 256.054 221.13 256.14C221.722 256.226 222.327 256.12 222.854 255.836C223.101 255.709 223.376 255.642 223.654 255.642C223.933 255.642 224.207 255.709 224.455 255.836C224.797 256.01 225.186 256.07 225.564 256.008C225.943 255.947 226.293 255.767 226.563 255.495Z" fill="white"/>
<path d="M221.575 257.174C220.921 257.175 220.277 257.005 219.708 256.683C219.138 256.36 218.662 255.895 218.327 255.333C217.991 254.771 217.807 254.131 217.793 253.477C217.779 252.823 217.936 252.176 218.247 251.6C218.301 251.496 218.33 251.381 218.33 251.263C218.33 251.146 218.301 251.03 218.247 250.927C217.985 250.395 217.896 249.795 217.992 249.21C218.089 248.626 218.365 248.086 218.784 247.666L241.898 224.552C241.989 224.455 242.099 224.377 242.222 224.324C242.345 224.271 242.477 224.243 242.61 224.243C242.744 224.243 242.876 224.271 242.999 224.324C243.121 224.377 243.232 224.455 243.323 224.552L250.429 231.668C250.526 231.759 250.604 231.87 250.657 231.992C250.71 232.115 250.738 232.247 250.738 232.381C250.738 232.514 250.71 232.646 250.657 232.769C250.604 232.892 250.526 233.002 250.429 233.093L227.315 256.207C226.898 256.626 226.359 256.903 225.776 257C225.193 257.096 224.594 257.007 224.064 256.744C223.96 256.692 223.844 256.664 223.728 256.664C223.611 256.664 223.495 256.692 223.391 256.744C222.832 257.04 222.207 257.188 221.575 257.174ZM242.591 226.69L220.189 249.092C220.058 249.213 219.971 249.376 219.942 249.553C219.914 249.73 219.946 249.911 220.033 250.068C220.235 250.458 220.34 250.892 220.34 251.332C220.34 251.772 220.235 252.205 220.033 252.596C219.854 252.93 219.787 253.313 219.843 253.688C219.898 254.063 220.073 254.411 220.341 254.679C220.609 254.947 220.957 255.122 221.332 255.177C221.707 255.233 222.09 255.166 222.424 254.987C222.815 254.785 223.249 254.68 223.689 254.68C224.128 254.68 224.562 254.785 224.953 254.987C225.11 255.071 225.291 255.101 225.467 255.073C225.643 255.045 225.805 254.96 225.929 254.831L248.379 232.429L242.591 226.69Z" fill="black"/>
<path d="M240.678 221.458C241.226 220.913 241.968 220.607 242.742 220.607C243.516 220.607 244.258 220.913 244.806 221.458L253.484 230.136C254.026 230.684 254.331 231.424 254.331 232.195C254.331 232.966 254.026 233.707 253.484 234.255C252.936 234.797 252.196 235.101 251.424 235.101C250.653 235.101 249.913 234.797 249.365 234.255L240.678 225.577C240.135 225.029 239.831 224.289 239.831 223.518C239.831 222.746 240.135 222.006 240.678 221.458Z" fill="#263238"/>
<path d="M352.006 128.776L336.18 112.95C335.505 112.275 334.411 112.275 333.736 112.95L326.544 120.142C325.87 120.816 325.87 121.91 326.544 122.585L342.371 138.412C343.046 139.086 344.139 139.086 344.814 138.412L352.006 131.22C352.681 130.545 352.681 129.451 352.006 128.776Z" fill="#263238"/>
<path d="M377.674 87.2928L346.185 118.782L340.875 113.462C345.472 108.865 342.827 98.1373 342.827 98.1373L351.563 89.4012C365.697 87.449 395.487 66.2969 395.487 66.2969L396.464 67.273L377.752 85.897C377.653 85.9826 377.573 86.087 377.516 86.204C377.459 86.3211 377.426 86.4484 377.418 86.5785C377.411 86.7086 377.43 86.8388 377.474 86.9615C377.518 87.0842 377.585 87.1968 377.674 87.2928Z" fill="black"/>
<path d="M375.555 113.423L366.819 122.208C366.819 122.208 356.082 119.533 351.494 124.16L346.184 118.85L377.674 87.3611C377.771 87.4475 377.886 87.5133 378.009 87.5548C378.133 87.5962 378.264 87.6124 378.394 87.6024C378.524 87.5924 378.651 87.5564 378.767 87.4965C378.883 87.4366 378.986 87.3541 379.069 87.2538L397.732 68.5907L398.709 69.5668C398.709 69.5668 377.537 99.2989 375.555 113.423Z" fill="black"/>
<path opacity="0.2" d="M375.555 113.423L366.819 122.208C366.819 122.208 356.082 119.533 351.494 124.16L346.184 118.85L377.674 87.3611C377.771 87.4475 377.886 87.5133 378.009 87.5548C378.133 87.5962 378.264 87.6124 378.394 87.6024C378.524 87.5924 378.651 87.5564 378.767 87.4965C378.883 87.4366 378.986 87.3541 379.069 87.2538L397.732 68.5907L398.709 69.5668C398.709 69.5668 377.537 99.2989 375.555 113.423Z" fill="white"/>
<path d="M402.154 131.666L401.588 131.1C406.144 126.651 409.772 121.341 412.261 115.479C414.75 109.617 416.051 103.319 416.089 96.9507C416.127 90.5822 414.9 84.2695 412.48 78.3785C410.061 72.4875 406.496 67.1353 401.993 62.632C397.489 58.1288 392.137 54.564 386.246 52.1442C380.355 49.7244 374.042 48.4978 367.674 48.5355C361.305 48.5731 355.008 49.8742 349.146 52.3634C343.284 54.8527 337.974 58.4805 333.524 63.0367L332.958 62.4705C337.483 57.8425 342.881 54.158 348.839 51.6306C354.798 49.1031 361.198 47.7829 367.671 47.7463C374.143 47.7097 380.558 48.9576 386.545 51.4175C392.531 53.8775 397.971 57.5007 402.547 62.0774C407.124 66.654 410.747 72.0932 413.207 78.0798C415.667 84.0665 416.915 90.4817 416.878 96.954C416.842 103.426 415.521 109.827 412.994 115.785C410.467 121.744 406.782 127.142 402.154 131.666Z" fill="black"/>
<path d="M358.705 18.9801L358.139 19.5461L445.112 106.519L445.678 105.953L358.705 18.9801Z" fill="black"/>
<path d="M405.5 62.7458L401.911 59.1567L398.321 62.7458L401.911 66.3349L405.5 62.7458Z" fill="black"/>
<path d="M401.91 66.99L397.674 62.7537L401.91 58.5174L406.156 62.7537L401.91 66.99ZM398.982 62.7537L401.91 65.682L404.838 62.7537L401.91 59.8254L398.982 62.7537Z" fill="black"/>
<path d="M336.863 62.749L333.274 59.1599L329.685 62.749L333.274 66.3381L336.863 62.749Z" fill="white"/>
<path d="M333.28 66.99L329.044 62.7537L333.28 58.5174L337.517 62.7537L333.28 66.99ZM330.352 62.7537L333.28 65.682L336.209 62.7537L333.28 59.8254L330.352 62.7537Z" fill="black"/>
<path d="M405.656 131.528L402.067 127.939L398.478 131.528L402.067 135.117L405.656 131.528Z" fill="white"/>
<path d="M402.066 135.766L397.83 131.53L402.066 127.294L406.303 131.53L402.066 135.766ZM399.138 131.53L402.066 134.458L404.995 131.53L402.066 128.601L399.138 131.53Z" fill="black"/>
<path d="M447.348 108.181C446.992 108.536 446.54 108.777 446.048 108.875C445.556 108.972 445.046 108.922 444.582 108.73C444.119 108.537 443.723 108.212 443.444 107.795C443.165 107.378 443.017 106.887 443.017 106.385C443.017 105.884 443.165 105.393 443.444 104.976C443.723 104.559 444.119 104.233 444.582 104.041C445.046 103.849 445.556 103.798 446.048 103.896C446.54 103.994 446.992 104.235 447.348 104.589C447.822 105.067 448.088 105.712 448.088 106.385C448.088 107.058 447.822 107.704 447.348 108.181Z" fill="white"/>
<path d="M445.552 109.382C444.858 109.382 444.186 109.142 443.65 108.703C443.114 108.263 442.747 107.651 442.611 106.971C442.476 106.292 442.58 105.586 442.907 104.974C443.233 104.362 443.762 103.883 444.402 103.617C445.042 103.352 445.755 103.316 446.419 103.517C447.082 103.718 447.655 104.143 448.041 104.719C448.426 105.296 448.6 105.988 448.532 106.678C448.465 107.368 448.16 108.013 447.67 108.504C447.392 108.783 447.062 109.004 446.699 109.155C446.335 109.306 445.945 109.383 445.552 109.382ZM445.552 104.306C445.071 104.308 444.605 104.476 444.235 104.783C443.864 105.089 443.611 105.515 443.519 105.987C443.426 106.459 443.501 106.948 443.729 107.371C443.957 107.795 444.325 108.126 444.769 108.309C445.214 108.491 445.709 108.514 446.169 108.373C446.628 108.232 447.025 107.936 447.291 107.536C447.557 107.135 447.676 106.654 447.628 106.176C447.579 105.698 447.366 105.251 447.025 104.911C446.633 104.524 446.103 104.306 445.552 104.306Z" fill="black"/>
<path d="M360.182 21.0545C359.827 21.4104 359.375 21.6531 358.882 21.7518C358.39 21.8505 357.879 21.8008 357.415 21.609C356.951 21.4172 356.554 21.0919 356.274 20.6744C355.995 20.2568 355.846 19.7657 355.846 19.2634C355.846 18.761 355.995 18.27 356.274 17.8524C356.554 17.4349 356.951 17.1096 357.415 16.9178C357.879 16.726 358.39 16.6763 358.882 16.775C359.375 16.8737 359.827 17.1164 360.182 17.4722C360.656 17.9479 360.922 18.592 360.922 19.2634C360.922 19.9348 360.656 20.5789 360.182 21.0545Z" fill="white"/>
<path d="M358.425 22.2551C357.832 22.2551 357.253 22.0794 356.76 21.7501C356.267 21.4208 355.883 20.9528 355.656 20.4053C355.429 19.8577 355.37 19.2552 355.486 18.6739C355.601 18.0926 355.887 17.5587 356.306 17.1396C356.725 16.7205 357.259 16.4351 357.84 16.3195C358.421 16.2038 359.024 16.2632 359.572 16.49C360.119 16.7168 360.587 17.1009 360.916 17.5937C361.246 18.0865 361.421 18.6658 361.421 19.2585C361.425 19.6525 361.349 20.0432 361.198 20.4071C361.047 20.7711 360.824 21.1009 360.543 21.3767C360.267 21.6581 359.937 21.8809 359.573 22.0319C359.209 22.1828 358.819 22.2587 358.425 22.2551ZM358.425 17.1794C358.152 17.1794 357.882 17.2337 357.631 17.3393C357.379 17.4449 357.151 17.5996 356.961 17.7944C356.628 18.1929 356.457 18.7013 356.48 19.2198C356.504 19.7382 356.72 20.2291 357.087 20.5961C357.454 20.963 357.945 21.1795 358.463 21.2029C358.982 21.2263 359.49 21.055 359.889 20.7227C360.083 20.5296 360.238 20.3001 360.344 20.0471C360.449 19.7942 360.504 19.5228 360.504 19.2487C360.499 18.6972 360.277 18.1699 359.886 17.7808C359.495 17.3917 358.967 17.1722 358.415 17.1696L358.425 17.1794Z" fill="black"/>
<path d="M160.237 70.6796H121.349V230.263H160.237V70.6796Z" fill="black"/>
<path opacity="0.7" d="M160.237 70.6796H121.349V230.263H160.237V70.6796Z" fill="white"/>
<path opacity="0.3" d="M157.338 78.2834H124.258V93.4813H157.338V78.2834Z" fill="#263238"/>
<path opacity="0.416667" d="M157.338 96.6634H124.258V111.861H157.338V96.6634Z" fill="#263238"/>
<path opacity="0.533333" d="M157.338 115.043H124.258V130.241H157.338V115.043Z" fill="#263238"/>
<path opacity="0.65" d="M157.338 133.433H124.258V148.631H157.338V133.433Z" fill="#263238"/>
<path opacity="0.766667" d="M157.338 151.813H124.258V167.011H157.338V151.813Z" fill="#263238"/>
<path opacity="0.883333" d="M157.338 170.193H124.258V185.391H157.338V170.193Z" fill="#263238"/>
<path d="M157.338 188.583H124.258V203.781H157.338V188.583Z" fill="#263238"/>
<path d="M132.817 80.1723L94.5081 86.8582L121.945 244.065L160.254 237.379L132.817 80.1723Z" fill="black"/>
<path opacity="0.8" d="M132.817 80.1723L94.5081 86.8582L121.945 244.065L160.254 237.379L132.817 80.1723Z" fill="white"/>
<path d="M131.266 88.1534L98.6788 93.8409L101.292 108.812L133.879 103.125L131.266 88.1534Z" fill="black"/>
<path d="M134.432 106.267L101.844 111.954L104.457 126.926L137.045 121.238L134.432 106.267Z" fill="black"/>
<path d="M137.595 124.38L105.008 130.067L107.621 145.039L140.208 139.351L137.595 124.38Z" fill="black"/>
<path d="M140.749 142.485L108.162 148.172L110.775 163.144L143.362 157.457L140.749 142.485Z" fill="black"/>
<path d="M143.914 160.598L111.327 166.286L113.94 181.257L146.527 175.57L143.914 160.598Z" fill="black"/>
<path d="M147.351 180.138L114.602 185.762L117.186 200.808L149.935 195.184L147.351 180.138Z" fill="black"/>
<path d="M150.232 196.807L117.645 202.494L120.257 217.466L152.845 211.778L150.232 196.807Z" fill="black"/>
<path opacity="0.05" d="M131.266 88.1534L98.6788 93.8409L101.292 108.812L133.879 103.125L131.266 88.1534Z" fill="black"/>
<path opacity="0.1" d="M134.432 106.267L101.844 111.954L104.457 126.926L137.045 121.238L134.432 106.267Z" fill="black"/>
<path opacity="0.2" d="M137.595 124.38L105.008 130.067L107.621 145.039L140.208 139.351L137.595 124.38Z" fill="black"/>
<path opacity="0.3" d="M140.749 142.485L108.162 148.172L110.775 163.144L143.362 157.457L140.749 142.485Z" fill="black"/>
<path opacity="0.4" d="M143.914 160.598L111.327 166.286L113.94 181.257L146.527 175.57L143.914 160.598Z" fill="black"/>
<path opacity="0.5" d="M147.351 180.138L114.602 185.762L117.186 200.808L149.935 195.184L147.351 180.138Z" fill="black"/>
<path opacity="0.6" d="M150.232 196.807L117.645 202.494L120.257 217.466L152.845 211.778L150.232 196.807Z" fill="black"/>
<path d="M105.934 94.4584L69.368 107.695L123.687 257.749L160.253 244.512L105.934 94.4584Z" fill="black"/>
<path opacity="0.9" d="M105.934 94.4584L69.368 107.695L123.687 257.749L160.253 244.512L105.934 94.4584Z" fill="white"/>
<path d="M105.792 102.585L74.6871 113.845L79.8602 128.136L110.965 116.876L105.792 102.585Z" fill="black"/>
<path d="M112.054 119.873L80.9492 131.133L86.1223 145.423L117.227 134.163L112.054 119.873Z" fill="black"/>
<path d="M118.297 137.163L87.1923 148.423L92.3653 162.714L123.47 151.454L118.297 137.163Z" fill="black"/>
<path d="M124.559 154.451L93.4543 165.711L98.6274 180.001L129.732 168.741L124.559 154.451Z" fill="black"/>
<path d="M130.821 171.729L99.7164 182.988L104.889 197.279L135.994 186.019L130.821 171.729Z" fill="black"/>
<path d="M137.074 189.016L105.969 200.276L111.142 214.566L142.247 203.306L137.074 189.016Z" fill="black"/>
<path d="M143.336 206.303L112.231 217.563L117.404 231.854L148.509 220.594L143.336 206.303Z" fill="black"/>
<path opacity="0.6" d="M105.792 102.585L74.6871 113.845L79.8602 128.136L110.965 116.876L105.792 102.585Z" fill="white"/>
<path opacity="0.5" d="M112.054 119.873L80.9492 131.133L86.1223 145.423L117.227 134.163L112.054 119.873Z" fill="white"/>
<path opacity="0.4" d="M118.297 137.163L87.1923 148.423L92.3653 162.714L123.47 151.454L118.297 137.163Z" fill="white"/>
<path opacity="0.3" d="M124.559 154.451L93.4543 165.711L98.6274 180.001L129.732 168.741L124.559 154.451Z" fill="white"/>
<path opacity="0.2" d="M130.821 171.729L99.7164 182.988L104.889 197.279L135.994 186.019L130.821 171.729Z" fill="white"/>
<path opacity="0.1" d="M137.074 189.016L105.969 200.276L111.142 214.566L142.247 203.306L137.074 189.016Z" fill="white"/>
</svg>
