<svg width="234" height="174" viewBox="0 0 234 174" fill="none" xmlns="http://www.w3.org/2000/svg">
<path d="M222.512 89.5644C223.603 75.0611 220.227 59.9049 215.708 46.3812C208.994 26.3431 195.955 5.75734 174 1.01772C161.361 -1.72073 148.459 1.21257 137.605 8.06923C127.167 14.6678 119.025 23.1886 106.197 24.8422C93.2156 26.5116 79.8973 25.8375 66.8475 25.8375C33.3015 25.8375 6.07504 61.0845 12.879 97.7955C19.683 134.507 51.7755 159.937 79.002 159.937C103.464 159.937 123.591 145.26 146.831 141.316C158.354 139.362 169.924 141.674 181.33 138.746C194.58 135.344 207.046 127.223 214.387 115.464C219.395 107.48 221.828 98.6487 222.512 89.5644Z" fill="#F0F0F0"/>
<path opacity="0.7" d="M222.512 89.5644C223.603 75.0611 220.227 59.9049 215.708 46.3812C208.994 26.3431 195.955 5.75734 174 1.01772C161.361 -1.72073 148.459 1.21257 137.605 8.06923C127.167 14.6678 119.025 23.1886 106.197 24.8422C93.2156 26.5116 79.8973 25.8375 66.8475 25.8375C33.3015 25.8375 6.07504 61.0845 12.879 97.7955C19.683 134.507 51.7755 159.937 79.002 159.937C103.464 159.937 123.591 145.26 146.831 141.316C158.354 139.362 169.924 141.674 181.33 138.746C194.58 135.344 207.046 127.223 214.387 115.464C219.395 107.48 221.828 98.6487 222.512 89.5644Z" fill="white"/>
<path d="M120.705 173.129C182.737 173.129 233.024 171.389 233.024 169.242C233.024 167.096 182.737 165.356 120.705 165.356C58.6735 165.356 8.38684 167.096 8.38684 169.242C8.38684 171.389 58.6735 173.129 120.705 173.129Z" fill="black"/>
<path opacity="0.5" d="M120.705 173.129C182.737 173.129 233.024 171.389 233.024 169.242C233.024 167.096 182.737 165.356 120.705 165.356C58.6735 165.356 8.38684 167.096 8.38684 169.242C8.38684 171.389 58.6735 173.129 120.705 173.129Z" fill="#FAFAFA"/>
<path d="M36.8562 118.555C36.8562 118.555 39.3208 116.607 39.9528 115.359C40.4794 114.305 40.8796 112.794 40.3214 111.672C40.2019 111.403 40.0272 111.162 39.8086 110.964C39.5901 110.767 39.3326 110.617 39.0527 110.526C38.7728 110.434 38.4767 110.402 38.1837 110.431C37.8906 110.461 37.607 110.552 37.3512 110.698C35.8346 111.646 35.6766 114.858 36.061 116.407C36.0663 116.544 36.8246 118.571 36.8562 118.555Z" fill="black"/>
<path d="M14.0798 134.78C14.1851 134.875 15.9387 136.15 15.9493 136.118C15.9598 136.086 16.9288 133.137 16.7708 131.747C16.6286 130.562 16.1283 129.114 15.0382 128.456C14.7878 128.296 14.5064 128.19 14.2125 128.147C13.9186 128.103 13.6188 128.123 13.3329 128.203C13.0469 128.284 12.7812 128.424 12.5532 128.614C12.3252 128.805 12.1402 129.042 12.0101 129.309C11.2676 130.91 12.9054 133.685 14.0798 134.78Z" fill="black"/>
<path d="M65.6996 121.499C65.6996 121.499 56.6785 130.81 56.747 142.243C56.8154 153.676 65.8944 162.913 65.8944 162.913C65.8944 162.913 74.9102 153.602 74.8471 142.164C74.7839 130.725 65.6996 121.499 65.6996 121.499Z" fill="black"/>
<path d="M52.8392 149.094C52.9582 148.966 53.0674 148.828 53.1657 148.683C53.824 147.688 54.3822 146.24 53.9609 145.05C53.8744 144.765 53.7284 144.501 53.5326 144.276C53.3367 144.052 53.0954 143.871 52.8247 143.747C52.5539 143.622 52.2598 143.557 51.9619 143.555C51.6639 143.552 51.3688 143.613 51.0961 143.733C49.8743 144.307 49.2687 146.271 49.1423 147.878C48.6525 147.767 48.2102 147.683 47.8363 147.62L47.3465 146.519C47.1675 146.14 47.0411 145.755 46.8883 145.371C46.6724 144.797 46.4776 144.197 46.2827 143.601C46.9937 143.28 49.0738 142.311 49.848 141.453C50.6221 140.594 51.4278 139.225 51.1803 137.982C51.1357 137.689 51.0297 137.408 50.869 137.159C50.7084 136.909 50.4968 136.696 50.2482 136.534C49.9996 136.372 49.7196 136.264 49.4264 136.218C49.1333 136.172 48.8337 136.188 48.5472 136.266C46.8357 136.792 45.8298 139.836 45.793 141.432C45.793 141.484 45.793 141.821 45.8562 142.222C45.6824 141.632 45.5086 141.042 45.3295 140.442C44.8924 138.725 44.4975 136.971 44.092 135.212C44.0077 134.844 43.9182 134.48 43.8339 134.112C44.4343 133.848 46.6935 132.816 47.5203 131.916C48.3471 131.015 49.1002 129.688 48.8579 128.445C48.8133 128.152 48.7072 127.871 48.5466 127.622C48.386 127.372 48.1744 127.159 47.9258 126.997C47.6772 126.835 47.3972 126.727 47.104 126.681C46.8109 126.635 46.5113 126.651 46.2248 126.728C44.5133 127.255 43.5074 130.299 43.4706 131.895C43.4706 131.953 43.5074 132.353 43.5443 132.806C43.3126 131.852 43.0703 130.905 42.7965 129.972C42.3437 128.37 41.7825 126.801 41.1165 125.275C41.3272 125.18 44.0024 124.027 44.903 123.026C45.7034 122.147 46.4828 120.799 46.2406 119.556C46.196 119.262 46.0899 118.982 45.9293 118.732C45.7687 118.483 45.5571 118.27 45.3085 118.108C45.0599 117.946 44.7798 117.838 44.4867 117.792C44.1936 117.745 43.8939 117.761 43.6075 117.839C41.8959 118.366 40.8901 121.41 40.8532 123.005C40.8532 123.116 40.9849 124.585 41.0481 125.112C41.0502 125.092 41.0502 125.073 41.0481 125.054C40.357 123.571 39.5358 122.152 38.594 120.814C37.7486 119.624 36.8342 118.485 35.8556 117.402C34.9708 116.38 34.0914 115.496 33.312 114.721C32.8854 114.305 32.4852 113.931 32.1113 113.589H32.1481C32.185 113.589 31.3161 111.598 31.2476 111.483C30.4471 110.103 28.0878 107.907 26.3447 108.286C26.0561 108.356 25.7855 108.486 25.5508 108.668C25.3161 108.85 25.1225 109.08 24.9827 109.342C24.843 109.604 24.7603 109.893 24.7399 110.189C24.7196 110.485 24.7622 110.783 24.8649 111.061C25.2546 112.262 26.5817 113.068 27.7087 113.457C28.8357 113.847 31.395 113.663 32.0059 113.61C32.3904 113.974 32.7906 114.369 33.2277 114.816C33.9913 115.606 34.8444 116.501 35.7081 117.544C35.9398 117.818 36.1768 118.123 36.4085 118.418C35.9135 118.007 35.2236 117.449 35.1499 117.402C33.8017 116.549 30.6999 115.685 29.3254 116.828C29.0989 117.023 28.9166 117.264 28.7904 117.535C28.6643 117.806 28.5972 118.101 28.5937 118.399C28.5902 118.698 28.6504 118.994 28.7702 119.268C28.89 119.542 29.0667 119.787 29.2885 119.988C30.1891 120.872 31.7374 120.978 32.917 120.804C34.0966 120.63 36.34 119.25 36.8193 118.945C37.3459 119.603 37.8409 120.288 38.3254 121.051C39.2268 122.393 40.0075 123.811 40.6584 125.291C40.6952 125.375 40.7216 125.47 40.7584 125.554C40.5478 125.312 39.2944 124.043 39.1786 123.974C37.9357 122.979 34.9656 121.778 33.4541 122.763C33.2101 122.932 33.0047 123.151 32.8513 123.406C32.698 123.66 32.6002 123.944 32.5644 124.239C32.5286 124.534 32.5556 124.833 32.6436 125.117C32.7316 125.401 32.8786 125.663 33.075 125.886C33.8702 126.86 35.3974 127.139 36.5876 127.092C37.9621 127.044 40.6636 125.68 40.769 125.628C41.3744 127.121 41.8828 128.651 42.2909 130.209C42.6016 131.363 42.8649 132.542 43.1177 133.727C42.8386 133.417 41.6695 132.237 41.58 132.147C40.3319 131.147 37.367 129.951 35.8503 130.931C35.6063 131.1 35.4008 131.319 35.2475 131.574C35.0941 131.828 34.9963 132.112 34.9605 132.407C34.9247 132.702 34.9517 133.001 35.0397 133.285C35.1277 133.569 35.2747 133.831 35.4711 134.054C36.2663 135.033 37.7988 135.307 38.989 135.265C40.3266 135.218 42.9229 133.922 43.1388 133.812C43.2546 134.338 43.3758 134.865 43.4863 135.428C43.8497 137.192 44.2078 138.967 44.6133 140.694C44.7555 141.3 44.9135 141.885 45.0768 142.474C44.6344 142.022 43.8234 141.2 43.7497 141.142C42.5016 140.142 39.5367 138.941 38.02 139.926C37.7759 140.095 37.5705 140.314 37.4172 140.569C37.2638 140.823 37.166 141.107 37.1302 141.402C37.0944 141.697 37.1214 141.996 37.2094 142.28C37.2974 142.564 37.4444 142.826 37.6408 143.049C38.436 144.028 39.9685 144.302 41.1587 144.26C42.3488 144.218 44.5607 143.175 45.1768 142.869C45.4454 143.849 45.7403 144.818 46.0668 145.755C46.2195 146.156 46.3512 146.572 46.5197 146.951L46.7672 147.551L46.4249 147.514C46.4249 147.514 46.3986 148.072 46.4249 148.984C45.1136 148.046 43.223 147.24 41.9907 147.809C41.724 147.94 41.4879 148.125 41.2979 148.353C41.108 148.582 40.9683 148.847 40.8883 149.133C40.8082 149.419 40.7895 149.719 40.8334 150.012C40.8773 150.306 40.9827 150.587 41.1429 150.837C41.2247 150.97 41.3162 151.097 41.4167 151.216C41.6502 152.599 42.234 153.899 43.1124 154.992C43.1809 155.071 44.0709 155.893 44.5396 156.304C44.0867 156.061 43.6391 155.819 43.1756 155.556C42.5068 155.187 41.8117 154.771 41.1323 154.376L40.0791 153.713C39.721 153.491 39.405 153.244 39.0627 153.007C38.5677 152.649 38.0726 152.254 37.5829 151.864C37.9989 151.206 39.1996 149.231 39.3681 148.109C39.5367 146.988 39.4524 145.381 38.5729 144.476C38.3753 144.252 38.1322 144.072 37.8598 143.949C37.5874 143.826 37.2919 143.762 36.9931 143.762C36.6942 143.762 36.3988 143.826 36.1264 143.949C35.854 144.072 35.6109 144.252 35.4132 144.476C34.2652 145.845 35.1183 148.952 35.9398 150.305C35.9398 150.348 36.1768 150.616 36.4296 150.927C35.9609 150.532 35.4869 150.137 35.0235 149.721C33.7122 148.536 32.3904 147.288 31.1054 146.034L30.2839 145.26C30.642 144.734 31.9585 142.627 32.1376 141.405C32.3166 140.184 32.2166 138.678 31.3371 137.777C31.1394 137.553 30.8963 137.373 30.6239 137.25C30.3515 137.127 30.0561 137.064 29.7572 137.064C29.4584 137.064 29.1629 137.127 28.8906 137.25C28.6182 137.373 28.375 137.553 28.1774 137.777C27.0293 139.146 27.8772 142.253 28.704 143.601C28.704 143.649 28.9831 143.97 29.2675 144.323C28.546 143.654 27.8193 143.001 27.082 142.374C25.8174 141.288 24.4822 140.287 23.0849 139.378C23.2113 139.188 24.8017 136.745 25.0018 135.418C25.1809 134.238 25.0861 132.69 24.2014 131.789C24.0037 131.565 23.7606 131.386 23.4882 131.263C23.2158 131.14 22.9203 131.076 22.6215 131.076C22.3226 131.076 22.0272 131.14 21.7548 131.263C21.4824 131.386 21.2393 131.565 21.0416 131.789C19.8936 133.158 20.7467 136.266 21.5946 137.614C21.6525 137.709 22.5688 138.851 22.9111 139.252L22.8637 139.215C21.4665 138.36 19.9968 137.631 18.4717 137.034C17.115 136.493 15.7275 136.033 14.3166 135.655C13.0106 135.291 11.7888 135.039 10.7145 134.823C10.1247 134.712 9.58752 134.623 9.08723 134.538H9.11883C9.11883 134.538 7.32304 133.338 7.19665 133.274C5.7695 132.563 2.59395 132.037 1.34585 133.311C1.14327 133.529 0.989031 133.787 0.893276 134.068C0.797522 134.35 0.762419 134.648 0.790274 134.944C0.81813 135.24 0.908314 135.527 1.0549 135.785C1.20148 136.044 1.40114 136.269 1.64076 136.445C2.63081 137.229 4.17909 137.171 5.32713 136.876C6.47517 136.582 8.48688 135.017 9.0135 134.628C9.54012 134.723 10.0667 134.828 10.6987 134.96C11.7519 135.197 12.979 135.486 14.2745 135.865L15.3277 136.208C14.6852 136.139 13.8058 136.06 13.7163 136.06C12.1364 136.092 9.0609 137.082 8.53954 138.793C8.46195 139.079 8.44545 139.378 8.49112 139.67C8.53679 139.963 8.64361 140.243 8.80461 140.491C8.9656 140.739 9.17716 140.951 9.42549 141.112C9.67381 141.274 9.95333 141.381 10.2458 141.426C11.4834 141.663 12.8368 140.9 13.7215 140.105C14.6063 139.309 15.7227 136.919 15.9544 136.418C16.7391 136.687 17.5343 136.982 18.3611 137.335C19.8544 137.955 21.289 138.707 22.6478 139.583C22.7268 139.636 22.8005 139.699 22.8795 139.747C22.5635 139.662 20.8204 139.294 20.694 139.283C19.1142 139.136 15.9544 139.81 15.2487 141.432C15.144 141.717 15.1023 142.022 15.1265 142.325C15.1506 142.628 15.2401 142.922 15.3887 143.187C15.5373 143.452 15.7415 143.682 15.9873 143.861C16.2332 144.04 16.5148 144.163 16.8128 144.223C18.0188 144.597 19.4459 143.986 20.4149 143.291C21.5314 142.496 23.048 139.868 23.0902 139.768C24.42 140.677 25.6884 141.672 26.8871 142.748C27.7824 143.538 28.6513 144.376 29.5203 145.223C29.1095 145.118 27.4875 144.781 27.3716 144.771C25.7918 144.623 22.632 145.271 21.9263 146.914C21.8165 147.189 21.766 147.485 21.7783 147.781C21.7905 148.078 21.8652 148.368 21.9974 148.633C22.1297 148.899 22.3165 149.133 22.5456 149.322C22.7748 149.51 23.0411 149.648 23.3272 149.726C24.5331 150.105 25.9603 149.489 26.9293 148.799C28.0194 148.02 29.4676 145.508 29.5624 145.292C29.9574 145.682 30.3523 146.061 30.742 146.45C32.0217 147.725 33.2962 149.005 34.5969 150.232C35.0446 150.653 35.5027 151.053 35.9609 151.459C35.3447 151.322 34.2178 151.085 34.1177 151.08C32.5378 150.932 29.3781 151.58 28.6724 153.223C28.5626 153.499 28.5124 153.795 28.5249 154.091C28.5375 154.388 28.6127 154.678 28.7454 154.944C28.8782 155.21 29.0656 155.444 29.2953 155.632C29.5251 155.82 29.7919 155.957 30.0785 156.035C31.2792 156.414 32.7116 155.798 33.6753 155.108C34.639 154.418 35.9135 152.328 36.2663 151.733C37.0299 152.401 37.8041 153.044 38.5993 153.644C38.9468 153.897 39.2839 154.171 39.6525 154.392L40.6794 155.082C41.3956 155.524 42.0592 155.94 42.7385 156.335L43.7391 156.909C43.1335 156.678 42.1593 156.319 42.0803 156.298C40.532 155.909 37.3406 156.077 36.3716 157.594C36.2221 157.851 36.1286 158.136 36.0973 158.432C36.066 158.728 36.0977 159.027 36.1902 159.309C36.2827 159.592 36.434 159.852 36.6341 160.071C36.8342 160.291 37.0786 160.466 37.3512 160.585C38.4834 161.138 39.9843 160.748 41.0375 160.211C42.2066 159.621 43.9708 157.436 44.1973 157.167C45.0136 157.636 45.8193 158.084 46.5776 158.489C48.5999 159.569 50.3641 160.432 51.7386 161.08C56.1885 164.93 62.4606 165.351 62.4606 165.351C62.4606 165.351 62.7871 157.847 58.3688 152.902C56.8267 151.243 54.939 149.943 52.8392 149.094ZM44.8872 156.414C45.0241 156.109 46.0931 153.723 46.1669 152.375C46.4144 152.333 46.6619 152.28 46.9041 152.222C47.3567 154.593 48.2983 156.844 49.6689 158.831C48.8632 158.447 47.9837 158.02 47.0358 157.546C46.3617 157.199 45.6297 156.814 44.8872 156.414Z" fill="black"/>
<path d="M85.6902 147.656C85.6902 147.656 78.1753 147.888 73.5779 152.665C68.9804 157.441 69.0384 164.956 69.0384 164.956C69.0384 164.956 76.548 164.724 81.1507 159.948C85.7534 155.171 85.6902 147.656 85.6902 147.656Z" fill="black"/>
<g opacity="0.5">
<path opacity="0.5" d="M36.8562 118.555C36.8562 118.555 39.3208 116.607 39.9528 115.359C40.4794 114.305 40.8796 112.794 40.3214 111.672C40.2019 111.403 40.0272 111.162 39.8086 110.964C39.5901 110.767 39.3326 110.617 39.0527 110.526C38.7728 110.434 38.4767 110.402 38.1837 110.431C37.8906 110.461 37.607 110.552 37.3512 110.698C35.8346 111.646 35.6766 114.858 36.061 116.407C36.0663 116.544 36.8246 118.571 36.8562 118.555Z" fill="white"/>
<path opacity="0.5" d="M14.0798 134.78C14.1851 134.875 15.9387 136.15 15.9493 136.118C15.9598 136.086 16.9288 133.137 16.7708 131.747C16.6286 130.562 16.1283 129.114 15.0382 128.456C14.7878 128.296 14.5064 128.19 14.2125 128.147C13.9186 128.103 13.6188 128.123 13.3329 128.203C13.0469 128.284 12.7812 128.424 12.5532 128.614C12.3252 128.805 12.1402 129.042 12.0101 129.309C11.2676 130.91 12.9054 133.685 14.0798 134.78Z" fill="white"/>
<path opacity="0.5" d="M65.6996 121.499C65.6996 121.499 56.6785 130.81 56.747 142.243C56.8154 153.676 65.8944 162.913 65.8944 162.913C65.8944 162.913 74.9102 153.602 74.8471 142.164C74.7839 130.725 65.6996 121.499 65.6996 121.499Z" fill="white"/>
<path opacity="0.5" d="M52.8392 149.094C52.9582 148.966 53.0674 148.828 53.1657 148.683C53.824 147.688 54.3822 146.24 53.9609 145.05C53.8744 144.765 53.7284 144.501 53.5326 144.276C53.3367 144.052 53.0954 143.871 52.8247 143.747C52.5539 143.622 52.2598 143.557 51.9619 143.555C51.6639 143.552 51.3688 143.613 51.0961 143.733C49.8743 144.307 49.2687 146.271 49.1423 147.878C48.6525 147.767 48.2102 147.683 47.8363 147.62L47.3465 146.519C47.1675 146.14 47.0411 145.755 46.8883 145.371C46.6724 144.797 46.4776 144.197 46.2827 143.601C46.9937 143.28 49.0738 142.311 49.848 141.453C50.6221 140.594 51.4278 139.225 51.1803 137.982C51.1357 137.689 51.0297 137.408 50.869 137.159C50.7084 136.909 50.4968 136.696 50.2482 136.534C49.9996 136.372 49.7196 136.264 49.4264 136.218C49.1333 136.172 48.8337 136.188 48.5472 136.266C46.8357 136.792 45.8298 139.836 45.793 141.432C45.793 141.484 45.793 141.821 45.8562 142.222C45.6824 141.632 45.5086 141.042 45.3295 140.442C44.8924 138.725 44.4975 136.971 44.092 135.212C44.0077 134.844 43.9182 134.48 43.8339 134.112C44.4343 133.848 46.6935 132.816 47.5203 131.916C48.3471 131.015 49.1002 129.688 48.8579 128.445C48.8133 128.152 48.7072 127.871 48.5466 127.622C48.386 127.372 48.1744 127.159 47.9258 126.997C47.6772 126.835 47.3972 126.727 47.104 126.681C46.8109 126.635 46.5113 126.651 46.2248 126.728C44.5133 127.255 43.5074 130.299 43.4706 131.895C43.4706 131.953 43.5074 132.353 43.5443 132.806C43.3126 131.852 43.0703 130.905 42.7965 129.972C42.3437 128.37 41.7825 126.801 41.1165 125.275C41.3272 125.18 44.0024 124.027 44.903 123.026C45.7034 122.147 46.4828 120.799 46.2406 119.556C46.196 119.262 46.0899 118.982 45.9293 118.732C45.7687 118.483 45.5571 118.27 45.3085 118.108C45.0599 117.946 44.7798 117.838 44.4867 117.792C44.1936 117.745 43.8939 117.761 43.6075 117.839C41.8959 118.366 40.8901 121.41 40.8532 123.005C40.8532 123.116 40.9849 124.585 41.0481 125.112C41.0502 125.092 41.0502 125.073 41.0481 125.054C40.357 123.571 39.5358 122.152 38.594 120.814C37.7486 119.624 36.8342 118.485 35.8556 117.402C34.9708 116.38 34.0914 115.496 33.312 114.721C32.8854 114.305 32.4852 113.931 32.1113 113.589H32.1481C32.185 113.589 31.3161 111.598 31.2476 111.483C30.4471 110.103 28.0878 107.907 26.3447 108.286C26.0561 108.356 25.7855 108.486 25.5508 108.668C25.3161 108.85 25.1225 109.08 24.9827 109.342C24.843 109.604 24.7603 109.893 24.7399 110.189C24.7196 110.485 24.7622 110.783 24.8649 111.061C25.2546 112.262 26.5817 113.068 27.7087 113.457C28.8357 113.847 31.395 113.663 32.0059 113.61C32.3904 113.974 32.7906 114.369 33.2277 114.816C33.9913 115.606 34.8444 116.501 35.7081 117.544C35.9398 117.818 36.1768 118.123 36.4085 118.418C35.9135 118.007 35.2236 117.449 35.1499 117.402C33.8017 116.549 30.6999 115.685 29.3254 116.828C29.0989 117.023 28.9166 117.264 28.7904 117.535C28.6643 117.806 28.5972 118.101 28.5937 118.399C28.5902 118.698 28.6504 118.994 28.7702 119.268C28.89 119.542 29.0667 119.787 29.2885 119.988C30.1891 120.872 31.7374 120.978 32.917 120.804C34.0966 120.63 36.34 119.25 36.8193 118.945C37.3459 119.603 37.8409 120.288 38.3254 121.051C39.2268 122.393 40.0075 123.811 40.6584 125.291C40.6952 125.375 40.7216 125.47 40.7584 125.554C40.5478 125.312 39.2944 124.043 39.1786 123.974C37.9357 122.979 34.9656 121.778 33.4541 122.763C33.2101 122.932 33.0047 123.151 32.8513 123.406C32.698 123.66 32.6002 123.944 32.5644 124.239C32.5286 124.534 32.5556 124.833 32.6436 125.117C32.7316 125.401 32.8786 125.663 33.075 125.886C33.8702 126.86 35.3974 127.139 36.5876 127.092C37.9621 127.044 40.6636 125.68 40.769 125.628C41.3744 127.121 41.8828 128.651 42.2909 130.209C42.6016 131.363 42.8649 132.542 43.1177 133.727C42.8386 133.417 41.6695 132.237 41.58 132.147C40.3319 131.147 37.367 129.951 35.8503 130.931C35.6063 131.1 35.4008 131.319 35.2475 131.574C35.0941 131.828 34.9963 132.112 34.9605 132.407C34.9247 132.702 34.9517 133.001 35.0397 133.285C35.1277 133.569 35.2747 133.831 35.4711 134.054C36.2663 135.033 37.7988 135.307 38.989 135.265C40.3266 135.218 42.9229 133.922 43.1388 133.812C43.2546 134.338 43.3758 134.865 43.4863 135.428C43.8497 137.192 44.2078 138.967 44.6133 140.694C44.7555 141.3 44.9135 141.885 45.0768 142.474C44.6344 142.022 43.8234 141.2 43.7497 141.142C42.5016 140.142 39.5367 138.941 38.02 139.926C37.7759 140.095 37.5705 140.314 37.4172 140.569C37.2638 140.823 37.166 141.107 37.1302 141.402C37.0944 141.697 37.1214 141.996 37.2094 142.28C37.2974 142.564 37.4444 142.826 37.6408 143.049C38.436 144.028 39.9685 144.302 41.1587 144.26C42.3488 144.218 44.5607 143.175 45.1768 142.869C45.4454 143.849 45.7403 144.818 46.0668 145.755C46.2195 146.156 46.3512 146.572 46.5197 146.951L46.7672 147.551L46.4249 147.514C46.4249 147.514 46.3986 148.072 46.4249 148.984C45.1136 148.046 43.223 147.24 41.9907 147.809C41.724 147.94 41.4879 148.125 41.2979 148.353C41.108 148.582 40.9683 148.847 40.8883 149.133C40.8082 149.419 40.7895 149.719 40.8334 150.012C40.8773 150.306 40.9827 150.587 41.1429 150.837C41.2247 150.97 41.3162 151.097 41.4167 151.216C41.6502 152.599 42.234 153.899 43.1124 154.992C43.1809 155.071 44.0709 155.893 44.5396 156.304C44.0867 156.061 43.6391 155.819 43.1756 155.556C42.5068 155.187 41.8117 154.771 41.1323 154.376L40.0791 153.713C39.721 153.491 39.405 153.244 39.0627 153.007C38.5677 152.649 38.0726 152.254 37.5829 151.864C37.9989 151.206 39.1996 149.231 39.3681 148.109C39.5367 146.988 39.4524 145.381 38.5729 144.476C38.3753 144.252 38.1322 144.072 37.8598 143.949C37.5874 143.826 37.2919 143.762 36.9931 143.762C36.6942 143.762 36.3988 143.826 36.1264 143.949C35.854 144.072 35.6109 144.252 35.4132 144.476C34.2652 145.845 35.1183 148.952 35.9398 150.305C35.9398 150.348 36.1768 150.616 36.4296 150.927C35.9609 150.532 35.4869 150.137 35.0235 149.721C33.7122 148.536 32.3904 147.288 31.1054 146.034L30.2839 145.26C30.642 144.734 31.9585 142.627 32.1376 141.405C32.3166 140.184 32.2166 138.678 31.3371 137.777C31.1394 137.553 30.8963 137.373 30.6239 137.25C30.3515 137.127 30.0561 137.064 29.7572 137.064C29.4584 137.064 29.1629 137.127 28.8906 137.25C28.6182 137.373 28.375 137.553 28.1774 137.777C27.0293 139.146 27.8772 142.253 28.704 143.601C28.704 143.649 28.9831 143.97 29.2675 144.323C28.546 143.654 27.8193 143.001 27.082 142.374C25.8174 141.288 24.4822 140.287 23.0849 139.378C23.2113 139.188 24.8017 136.745 25.0018 135.418C25.1809 134.238 25.0861 132.69 24.2014 131.789C24.0037 131.565 23.7606 131.386 23.4882 131.263C23.2158 131.14 22.9203 131.076 22.6215 131.076C22.3226 131.076 22.0272 131.14 21.7548 131.263C21.4824 131.386 21.2393 131.565 21.0416 131.789C19.8936 133.158 20.7467 136.266 21.5946 137.614C21.6525 137.709 22.5688 138.851 22.9111 139.252L22.8637 139.215C21.4665 138.36 19.9968 137.631 18.4717 137.034C17.115 136.493 15.7275 136.033 14.3166 135.655C13.0106 135.291 11.7888 135.039 10.7145 134.823C10.1247 134.712 9.58752 134.623 9.08723 134.538H9.11883C9.11883 134.538 7.32304 133.338 7.19665 133.274C5.7695 132.563 2.59395 132.037 1.34585 133.311C1.14327 133.529 0.989031 133.787 0.893276 134.068C0.797522 134.35 0.762419 134.648 0.790274 134.944C0.81813 135.24 0.908314 135.527 1.0549 135.785C1.20148 136.044 1.40114 136.269 1.64076 136.445C2.63081 137.229 4.17909 137.171 5.32713 136.876C6.47517 136.582 8.48688 135.017 9.0135 134.628C9.54012 134.723 10.0667 134.828 10.6987 134.96C11.7519 135.197 12.979 135.486 14.2745 135.865L15.3277 136.208C14.6852 136.139 13.8058 136.06 13.7163 136.06C12.1364 136.092 9.0609 137.082 8.53954 138.793C8.46195 139.079 8.44545 139.378 8.49112 139.67C8.53679 139.963 8.64361 140.243 8.80461 140.491C8.9656 140.739 9.17716 140.951 9.42549 141.112C9.67381 141.274 9.95333 141.381 10.2458 141.426C11.4834 141.663 12.8368 140.9 13.7215 140.105C14.6063 139.309 15.7227 136.919 15.9544 136.418C16.7391 136.687 17.5343 136.982 18.3611 137.335C19.8544 137.955 21.289 138.707 22.6478 139.583C22.7268 139.636 22.8005 139.699 22.8795 139.747C22.5635 139.662 20.8204 139.294 20.694 139.283C19.1142 139.136 15.9544 139.81 15.2487 141.432C15.144 141.717 15.1023 142.022 15.1265 142.325C15.1506 142.628 15.2401 142.922 15.3887 143.187C15.5373 143.452 15.7415 143.682 15.9873 143.861C16.2332 144.04 16.5148 144.163 16.8128 144.223C18.0188 144.597 19.4459 143.986 20.4149 143.291C21.5314 142.496 23.048 139.868 23.0902 139.768C24.42 140.677 25.6884 141.672 26.8871 142.748C27.7824 143.538 28.6513 144.376 29.5203 145.223C29.1095 145.118 27.4875 144.781 27.3716 144.771C25.7918 144.623 22.632 145.271 21.9263 146.914C21.8165 147.189 21.766 147.485 21.7783 147.781C21.7905 148.078 21.8652 148.368 21.9974 148.633C22.1297 148.899 22.3165 149.133 22.5456 149.322C22.7748 149.51 23.0411 149.648 23.3272 149.726C24.5331 150.105 25.9603 149.489 26.9293 148.799C28.0194 148.02 29.4676 145.508 29.5624 145.292C29.9574 145.682 30.3523 146.061 30.742 146.45C32.0217 147.725 33.2962 149.005 34.5969 150.232C35.0446 150.653 35.5027 151.053 35.9609 151.459C35.3447 151.322 34.2178 151.085 34.1177 151.08C32.5378 150.932 29.3781 151.58 28.6724 153.223C28.5626 153.499 28.5124 153.795 28.5249 154.091C28.5375 154.388 28.6127 154.678 28.7454 154.944C28.8782 155.21 29.0656 155.444 29.2953 155.632C29.5251 155.82 29.7919 155.957 30.0785 156.035C31.2792 156.414 32.7116 155.798 33.6753 155.108C34.639 154.418 35.9135 152.328 36.2663 151.733C37.0299 152.401 37.8041 153.044 38.5993 153.644C38.9468 153.897 39.2839 154.171 39.6525 154.392L40.6794 155.082C41.3956 155.524 42.0592 155.94 42.7385 156.335L43.7391 156.909C43.1335 156.678 42.1593 156.319 42.0803 156.298C40.532 155.909 37.3406 156.077 36.3716 157.594C36.2221 157.851 36.1286 158.136 36.0973 158.432C36.066 158.728 36.0977 159.027 36.1902 159.309C36.2827 159.592 36.434 159.852 36.6341 160.071C36.8342 160.291 37.0786 160.466 37.3512 160.585C38.4834 161.138 39.9843 160.748 41.0375 160.211C42.2066 159.621 43.9708 157.436 44.1973 157.167C45.0136 157.636 45.8193 158.084 46.5776 158.489C48.5999 159.569 50.3641 160.432 51.7386 161.08C56.1885 164.93 62.4606 165.351 62.4606 165.351C62.4606 165.351 62.7871 157.847 58.3688 152.902C56.8267 151.243 54.939 149.943 52.8392 149.094ZM44.8872 156.414C45.0241 156.109 46.0931 153.723 46.1669 152.375C46.4144 152.333 46.6619 152.28 46.9041 152.222C47.3567 154.593 48.2983 156.844 49.6689 158.831C48.8632 158.447 47.9837 158.02 47.0358 157.546C46.3617 157.199 45.6297 156.814 44.8872 156.414Z" fill="white"/>
<path opacity="0.5" d="M85.6902 147.656C85.6902 147.656 78.1753 147.888 73.5779 152.665C68.9804 157.441 69.0384 164.956 69.0384 164.956C69.0384 164.956 76.548 164.724 81.1507 159.948C85.7534 155.171 85.6902 147.656 85.6902 147.656Z" fill="white"/>
</g>
<path d="M66.0681 152.496L73.4461 145.861L73.1301 145.513L66.0681 151.864L66.0259 143.17L66.0681 143.196L72.3086 134.07L71.9136 133.806L66.0259 142.417L65.9364 121.499H65.4624L65.5204 135.702L60.8229 131.637L60.5174 131.995L65.5256 136.329L65.5678 146.482L58.4478 140.178L58.1371 140.536L65.573 147.114L65.6099 156.356L60.2594 152.159L59.9697 152.533L65.6152 156.962L65.6415 162.913L66.1154 162.908L66.0681 152.491V152.496Z" fill="white"/>
<path d="M59.2747 155.055L58.8008 155.003L58.2057 160.258L55.0407 156.714H55.0459L54.2402 150.358L53.7715 150.416L54.493 156.103L46.6147 147.298L46.2618 147.614L51.6071 153.586L48.2262 153.628L48.2314 154.102L52.0231 154.055L55.7727 158.247L50.4801 158.252L50.4854 158.721L56.194 158.715L59.6012 162.523L55.8675 162.749L55.8991 163.223L60.0015 162.976L62.2712 165.509L62.6241 165.193L58.627 160.727L59.2747 155.055Z" fill="white"/>
<path d="M77.1009 156.93L83.3835 155.656L83.2887 155.187L77.6696 156.33L85.8587 147.819L85.5216 147.493L79.9605 153.265L79.6656 149.894L79.1969 149.936L79.5286 153.718L75.6316 157.767L75.2261 152.491L74.7574 152.527L75.1892 158.226L71.6451 161.907L71.1448 158.204L70.6761 158.268L71.229 162.338L68.8698 164.793L69.2068 165.119L73.3619 160.801L79.0705 161.022L79.0863 160.548L73.8042 160.348L77.1009 156.925V156.93Z" fill="white"/>
<path d="M225.045 94.1038H190.746C188.783 94.1038 187.192 95.6953 187.192 97.6585V165.172C187.192 167.135 188.783 168.726 190.746 168.726H225.045C227.009 168.726 228.6 167.135 228.6 165.172V97.6585C228.6 95.6953 227.009 94.1038 225.045 94.1038Z" fill="#263238" stroke="#263238" stroke-miterlimit="10"/>
<path d="M210.758 98.5645H205.603C205.463 98.5645 205.329 98.509 205.23 98.4102C205.131 98.3115 205.076 98.1775 205.076 98.0379C205.076 97.8982 205.131 97.7642 205.23 97.6655C205.329 97.5667 205.463 97.5112 205.603 97.5112H210.758C210.898 97.5112 211.032 97.5667 211.131 97.6655C211.229 97.7642 211.285 97.8982 211.285 98.0379C211.285 98.1775 211.229 98.3115 211.131 98.4102C211.032 98.509 210.898 98.5645 210.758 98.5645Z" fill="white"/>
<path d="M225.983 162.059H189.809V98.6221H198.383L199.346 99.4225C199.684 99.7017 200.109 99.8544 200.547 99.8544H215.672C216.128 99.8555 216.57 99.6909 216.914 99.3909L217.783 98.6221H225.983V162.059Z" fill="black" stroke="#263238" stroke-linecap="round" stroke-linejoin="round"/>
<path d="M209.031 164.013C209.032 163.849 208.984 163.689 208.894 163.552C208.804 163.416 208.675 163.309 208.524 163.246C208.373 163.182 208.207 163.165 208.046 163.196C207.885 163.228 207.737 163.306 207.621 163.421C207.505 163.537 207.426 163.684 207.393 163.845C207.361 164.005 207.377 164.172 207.44 164.323C207.502 164.475 207.608 164.604 207.744 164.695C207.88 164.786 208.04 164.835 208.204 164.835C208.312 164.835 208.42 164.815 208.52 164.774C208.62 164.733 208.711 164.672 208.788 164.596C208.865 164.52 208.926 164.429 208.968 164.329C209.009 164.229 209.031 164.122 209.031 164.013Z" fill="white"/>
<path d="M224.04 149.241H191.895" stroke="#263238" stroke-linecap="round" stroke-linejoin="round"/>
<path d="M224.04 151.98H191.895" stroke="#263238" stroke-linecap="round" stroke-linejoin="round"/>
<path d="M224.04 154.718H191.895" stroke="#263238" stroke-linecap="round" stroke-linejoin="round"/>
<path d="M224.04 157.457H191.895" stroke="#263238" stroke-linecap="round" stroke-linejoin="round"/>
<path d="M224.04 160.195H191.895" stroke="#263238" stroke-linecap="round" stroke-linejoin="round"/>
<path d="M223.266 102.967H192.837C192.328 102.967 191.916 103.379 191.916 103.888V108.981C191.916 109.49 192.328 109.902 192.837 109.902H223.266C223.775 109.902 224.187 109.49 224.187 108.981V103.888C224.187 103.379 223.775 102.967 223.266 102.967Z" fill="#263238" stroke="#263238" stroke-linecap="round" stroke-linejoin="round"/>
<path d="M223.26 111.799H192.574C192.065 111.799 191.652 112.211 191.652 112.72V117.807C191.652 118.316 192.065 118.729 192.574 118.729H223.26C223.769 118.729 224.182 118.316 224.182 117.807V112.72C224.182 112.211 223.769 111.799 223.26 111.799Z" fill="white" stroke="#263238" stroke-linecap="round" stroke-linejoin="round"/>
<path d="M223.26 121.931H192.574C192.065 121.931 191.652 122.344 191.652 122.853V127.945C191.652 128.454 192.065 128.867 192.574 128.867H223.26C223.769 128.867 224.182 128.454 224.182 127.945V122.853C224.182 122.344 223.769 121.931 223.26 121.931Z" fill="white" stroke="#263238" stroke-linecap="round" stroke-linejoin="round"/>
<path d="M222.233 130.625H193.506C192.482 130.625 191.652 131.455 191.652 132.479V145.703C191.652 146.727 192.482 147.556 193.506 147.556H222.233C223.257 147.556 224.087 146.727 224.087 145.703V132.479C224.087 131.455 223.257 130.625 222.233 130.625Z" fill="#263238" stroke="#263238" stroke-linecap="round" stroke-linejoin="round"/>
<path d="M211.885 134.912C211.885 134.436 211.744 133.97 211.479 133.575C211.215 133.179 210.839 132.87 210.399 132.688C209.96 132.506 209.476 132.459 209.009 132.551C208.542 132.644 208.113 132.873 207.777 133.21C207.44 133.547 207.211 133.975 207.118 134.442C207.025 134.909 207.073 135.393 207.255 135.833C207.437 136.273 207.745 136.648 208.141 136.913C208.537 137.177 209.002 137.318 209.478 137.318C210.117 137.318 210.729 137.065 211.18 136.614C211.631 136.162 211.885 135.55 211.885 134.912Z" fill="white" stroke="#263238" stroke-linecap="round" stroke-linejoin="round"/>
<path d="M193.543 147.556H222.197C223.25 147.556 224.087 146.982 224.087 146.277V140.263L215.034 135.907L208.583 143.37L203.238 139.731L192.637 147.383C192.926 147.495 193.233 147.554 193.543 147.556Z" fill="white" stroke="#263238" stroke-linecap="round" stroke-linejoin="round"/>
<path d="M200.779 76.0724H197.619V72.386L188.066 77.905L197.614 83.4188V79.7324H198.935V87.8108H202.622V77.905C202.619 77.418 202.424 76.9519 202.078 76.6085C201.733 76.2651 201.266 76.0724 200.779 76.0724Z" fill="#263238"/>
<path d="M128.678 151.97V139.489H91.92V151.97C91.9204 156.041 90.5453 159.994 88.0177 163.187L86.4062 165.219H134.192L132.586 163.187C130.057 159.995 128.68 156.042 128.678 151.97Z" fill="white" stroke="#263238" stroke-width="1.09543" stroke-linecap="round" stroke-linejoin="round"/>
<g style="mix-blend-mode:multiply">
<path d="M89.6609 160.706H130.938C129.458 158.032 128.681 155.026 128.679 151.97V139.489H91.9201V151.97C91.9202 155.026 91.1427 158.033 89.6609 160.706Z" fill="black"/>
</g>
<path d="M128.679 141.363H91.9202V146.635H128.679V141.363Z" fill="#263238" stroke="#263238" stroke-width="1.09543" stroke-linecap="round" stroke-linejoin="round"/>
<path d="M179.282 32.6152H41.3223C38.6203 32.6152 36.4299 34.8056 36.4299 37.5076V138.53C36.4299 141.232 38.6203 143.422 41.3223 143.422H179.282C181.984 143.422 184.174 141.232 184.174 138.53V37.5076C184.174 34.8056 181.984 32.6152 179.282 32.6152Z" fill="#263238" stroke="#263238" stroke-width="1.09543" stroke-linecap="round" stroke-linejoin="round"/>
<path d="M36.4296 126.196H184.174V138.525C184.174 139.822 183.659 141.066 182.741 141.984C181.824 142.901 180.579 143.417 179.282 143.417H41.3062C40.0086 143.417 38.7642 142.901 37.8468 141.984C36.9293 141.066 36.4138 139.822 36.4138 138.525V126.196H36.4296Z" fill="white" stroke="#263238" stroke-width="1.09543" stroke-linecap="round" stroke-linejoin="round"/>
<path d="M176.738 39.5088H43.8604V117.792H176.738V39.5088Z" fill="black" stroke="#263238" stroke-width="1.09543" stroke-linecap="round" stroke-linejoin="round"/>
<path d="M113.027 134.812C113.028 134.272 112.869 133.744 112.57 133.295C112.271 132.846 111.845 132.495 111.347 132.288C110.849 132.08 110.3 132.026 109.77 132.13C109.241 132.235 108.754 132.494 108.372 132.876C107.99 133.257 107.73 133.743 107.624 134.272C107.519 134.802 107.572 135.35 107.779 135.849C107.985 136.348 108.335 136.774 108.783 137.074C109.232 137.374 109.76 137.534 110.299 137.534C111.022 137.534 111.715 137.248 112.226 136.737C112.738 136.227 113.026 135.534 113.027 134.812Z" fill="#263238" stroke="#263238" stroke-width="1.09543" stroke-linecap="round" stroke-linejoin="round"/>
<path d="M134.203 165.219H86.4062V167.447H134.203V165.219Z" fill="white" stroke="#263238" stroke-width="1.09543" stroke-linecap="round" stroke-linejoin="round"/>
<path d="M168.412 48.2769H55.7727C54.7489 48.2769 53.9189 49.1068 53.9189 50.1306V58.1985C53.9189 59.2222 54.7489 60.0522 55.7727 60.0522H168.412C169.436 60.0522 170.266 59.2222 170.266 58.1985V50.1306C170.266 49.1068 169.436 48.2769 168.412 48.2769Z" fill="#263238" stroke="#263238" stroke-linecap="round" stroke-linejoin="round"/>
<path d="M85.332 82.4866H55.2038C54.18 82.4866 53.3501 83.3165 53.3501 84.3403V106.706C53.3501 107.73 54.18 108.56 55.2038 108.56H85.332C86.3558 108.56 87.1857 107.73 87.1857 106.706V84.3403C87.1857 83.3165 86.3558 82.4866 85.332 82.4866Z" fill="#263238" stroke="#263238" stroke-linecap="round" stroke-linejoin="round"/>
<path d="M75.2157 88.2319C75.2157 87.6497 75.043 87.0805 74.7195 86.5964C74.3961 86.1123 73.9363 85.735 73.3984 85.5122C72.8605 85.2894 72.2686 85.2311 71.6975 85.3447C71.1265 85.4582 70.6019 85.7386 70.1902 86.1503C69.7785 86.562 69.4982 87.0866 69.3846 87.6576C69.271 88.2287 69.3293 88.8206 69.5521 89.3585C69.7749 89.8964 70.1522 90.3561 70.6363 90.6796C71.1204 91.0031 71.6896 91.1758 72.2718 91.1758C72.6584 91.1758 73.0412 91.0996 73.3984 90.9517C73.7556 90.8037 74.0801 90.5869 74.3534 90.3135C74.6268 90.0402 74.8436 89.7156 74.9916 89.3585C75.1395 89.0013 75.2157 88.6185 75.2157 88.2319Z" fill="white" stroke="#263238" stroke-linecap="round" stroke-linejoin="round"/>
<path d="M55.3196 108.56H85.2108C85.7346 108.56 86.2369 108.352 86.6072 107.981C86.9776 107.611 87.1856 107.109 87.1856 106.585V97.3269L77.7433 90.6177L71.013 102.13L65.4045 96.5211L54.3453 108.312C54.6431 108.478 54.9789 108.563 55.3196 108.56Z" fill="white" stroke="#263238" stroke-linecap="round" stroke-linejoin="round"/>
<path d="M104.754 64.5391H56.6047C55.5809 64.5391 54.751 65.369 54.751 66.3928V74.4607C54.751 75.4845 55.5809 76.3144 56.6047 76.3144H104.754C105.778 76.3144 106.608 75.4845 106.608 74.4607V66.3928C106.608 65.369 105.778 64.5391 104.754 64.5391Z" fill="white" stroke="#263238" stroke-linecap="round" stroke-linejoin="round"/>
<path d="M168.417 64.5391H120.268C119.244 64.5391 118.414 65.369 118.414 66.3928V74.4607C118.414 75.4845 119.244 76.3144 120.268 76.3144H168.417C169.441 76.3144 170.271 75.4845 170.271 74.4607V66.3928C170.271 65.369 169.441 64.5391 168.417 64.5391Z" fill="white" stroke="#263238" stroke-linecap="round" stroke-linejoin="round"/>
<path d="M169.413 83.0447H95.7329" stroke="#263238" stroke-linecap="round" stroke-linejoin="round"/>
<path d="M169.413 88.0896H95.7329" stroke="#263238" stroke-linecap="round" stroke-linejoin="round"/>
<path d="M169.413 93.1401H95.7329" stroke="#263238" stroke-linecap="round" stroke-linejoin="round"/>
<path d="M169.413 98.1851H95.7329" stroke="#263238" stroke-linecap="round" stroke-linejoin="round"/>
<path d="M169.413 103.23H95.7329" stroke="#263238" stroke-linecap="round" stroke-linejoin="round"/>
<path d="M169.413 108.281H95.7329" stroke="#263238" stroke-linecap="round" stroke-linejoin="round"/>
<path d="M172.694 44.5378H52.6918V114.073H172.694V44.5378Z" stroke="white" stroke-width="2" stroke-linecap="round" stroke-linejoin="round"/>
<path d="M55.0142 44.538C55.0142 44.0787 54.878 43.6296 54.6228 43.2477C54.3676 42.8658 54.0049 42.5681 53.5805 42.3924C53.1562 42.2166 52.6892 42.1706 52.2387 42.2602C51.7882 42.3498 51.3744 42.571 51.0496 42.8958C50.7248 43.2206 50.5036 43.6344 50.414 44.0849C50.3244 44.5354 50.3704 45.0024 50.5462 45.4267C50.7219 45.8511 51.0196 46.2138 51.4015 46.469C51.7835 46.7242 52.2325 46.8604 52.6918 46.8604C52.997 46.8611 53.2993 46.8015 53.5814 46.685C53.8635 46.5686 54.1198 46.3975 54.3355 46.1817C54.5513 45.9659 54.7224 45.7096 54.8388 45.4276C54.9553 45.1455 55.0149 44.8432 55.0142 44.538Z" fill="white"/>
<path d="M175.016 44.538C175.016 44.0784 174.88 43.6292 174.624 43.2472C174.369 42.8651 174.006 42.5675 173.581 42.3919C173.157 42.2162 172.689 42.1705 172.239 42.2606C171.788 42.3506 171.374 42.5723 171.05 42.8977C170.725 43.223 170.504 43.6373 170.415 44.0881C170.326 44.539 170.373 45.0061 170.55 45.4304C170.726 45.8547 171.025 46.217 171.407 46.4716C171.79 46.7261 172.239 46.8614 172.699 46.8604C173.004 46.8604 173.305 46.8003 173.587 46.6835C173.868 46.5667 174.124 46.3956 174.339 46.1799C174.555 45.9641 174.725 45.7081 174.841 45.4263C174.957 45.1446 175.017 44.8427 175.016 44.538Z" fill="white"/>
<path d="M113.938 44.538C113.938 44.0787 113.802 43.6296 113.547 43.2477C113.292 42.8658 112.929 42.5681 112.505 42.3924C112.08 42.2166 111.613 42.1706 111.163 42.2602C110.712 42.3498 110.298 42.571 109.974 42.8958C109.649 43.2206 109.428 43.6344 109.338 44.0849C109.248 44.5354 109.294 45.0024 109.47 45.4267C109.646 45.8511 109.944 46.2138 110.326 46.469C110.708 46.7242 111.157 46.8604 111.616 46.8604C111.921 46.8611 112.223 46.8015 112.505 46.685C112.788 46.5686 113.044 46.3975 113.26 46.1817C113.475 45.9659 113.646 45.7096 113.763 45.4276C113.879 45.1455 113.939 44.8432 113.938 44.538Z" fill="white"/>
<path d="M113.938 114.158C113.939 113.698 113.804 113.249 113.549 112.866C113.295 112.483 112.933 112.185 112.508 112.008C112.084 111.832 111.617 111.785 111.166 111.874C110.715 111.963 110.301 112.184 109.976 112.508C109.65 112.833 109.429 113.247 109.338 113.697C109.248 114.148 109.294 114.615 109.47 115.04C109.645 115.465 109.943 115.828 110.325 116.083C110.707 116.339 111.156 116.475 111.616 116.475C111.921 116.476 112.222 116.416 112.504 116.3C112.786 116.184 113.042 116.013 113.258 115.798C113.473 115.583 113.645 115.327 113.761 115.046C113.878 114.764 113.938 114.462 113.938 114.158Z" fill="white"/>
<path d="M55.0142 114.158C55.0152 113.698 54.8799 113.249 54.6254 112.866C54.3708 112.483 54.0085 112.185 53.5842 112.008C53.1599 111.832 52.6928 111.785 52.242 111.874C51.7911 111.963 51.3768 112.184 51.0515 112.508C50.7261 112.833 50.5044 113.247 50.4144 113.697C50.3244 114.148 50.37 114.615 50.5457 115.04C50.7213 115.465 51.019 115.828 51.401 116.083C51.783 116.339 52.2322 116.475 52.6918 116.475C52.9965 116.476 53.2984 116.416 53.5801 116.3C53.8619 116.184 54.1179 116.013 54.3337 115.798C54.5494 115.583 54.7205 115.327 54.8373 115.046C54.9541 114.764 55.0142 114.462 55.0142 114.158Z" fill="white"/>
<path d="M175.016 113.315C175.017 112.855 174.882 112.406 174.627 112.023C174.372 111.64 174.01 111.342 173.585 111.165C173.16 110.989 172.693 110.942 172.242 111.032C171.791 111.121 171.377 111.343 171.052 111.668C170.726 111.993 170.505 112.407 170.416 112.858C170.326 113.309 170.373 113.777 170.549 114.201C170.726 114.626 171.024 114.988 171.407 115.243C171.79 115.498 172.239 115.633 172.699 115.632C173.314 115.632 173.903 115.388 174.337 114.954C174.772 114.519 175.016 113.93 175.016 113.315Z" fill="white"/>
<path d="M60.8809 87.0313C60.1057 87.7446 59.3692 88.4988 58.6743 89.2905C58.1162 89.9233 57.6321 90.6177 57.2314 91.3602C57.2314 91.3602 56.9944 91.0389 55.741 89.3011C54.4876 87.5632 54.614 86.2045 54.614 86.2045L56.5731 84.3245C56.5731 84.3245 60.37 84.8564 60.8809 87.0313Z" fill="white" stroke="#263238" stroke-linecap="round" stroke-linejoin="round"/>
<path d="M64.1513 79.1318C64.1513 79.1318 64.3461 80.7117 64.7937 80.8697C65.2414 81.0277 66.7475 80.6854 66.3473 81.8018C66.0735 82.4996 65.5575 83.0755 64.8938 83.4238C64.8938 83.4238 64.404 87.2787 64.0933 87.7948C63.7826 88.3109 63.3982 88.6795 62.0553 88.2056L59.6012 87.3314C59.2751 87.3161 58.9499 87.2845 58.627 87.2366C58.0266 87.1471 58.0266 87.2366 57.2683 85.8094C56.5099 84.3823 55.6884 85.2828 56.3414 83.4028C56.9944 81.5227 57.5684 80.3115 58.8955 79.4004C60.2226 78.4894 64.1513 79.1318 64.1513 79.1318Z" fill="white" stroke="#263238" stroke-linecap="round" stroke-linejoin="round"/>
<path d="M64.2091 81.5913C64.2407 82.0442 64.1722 82.4233 64.0511 82.4339C63.93 82.4444 63.8036 82.081 63.7667 81.6229C63.7299 81.1647 63.8036 80.7908 63.9247 80.7803C64.0458 80.7697 64.1564 81.1278 64.2091 81.5913Z" fill="#263238"/>
<path d="M50.1482 75.2086C50.1482 75.2086 49.2582 70.4953 49.2582 68.8417C49.2582 67.1881 52.4179 56.8663 52.4179 56.8663C52.4179 56.8663 49.9481 53.3063 49.7427 53.043C49.5373 52.7797 49.7427 52.2794 50.2693 52.6638C50.6589 52.9983 51.0009 53.3846 51.2857 53.8119L49.8849 51.005C49.8849 51.005 49.8849 50.3256 50.3694 50.4783C50.8539 50.6311 52.0493 52.8166 52.0493 52.8166L50.6485 49.6305C50.6626 49.5349 50.7005 49.4444 50.7589 49.3674C50.8173 49.2904 50.8941 49.2294 50.9824 49.19C51.0706 49.1506 51.1673 49.1341 51.2636 49.1421C51.3599 49.15 51.4526 49.1822 51.5332 49.2355C51.9387 49.462 53.0709 51.8002 53.0709 51.8002L52.6865 49.3777C52.6865 49.3777 53.2131 48.5298 53.7082 49.6305C53.9504 50.1571 54.9773 53.8435 54.9773 53.8435L56.7836 52.9377C56.9156 52.8713 57.068 52.8584 57.2093 52.9016C57.3505 52.9447 57.4697 53.0406 57.542 53.1694C57.6086 53.2863 57.6325 53.4229 57.6094 53.5555C57.5864 53.6881 57.5178 53.8086 57.4156 53.8961C56.9364 54.2964 56.1359 54.981 55.8726 55.2443C55.4181 55.7719 54.9926 56.324 54.5982 56.8979L53.9557 69.1367L54.5982 74.7294L50.1482 75.2086Z" fill="white"/>
<path d="M51.3278 75.0719C51.3278 73.7132 51.3278 72.4387 51.2647 71.554C51.1119 68.2047 52.4443 56.8665 52.4443 56.8665C52.4443 56.8665 49.2845 67.183 49.2845 68.8419C49.2845 70.5008 50.1745 75.2088 50.1745 75.2088L51.3278 75.0719Z" fill="black"/>
<path opacity="0.5" d="M51.3278 75.0719C51.3278 73.7132 51.3278 72.4387 51.2647 71.554C51.1119 68.2047 52.4443 56.8665 52.4443 56.8665C52.4443 56.8665 49.2845 67.183 49.2845 68.8419C49.2845 70.5008 50.1745 75.2088 50.1745 75.2088L51.3278 75.0719Z" fill="white"/>
<path d="M50.1482 75.2086C50.1482 75.2086 49.2582 70.4953 49.2582 68.8417C49.2582 67.1881 52.4179 56.8663 52.4179 56.8663C52.4179 56.8663 49.9481 53.3063 49.7427 53.043C49.5373 52.7797 49.7427 52.2794 50.2693 52.6638C50.6589 52.9983 51.0009 53.3846 51.2857 53.8119L49.8849 51.005C49.8849 51.005 49.8849 50.3256 50.3694 50.4783C50.8539 50.6311 52.0493 52.8166 52.0493 52.8166L50.6485 49.6305C50.6626 49.5349 50.7005 49.4444 50.7589 49.3674C50.8173 49.2904 50.8941 49.2294 50.9824 49.19C51.0706 49.1506 51.1673 49.1341 51.2636 49.1421C51.3599 49.15 51.4526 49.1822 51.5332 49.2355C51.9387 49.462 53.0709 51.8002 53.0709 51.8002L52.6865 49.3777C52.6865 49.3777 53.2131 48.5298 53.7082 49.6305C53.9504 50.1571 54.9773 53.8435 54.9773 53.8435L56.7836 52.9377C56.9156 52.8713 57.068 52.8584 57.2093 52.9016C57.3505 52.9447 57.4697 53.0406 57.542 53.1694C57.6086 53.2863 57.6325 53.4229 57.6094 53.5555C57.5864 53.6881 57.5178 53.8086 57.4156 53.8961C56.9364 54.2964 56.1359 54.981 55.8726 55.2443C55.4181 55.7719 54.9926 56.324 54.5982 56.8979L53.9557 69.1367L54.5982 74.7294L50.1482 75.2086Z" stroke="#263238" stroke-linecap="round" stroke-linejoin="round"/>
<path d="M61.2336 115.822C61.9375 116.588 62.8998 117.066 63.9352 117.165C65.5888 117.275 79.6866 114.716 79.6866 114.716C79.6866 114.716 83.078 117.402 83.3255 117.628C83.5731 117.855 84.0891 117.676 83.7416 117.144C83.4332 116.733 83.07 116.366 82.662 116.054L85.3688 117.634C85.3688 117.634 86.0482 117.702 85.9534 117.181C85.8586 116.659 83.731 115.359 83.731 115.359L86.8171 116.938C86.9136 116.931 87.0068 116.899 87.0877 116.846C87.1687 116.793 87.2348 116.72 87.28 116.634C87.3252 116.548 87.348 116.453 87.3463 116.356C87.3445 116.259 87.3182 116.164 87.27 116.08C87.0698 115.664 84.8106 114.384 84.8106 114.384L87.2015 114.911C87.2015 114.911 88.0757 114.463 87.0119 113.858C86.4853 113.584 82.899 112.315 82.899 112.315L83.9154 110.572C83.9908 110.445 84.0143 110.294 83.981 110.151C83.9476 110.008 83.8599 109.883 83.7363 109.803C83.6244 109.728 83.4898 109.695 83.356 109.709C83.2222 109.724 83.0977 109.785 83.0043 109.882C82.5725 110.335 81.8405 111.093 81.5613 111.335C81.0033 111.754 80.4231 112.142 79.8235 112.499L64.7357 111.972L62.0288 111.372L61.2336 115.822Z" fill="white" stroke="#263238" stroke-linecap="round" stroke-linejoin="round"/>
<path d="M57.005 90.6912C57.005 90.6912 61.6235 95.4993 61.7762 96.3735C61.9289 97.2477 50.8909 111.488 49.2215 112.883C47.5521 114.279 44.0922 117.744 44.0922 117.744L34.0863 112.199C34.0863 112.199 46.146 93.8615 46.8306 92.3343C47.5152 90.8071 49.4637 86.5888 49.4637 86.5888C49.4637 86.5888 49.5006 81.212 49.2373 77.0201C48.974 72.8281 49.3953 70.9797 49.6165 70.353C49.8376 69.7263 51.7704 69.2471 53.1922 69.5209C54.6141 69.7948 54.4403 69.9633 54.4403 69.9633C54.4403 69.9633 56.0202 77.7837 56.0939 78.1681C56.1677 78.5525 57.005 90.6912 57.005 90.6912Z" fill="white"/>
<path d="M57.363 93.6403C57.9739 92.1183 56.5994 90.9018 54.772 89.3746C54.2558 88.9709 53.875 88.4195 53.6802 87.7938C53.4854 87.1681 53.486 86.4979 53.6819 85.8726L51.27 83.2816C51.27 83.2816 51.4227 74.9082 51.27 71.5536C51.27 71.027 51.27 70.3424 51.27 69.5261C50.4116 69.6736 49.6901 69.9896 49.569 70.3529C49.3478 70.9796 48.9265 72.8228 49.1898 77.02C49.4531 81.2172 49.4162 86.5888 49.4162 86.5888L49.0423 87.3945L49.2635 89.3746L37.4039 108.723L44.408 113.141L54.4613 102.935L55.6462 105.131C56.4677 104.078 57.284 102.998 58.0371 101.971C57.4947 98.0218 57.0892 94.3091 57.363 93.6403Z" fill="black"/>
<path opacity="0.5" d="M57.363 93.6403C57.9739 92.1183 56.5994 90.9018 54.772 89.3746C54.2558 88.9709 53.875 88.4195 53.6802 87.7938C53.4854 87.1681 53.486 86.4979 53.6819 85.8726L51.27 83.2816C51.27 83.2816 51.4227 74.9082 51.27 71.5536C51.27 71.027 51.27 70.3424 51.27 69.5261C50.4116 69.6736 49.6901 69.9896 49.569 70.3529C49.3478 70.9796 48.9265 72.8228 49.1898 77.02C49.4531 81.2172 49.4162 86.5888 49.4162 86.5888L49.0423 87.3945L49.2635 89.3746L37.4039 108.723L44.408 113.141L54.4613 102.935L55.6462 105.131C56.4677 104.078 57.284 102.998 58.0371 101.971C57.4947 98.0218 57.0892 94.3091 57.363 93.6403Z" fill="white"/>
<path d="M57.005 90.6912C57.005 90.6912 61.6235 95.4993 61.7762 96.3735C61.9289 97.2477 50.8909 111.488 49.2215 112.883C47.5521 114.279 44.0922 117.744 44.0922 117.744L34.0863 112.199C34.0863 112.199 46.146 93.8615 46.8306 92.3343C47.5152 90.8071 49.4637 86.5888 49.4637 86.5888C49.4637 86.5888 49.5006 81.212 49.2373 77.0201C48.974 72.8281 49.3953 70.9797 49.6165 70.353C49.8376 69.7263 51.7704 69.2471 53.1922 69.5209C54.6141 69.7948 54.4403 69.9633 54.4403 69.9633C54.4403 69.9633 56.0202 77.7837 56.0939 78.1681C56.1677 78.5525 57.005 90.6912 57.005 90.6912Z" stroke="#263238" stroke-linecap="round" stroke-linejoin="round"/>
<path d="M55.5935 86.0887C55.9068 86.8571 56.2584 87.6094 56.6468 88.3427C57.1734 89.2274 58.0476 89.6645 58.1792 90.2964C58.3109 90.9284 59.1746 93.0665 59.1746 93.0665C59.1746 93.0665 56.2255 91.8289 54.93 90.1964C53.6345 88.5638 53.6555 85.8728 53.6555 85.8728C53.6555 85.8728 54.9774 85.5147 55.5935 86.0887Z" fill="white" stroke="#263238" stroke-linecap="round" stroke-linejoin="round"/>
<path d="M53.0815 101.719C53.0815 101.719 56.1254 106.669 57.5684 109.523C59.0113 112.378 60.9177 116.575 62.5871 116.817C64.2565 117.059 65.2202 114.589 65.315 113.684C65.4098 112.778 64.0669 111.019 63.514 107.306C62.961 103.594 61.7761 96.3735 61.7761 96.3735L60.6175 95.0254" fill="white"/>
<path d="M57.5157 97.7798L53.0815 101.719C53.0815 101.719 53.4818 102.372 54.0611 103.341L54.4613 102.935L59.6433 112.531C59.6433 112.531 58.1161 103.378 57.5157 97.7798Z" fill="black"/>
<path opacity="0.5" d="M57.5157 97.7798L53.0815 101.719C53.0815 101.719 53.4818 102.372 54.0611 103.341L54.4613 102.935L59.6433 112.531C59.6433 112.531 58.1161 103.378 57.5157 97.7798Z" fill="white"/>
<path d="M53.0815 101.719C53.0815 101.719 56.1254 106.669 57.5684 109.523C59.0113 112.378 60.9177 116.575 62.5871 116.817C64.2565 117.059 65.2202 114.589 65.315 113.684C65.4098 112.778 64.0669 111.019 63.514 107.306C62.961 103.594 61.7761 96.3735 61.7761 96.3735L60.6175 95.0254" stroke="#263238" stroke-linecap="round" stroke-linejoin="round"/>
<path d="M65.315 113.684C65.3677 113.157 65.5626 111.609 64.6726 111.325C64.0141 112.035 63.2115 112.597 62.3186 112.973C61.5032 113.344 60.6427 113.606 59.7592 113.752C60.6965 115.38 61.6761 116.686 62.5871 116.817C64.2618 117.065 65.2308 114.59 65.315 113.684Z" fill="white" stroke="#263238" stroke-linecap="round" stroke-linejoin="round"/>
<path d="M54.9353 72.5807L54.4087 69.9476C54.4087 69.9476 54.5878 69.7791 53.1606 69.5053C51.7335 69.2314 48.7422 69.5421 48.5158 70.1688C48.3841 70.548 47.9102 71.6907 49.1583 73.0968C50.0363 72.6247 51.001 72.3355 51.9939 72.2468C52.9869 72.1581 53.9875 72.2717 54.9353 72.5807Z" fill="white"/>
<path d="M51.2911 72.3597C51.2911 72.0701 51.2911 71.7963 51.2911 71.554C51.2911 71.0274 51.2911 70.2901 51.2911 69.4475C49.9903 69.516 48.658 69.7898 48.5211 70.1953C48.3841 70.6008 47.9154 71.7173 49.1635 73.1233C49.8352 72.7744 50.5508 72.5176 51.2911 72.3597Z" fill="black"/>
<path opacity="0.5" d="M51.2911 72.3597C51.2911 72.0701 51.2911 71.7963 51.2911 71.554C51.2911 71.0274 51.2911 70.2901 51.2911 69.4475C49.9903 69.516 48.658 69.7898 48.5211 70.1953C48.3841 70.6008 47.9154 71.7173 49.1635 73.1233C49.8352 72.7744 50.5508 72.5176 51.2911 72.3597Z" fill="white"/>
<path d="M54.9353 72.5807L54.4087 69.9476C54.4087 69.9476 54.5878 69.7791 53.1606 69.5053C51.7335 69.2314 48.7422 69.5421 48.5158 70.1688C48.3841 70.548 47.9102 71.6907 49.1583 73.0968C50.0363 72.6247 51.001 72.3355 51.9939 72.2468C52.9869 72.1581 53.9875 72.2717 54.9353 72.5807V72.5807Z" stroke="#263238" stroke-linecap="round" stroke-linejoin="round"/>
<path d="M55.1617 105.59C53.6722 104.349 52.0674 103.254 50.3694 102.319" stroke="#263238" stroke-linecap="round" stroke-linejoin="round"/>
<path d="M60.6859 81.8021C60.6859 81.8021 66.5157 79.2164 65.6467 75.6353C64.7778 72.0543 62.7134 70.4428 60.3805 70.9958C58.0475 71.5487 58.4689 72.8284 58.4689 72.8284C58.4689 72.8284 56.1517 72.2597 54.9563 73.8501C54.608 74.291 54.3896 74.8202 54.3254 75.3783C54.2612 75.9364 54.3538 76.5014 54.5929 77.0098C53.5627 77.9426 52.8547 79.1778 52.5707 80.5382C52.1546 82.7816 55.3723 86.8208 56.1148 87.2105C56.8574 87.6002 57.7421 86.5312 57.7421 86.5312C57.7421 86.5312 57.0364 84.2667 57.5999 84.0929C58.1634 83.9191 59.1798 85.2884 59.1798 85.2884C59.1798 85.2884 59.7064 85.973 60.1698 84.6301C60.4718 83.7158 60.6455 82.7641 60.6859 81.8021Z" fill="#263238" stroke="#263238" stroke-linecap="round" stroke-linejoin="round"/>
<path d="M64.9094 74.8188C64.9094 74.8188 66.0258 76.3145 64.1037 78.2419C62.1815 80.1694 57.742 81.0594 56.6519 82.1863C55.5618 83.3133 55.5987 86.0886 55.5987 86.0886" stroke="white" stroke-width="0.75" stroke-linecap="round" stroke-linejoin="round"/>
<path d="M60.686 81.8018C60.686 81.8018 57.8317 83.013 57.6 84.1031" stroke="white" stroke-width="0.75" stroke-linecap="round" stroke-linejoin="round"/>
<path d="M50.0219 165.324L55.878 168.484C55.9491 168.521 56.0064 168.579 56.0413 168.651C56.0761 168.723 56.0866 168.805 56.0711 168.883C56.0557 168.962 56.0151 169.033 55.9556 169.087C55.896 169.14 55.8207 169.173 55.741 169.179L47.8048 169.948C47.6246 169.965 47.4429 169.942 47.273 169.879C47.1032 169.817 46.9496 169.717 46.8236 169.587C46.6977 169.457 46.6026 169.3 46.5454 169.128C46.4883 168.957 46.4705 168.774 46.4935 168.595L46.8147 166.135L50.0219 165.324Z" fill="white" stroke="#263238" stroke-linecap="round" stroke-linejoin="round"/>
<path d="M55.9253 168.484C54.0716 168.7 51.1857 168.516 49.2161 168.842C48.3306 169.035 47.4189 169.076 46.5198 168.964C46.5794 169.253 46.7434 169.51 46.9804 169.685C47.2174 169.861 47.5108 169.944 47.8047 169.917L55.741 169.148C55.8153 169.141 55.8857 169.111 55.9429 169.064C56.0002 169.016 56.0415 168.952 56.0615 168.88C56.0815 168.808 56.0791 168.731 56.0548 168.661C56.0305 168.59 55.9853 168.529 55.9253 168.484Z" fill="white" stroke="#263238" stroke-linecap="round" stroke-linejoin="round"/>
<path d="M20.6099 164.798L18.7088 166.694C18.6059 166.795 18.5242 166.915 18.4684 167.048C18.4126 167.181 18.3839 167.324 18.3839 167.468C18.3839 167.612 18.4126 167.755 18.4684 167.888C18.5242 168.021 18.6059 168.141 18.7088 168.242L22.2108 171.602L26.5028 171.981C26.6276 171.988 26.7516 171.957 26.8596 171.895C26.9676 171.832 27.0549 171.739 27.1108 171.627C27.1667 171.515 27.1887 171.389 27.1743 171.265C27.1598 171.141 27.1095 171.024 27.0294 170.928L24.5911 168L23.659 165.925L20.6099 164.798Z" fill="white" stroke="#263238" stroke-linecap="round" stroke-linejoin="round"/>
<path d="M27.2085 171.476C25.7023 171.118 23.3694 170.57 22.7427 170.491C21.9686 170.396 19.6303 167.631 18.793 166.61L18.7088 166.694C18.6059 166.795 18.5242 166.915 18.4684 167.048C18.4126 167.181 18.3839 167.324 18.3839 167.468C18.3839 167.612 18.4126 167.755 18.4684 167.888C18.5242 168.021 18.6059 168.141 18.7088 168.242L22.2108 171.602L26.5028 171.981C26.6621 171.999 26.8225 171.958 26.9529 171.864C27.0832 171.771 27.1743 171.632 27.2085 171.476Z" fill="white" stroke="#263238" stroke-linecap="round" stroke-linejoin="round"/>
<path d="M46.5145 114.869L36.872 108.059C36.872 108.059 32.7116 112.799 32.3325 115.432C32.2903 115.727 32.2587 116.038 32.2324 116.354C32.0096 119.506 32.5989 122.663 33.9439 125.522L41.7906 142.474L46.8304 166.099L50.0376 165.309L48.9843 140.21L42.9334 120.919L46.5145 114.869Z" fill="#263238" stroke="#263238" stroke-linecap="round" stroke-linejoin="round"/>
<path d="M34.4126 121.109L35.7397 123.569L32.9012 142.854L20.6097 164.793L23.6326 165.925L40.2739 145.124L44.2446 122.057L45.5717 116.38" fill="#263238"/>
<path d="M34.4126 121.109L35.7397 123.569L32.9012 142.854L20.6097 164.793L23.6326 165.925L40.2739 145.124L44.2447 122.057L45.5717 116.38" stroke="#263238" stroke-linecap="round" stroke-linejoin="round"/>
<path d="M43.8919 125.349L41.6591 140.479" stroke="white" stroke-width="0.75" stroke-linecap="round" stroke-linejoin="round"/>
<path d="M34.7762 127.065L34.95 122.078L33.2332 118.297" stroke="white" stroke-width="0.75" stroke-linecap="round" stroke-linejoin="round"/>
<path d="M45.2506 114.516C45.2506 114.516 43.8761 117.781 40.7795 117.781" stroke="white" stroke-width="0.75" stroke-linecap="round" stroke-linejoin="round"/>
<path d="M43.5496 113.31L41.8276 114.858V116.233L39.4209 115.717L40.6269 119.156L36.8405 142.717" stroke="white" stroke-width="0.75" stroke-linecap="round" stroke-linejoin="round"/>
<path d="M36.3243 144.091L35.4659 145.292" stroke="white" stroke-width="0.75" stroke-linecap="round" stroke-linejoin="round"/>
</svg>
